<svg width="52" height="51" viewBox="0 0 52 51" fill="none" xmlns="http://www.w3.org/2000/svg">
<path d="M26.0059 50.3824C39.8098 50.3824 51 39.2565 51 25.532C51 11.8075 39.8098 0.681641 26.0059 0.681641C12.202 0.681641 1.01172 11.8075 1.01172 25.532C1.01172 39.2565 12.202 50.3824 26.0059 50.3824Z" stroke="#B7B7B7"/>
<path d="M24.7062 32.8791L24.6858 26.6199H22.0078V23.9373H24.6858V22.149C24.6858 19.7354 26.1778 18.5723 28.3272 18.5723C29.3568 18.5723 30.2417 18.649 30.4995 18.6834V21.2057L29.0088 21.2064C27.8399 21.2064 27.6135 21.7628 27.6135 22.5793V23.9373H30.9343L30.0416 26.6199H27.6135V32.8791H24.7062Z" fill="white"/>
</svg>
