<svg width="237" height="61" viewBox="0 0 237 61" fill="none" xmlns="http://www.w3.org/2000/svg">
<g clip-path="url(#clip0_229_2840)">
<path d="M234.028 17.6721C233.502 17.6851 232.99 17.8521 232.559 18.152C232.128 18.452 231.795 18.8716 231.603 19.3583C231.41 19.8451 231.366 20.3774 231.477 20.8886C231.588 21.3999 231.848 21.8673 232.225 22.2324C232.602 22.5976 233.079 22.8443 233.597 22.9416C234.115 23.0389 234.649 22.9825 235.135 22.7795C235.62 22.5765 236.034 22.2358 236.326 21.8002C236.617 21.3646 236.772 20.8534 236.772 20.3305C236.764 19.6167 236.47 18.9357 235.955 18.4372C235.44 17.9388 234.747 17.6636 234.028 17.6721ZM234.028 22.6512C233.57 22.6366 233.126 22.4883 232.752 22.2249C232.378 21.9614 232.09 21.5945 231.925 21.1698C231.76 20.7452 231.725 20.2816 231.823 19.8369C231.921 19.3923 232.149 18.9862 232.478 18.6695C232.808 18.3527 233.224 18.1392 233.674 18.0556C234.125 17.972 234.591 18.0221 235.013 18.1995C235.436 18.3769 235.796 18.6739 236.049 19.0533C236.303 19.4327 236.438 19.8779 236.438 20.3331C236.434 20.6426 236.368 20.948 236.244 21.2321C236.12 21.5162 235.941 21.7732 235.718 21.9886C235.494 22.2039 235.229 22.3733 234.939 22.487C234.649 22.6007 234.34 22.6565 234.028 22.6512ZM235.316 21.5081L235.048 20.9365C235.019 20.8726 234.986 20.8105 234.949 20.7505C234.917 20.7002 234.881 20.6522 234.842 20.6069C234.806 20.5651 234.765 20.5284 234.719 20.4979C234.677 20.4671 234.631 20.4413 234.582 20.4209C234.676 20.3941 234.765 20.3567 234.85 20.3092C234.926 20.2661 234.994 20.2103 235.051 20.1444C235.105 20.0821 235.146 20.0098 235.171 19.9317C235.201 19.8463 235.216 19.7563 235.214 19.6659C235.217 19.561 235.196 19.4568 235.156 19.3602C235.117 19.2722 235.06 19.1933 234.99 19.1288C234.91 19.0614 234.82 19.0082 234.722 18.972C234.608 18.9294 234.489 18.9008 234.368 18.8869H234.216H234.004H233.152C233.102 18.886 233.052 18.9008 233.01 18.9295C232.99 18.9475 232.975 18.9698 232.965 18.9947C232.956 19.0196 232.952 19.0464 232.955 19.073V21.7049C232.954 21.7122 232.955 21.7196 232.958 21.7265C232.961 21.7333 232.965 21.7396 232.97 21.7447C232.984 21.7598 233.002 21.7701 233.021 21.7739C233.056 21.7828 233.091 21.7891 233.126 21.7926H233.286H233.447C233.482 21.7891 233.515 21.7829 233.549 21.7739C233.569 21.7693 233.588 21.7592 233.603 21.7447C233.608 21.7396 233.612 21.7333 233.615 21.7265C233.618 21.7196 233.619 21.7122 233.618 21.7049V20.5857H233.827C233.891 20.5839 233.955 20.5938 234.015 20.6149C234.067 20.6338 234.115 20.6627 234.157 20.7C234.2 20.7418 234.238 20.7892 234.269 20.8408C234.301 20.8993 234.336 20.9631 234.374 21.0376L234.665 21.6836C234.672 21.7 234.68 21.716 234.69 21.7314C234.705 21.7449 234.723 21.7549 234.743 21.7607C234.775 21.7712 234.808 21.7774 234.842 21.7793H235.211C235.249 21.7781 235.287 21.7728 235.324 21.7633C235.343 21.7593 235.358 21.749 235.37 21.7341C235.374 21.7211 235.374 21.7072 235.37 21.6942C235.373 21.673 235.373 21.6516 235.37 21.6304L235.316 21.5081ZM234.491 19.8972C234.467 19.9485 234.43 19.9932 234.384 20.0274C234.332 20.0682 234.272 20.0972 234.208 20.1125C234.127 20.1351 234.044 20.1458 233.961 20.1444H233.621V19.3283H233.921C233.98 19.3248 234.039 19.3248 234.098 19.3283C234.137 19.3323 234.175 19.3385 234.213 19.3468C234.307 19.3625 234.393 19.4116 234.454 19.4851C234.503 19.5559 234.529 19.6408 234.526 19.727C234.528 19.7856 234.516 19.8437 234.491 19.8972Z" fill="#0F68EA"/>
<path d="M230.146 36.3783V27.2559C230.229 26.6075 230.162 25.9459 229.954 25.3348C229.746 24.7236 229.401 24.1834 228.955 23.766C227.58 22.9529 226.033 22.586 224.485 22.7058H214.217C211.035 22.7058 209.454 23.6776 209.512 26.2398V27.4768H212.069C212.016 26.787 212.069 26.0918 212.226 25.4226C212.402 24.8041 213.299 24.0531 215.291 24.0531C217.061 23.9692 218.836 24.0209 220.601 24.2078C220.902 24.2395 221.198 24.3214 221.478 24.4507C221.946 24.6738 222.338 25.0597 222.598 25.5524C222.857 26.045 222.971 26.6186 222.923 27.1896C222.923 27.1896 222.923 27.3664 222.923 27.4768C222.923 27.5872 222.923 28.8241 222.923 28.8241H213.632C212.069 28.7977 210.519 29.1439 209.083 29.8402C208.531 30.181 208.118 30.7513 207.931 31.4306C207.804 31.8126 207.731 32.2153 207.717 32.6233V37.571C207.599 42.2096 215.213 41.061 216.52 41.2156H223.236C225.039 41.3002 226.839 40.9695 228.525 40.2438L228.78 40.0891C229.912 39.4264 230.146 38.7638 230.146 36.3783ZM214.9 35.7819V33.4185C214.9 31.4306 216.637 30.4366 219.859 30.4366H223.001V36.069C223.001 38.2779 221.889 39.0068 219.546 39.1393H219.253C216.462 39.051 214.9 38.2116 214.9 35.7819Z" fill="#0F68EA"/>
<path d="M204.261 22.6172C199.439 22.6172 197.838 23.6553 197.702 26.2838C197.702 26.2838 197.702 40.5751 197.702 41.1936C198.864 41.2227 200.026 41.1414 201.176 40.9506L201.977 40.7518C202.356 40.6598 202.728 40.5343 203.089 40.3763C203.441 40.1775 204.807 39.7799 204.788 37.041C204.788 22.9485 204.788 22.6393 204.788 22.6172H204.261Z" fill="#0F68EA"/>
<path d="M197.858 20.872C197.729 20.1025 197.747 19.311 197.908 18.5496C198.07 17.7881 198.372 17.074 198.795 16.4543C199.071 16.1896 199.389 15.9871 199.732 15.8579C201.383 15.3823 203.094 15.2402 204.788 15.4381C204.966 16.7346 204.865 18.0604 204.495 19.3037C204.345 19.7391 204.112 20.1314 203.812 20.4523C202.363 21.4076 200.652 21.7223 199.01 21.3359C199.279 20.824 199.6 20.3495 199.966 19.9222C200.16 19.6708 200.369 19.4347 200.591 19.2154L202.699 17.139C201.558 17.6001 200.47 18.2157 199.459 18.9724C198.859 19.5293 198.321 20.1673 197.858 20.872Z" fill="#0F68EA"/>
<path d="M194.891 26.5035C194.891 23.3007 192.06 22.7485 188.762 22.6602H172.149V41.2363H172.52C175.468 41.1038 178.006 40.905 178.845 39.0275C179.08 38.4925 179.201 37.9022 179.196 37.3046V24.1401H183.569C184.352 24.1174 185.135 24.2215 185.892 24.4493C187.746 25.1562 187.844 26.7907 187.844 28.2927V28.5136C187.844 30.0597 187.844 41.2584 187.844 41.2584H189.367C192.431 41.2584 194.93 40.397 194.93 37.9894L194.891 26.5035Z" fill="#0F68EA"/>
<path d="M168.851 22.6172C164.029 22.6172 162.428 23.6553 162.292 26.2838C162.292 26.2838 162.292 40.5747 162.292 41.1932C163.454 41.2224 164.616 41.1411 165.766 40.9503L166.567 40.7515C166.946 40.6595 167.318 40.5339 167.679 40.376C168.031 40.1772 169.397 39.7796 169.378 37.0407C169.378 22.9485 169.378 22.6393 169.378 22.6172H168.851Z" fill="#0F68EA"/>
<path d="M162.194 20.8728C162.065 20.1033 162.082 19.3118 162.244 18.5504C162.405 17.7889 162.708 17.0748 163.13 16.4551C163.407 16.1904 163.725 15.9879 164.068 15.8587C165.722 15.4053 167.433 15.2856 169.123 15.5053C169.302 16.8017 169.201 18.1276 168.831 19.3708C168.681 19.8061 168.447 20.1984 168.147 20.5194C166.698 21.4747 164.988 21.7894 163.345 21.4029C163.614 20.891 163.935 20.4165 164.302 19.9893C164.496 19.738 164.704 19.5018 164.927 19.2824L167.035 17.2061C165.893 17.6671 164.805 18.2827 163.794 19.0394C163.198 19.5758 162.661 20.1913 162.194 20.8728Z" fill="#0F68EA"/>
<path d="M159.539 27.4539V26.5704C159.556 26.2762 159.556 25.9811 159.539 25.6869C159.266 23.478 158.192 22.6608 155.225 22.6608H147.241C145.616 22.4257 143.965 22.6224 142.419 23.2351C141.345 23.8977 140.994 25.1788 141.072 27.211C141.072 27.211 141.072 40.994 141.072 41.1928C142.129 41.1948 143.185 41.1284 144.234 40.994H144.605C145.729 40.8555 146.789 40.3401 147.65 39.5141C148.217 38.7189 148.158 37.7691 148.158 35.737C148.158 35.737 148.158 27.984 148.158 27.8294C148.171 27.0432 148.381 26.2772 148.763 25.6206C149.083 25.1612 149.519 24.8224 150.013 24.6487C151.285 24.2673 152.607 24.1476 153.917 24.2953C154.443 24.2653 154.969 24.3632 155.459 24.5824C155.954 24.8019 156.367 25.2067 156.63 25.7293C156.893 26.2518 156.989 26.8605 156.903 27.4539H159.539Z" fill="#0F68EA"/>
<path d="M138.027 48.6363C138.027 46.4275 136.074 44.7047 133.341 44.528C133.341 44.528 132.541 44.4175 132.131 44.4175C132.131 44.4175 125.923 44.4175 123.034 44.4175C122.717 44.4645 122.396 44.4645 122.078 44.4175C120.126 43.5781 120.653 41.2148 123.367 41.3031H132.912C134.41 41.4917 135.925 41.1767 137.265 40.3975C137.631 39.9728 137.907 39.4602 138.072 38.898C138.238 38.3357 138.289 37.7383 138.222 37.1506C138.222 34.9417 138.222 22.7271 138.222 22.7271H120.653C119.392 22.5512 118.112 22.757 116.944 23.3234C116.504 23.6092 116.146 24.0305 115.909 24.5383C115.595 25.2802 115.46 26.1035 115.519 26.9238V36.1124C115.519 37.3493 115.519 39.3152 116.339 40.1545C117.168 40.8486 118.177 41.2135 119.209 41.1927C118.879 41.3805 118.598 41.662 118.394 42.0098C118.189 42.3576 118.068 42.7596 118.042 43.1762C118.017 43.5928 118.087 44.0098 118.248 44.3862C118.407 44.7627 118.651 45.0855 118.954 45.3231C115.656 46.2509 116.065 49.3652 116.085 51.6624C116.138 52.3994 116.322 53.1167 116.627 53.7709C116.931 54.4252 117.35 55.003 117.857 55.4694C118.364 55.9358 118.949 56.2813 119.577 56.4849C120.205 56.6885 120.863 56.7462 121.512 56.6543C124.733 56.6543 130.277 56.6543 133.712 56.6543H133.517C136.914 56.3893 137.987 53.805 137.949 52.7668C138.046 50.4918 138.046 51.0881 138.027 48.6363ZM128.871 39.5582C128.448 39.6597 128.016 39.7042 127.583 39.6907H126.06C125.598 39.7491 125.129 39.6874 124.69 39.5102C124.252 39.333 123.854 39.0451 123.529 38.6681C123.203 38.2913 122.958 37.8354 122.812 37.3351C122.665 36.8348 122.621 36.3034 122.683 35.7811V28.0503C122.683 25.0021 124.128 24.0082 126.587 24.0523H128.013C130.414 24.0523 131.292 25.5543 131.273 27.4539V35.8473C131.155 38.3212 130.257 39.2047 128.871 39.5582ZM132.776 51.5961H121.278C119.325 51.5961 118.252 50.4255 118.252 48.8351C118.34 48.0309 118.705 47.2987 119.268 46.798C119.832 46.2973 120.547 46.0689 121.258 46.1624C121.715 46.2595 122.179 46.3112 122.644 46.3171H132.892C133.589 46.3043 134.265 46.5803 134.794 47.093C135.322 47.6058 135.667 48.3197 135.762 49.1002C135.781 50.3592 135.118 51.5961 132.854 51.5961H132.776Z" fill="#0F68EA"/>
<path d="M133.518 20.872C133.389 20.1025 133.406 19.311 133.568 18.5496C133.729 17.7881 134.031 17.074 134.454 16.4543C134.73 16.1896 135.048 15.9871 135.391 15.8579C137.042 15.3823 138.753 15.2402 140.447 15.4381C140.625 16.7346 140.524 18.0604 140.154 19.3037C140.005 19.7391 139.771 20.1314 139.471 20.4523C138.022 21.4076 136.311 21.7223 134.669 21.3359C134.938 20.824 135.259 20.3495 135.625 19.9222C135.82 19.6708 136.028 19.4347 136.251 19.2154L138.358 17.139C137.217 17.6001 136.129 18.2157 135.118 18.9724C134.518 19.5293 133.98 20.1673 133.518 20.872Z" fill="#0F68EA"/>
<path d="M97.7177 1.1672C99.4662 6.02412 108.811 34.3076 111.084 37.9978C111.232 38.2947 111.387 38.5678 111.552 38.8409C111.883 39.4211 112.27 39.9588 112.707 40.444C112.923 40.6663 113.158 40.8651 113.408 41.0378C113.418 41.0446 113.427 41.0547 113.431 41.0669C113.436 41.0791 113.437 41.0926 113.434 41.1055C113.432 41.1184 113.426 41.13 113.416 41.1387C113.408 41.1473 113.396 41.1525 113.384 41.1536C112.243 41.2278 109.836 41.498 107.51 41.0437C105.234 40.5984 103.67 38.9181 102.422 36.6707C102.224 36.3157 102.052 35.9434 101.908 35.5574L98.5719 26.6512C98.1616 26.6512 88.6909 26.6838 86.7899 26.6838C86.2114 28.2395 83.2234 36.3086 82.2003 39.0576C82.1752 39.1315 82.1466 39.2038 82.115 39.2744C81.7692 40.2333 80.736 41.0141 79.8789 41.1922C78.9718 41.3244 78.0567 41.37 77.1423 41.3287C77.133 41.3285 77.1244 41.3252 77.1173 41.3192C77.1101 41.3132 77.1051 41.3049 77.1022 41.2954C77.0994 41.2858 77.0994 41.2756 77.1022 41.2661C77.1051 41.2567 77.1108 41.2485 77.118 41.2426C77.7359 40.721 78.2672 40.0853 78.6904 39.3634C78.9818 38.8194 79.2345 38.2506 79.445 37.6624C80.7518 34.0256 84.4228 24.0475 84.4228 24.0475H98.0091L92.5738 7.01274C92.5738 7.01274 91.1676 10.8721 91.0101 11.2937C90.3241 10.026 89.6231 8.47632 89.6231 8.47632L90.2196 6.68022C90.4365 5.97662 90.7552 5.05036 91.1304 4.12113C91.6659 2.993 92.2015 2.10237 93.4545 1.24143C93.8748 0.971626 94.3252 0.763083 94.7935 0.620954C95.3305 0.440487 95.8854 0.328924 96.4453 0.288451C96.7138 0.26814 96.9809 0.342113 97.2093 0.499862C97.4377 0.657612 97.6153 0.89112 97.7177 1.1672Z" fill="#0F68EA"/>
<path d="M74.3501 8.18593C74.3981 8.37299 76.9736 7.73172 77.2414 7.65747C78.1736 7.39924 79.0808 7.02812 80.0102 6.76686C80.6804 6.58665 81.3706 6.5196 82.0587 6.56795C83.4384 6.6783 84.7674 7.18973 85.9123 8.05068C87.0564 8.91169 87.9765 10.0919 88.5787 11.4724C88.7498 11.8494 88.9188 12.2621 89.0957 12.7193C89.294 13.2418 89.8747 14.8716 90.0623 15.3911C90.5334 16.736 90.4561 16.5252 91.1735 18.4846C85.502 9.96425 78.7385 10.3828 78.7572 10.3887C80.8995 11.413 86.2545 13.3012 91.6096 21.5127C89.2002 19.7701 87.4488 21.3347 84.8411 21.3376C83.4005 21.3376 81.6276 21.2575 80.3395 20.3075C79.4023 19.6098 77.8063 18.2886 76.5132 14.5747C75.2201 10.8608 74.3501 8.18593 74.3501 8.18593Z" fill="#0F68EA"/>
<path fill-rule="evenodd" clip-rule="evenodd" d="M14.2918 44.5547C16.2486 45.3998 18.0635 46.5422 19.672 47.9415C21.8723 49.5702 23.8136 51.9761 25.9399 53.938C26.6907 54.5525 27.6157 54.9152 28.5838 54.9743C29.8411 54.9743 30.9873 54.9743 32.2816 54.9743C32.3168 54.9774 32.3501 54.9917 32.3767 55.0149C32.4033 55.0382 32.4218 55.0694 32.4295 55.1039C32.4295 55.326 32.4295 55.474 32.5404 55.6591C32.5461 55.6839 32.546 55.7096 32.5402 55.7343C32.5344 55.759 32.523 55.7821 32.507 55.8017C32.491 55.8213 32.4706 55.837 32.4476 55.8476C32.4245 55.8582 32.3994 55.8633 32.374 55.8627C30.0041 55.8005 27.6426 55.553 25.3112 55.1224C24.5716 54.9928 23.3699 54.7153 22.6488 54.5116C18.909 53.5009 15.3346 51.955 12.0361 49.9218C12.6442 48.0756 13.3985 46.2808 14.2918 44.5547Z" fill="#0F68EA"/>
<path fill-rule="evenodd" clip-rule="evenodd" d="M26.8642 56.7905C21.485 56.0408 16.3282 54.1477 11.7402 51.2383C11.0632 52.5609 10.7144 54.0273 10.7233 55.5135C10.7401 56.2854 10.9503 57.0408 11.3348 57.7102C11.7192 58.3796 12.2655 58.9415 12.9235 59.3445C13.1782 59.5366 13.4506 59.7039 13.737 59.8442C14.4348 60.1706 15.1665 60.4188 15.9188 60.5845C18.7726 60.8377 21.628 60.1134 24.0169 58.5302L26.8642 56.7905Z" fill="#0F68EA"/>
<path fill-rule="evenodd" clip-rule="evenodd" d="M13.9587 60.4923C6.47062 58.1973 9.44738 51.8678 11.8324 46.8153C13.5175 43.8286 14.545 40.5157 14.8462 37.0989C15.0988 33.9293 14.8238 30.7396 14.0326 27.6602C10.8541 28.5116 7.95779 30.1911 5.63862 32.5276C3.95402 34.1736 2.63534 36.1568 1.76875 38.3477C0.902167 40.5387 0.507177 42.888 0.609594 45.2422C0.708768 48.9314 2.21752 52.442 4.8251 55.0511C0.0549236 47.8887 4.54776 36.6732 10.3718 33.0458C6.15631 38.3389 2.4585 48.9436 6.71098 56.6057C8.78406 58.4593 11.2686 59.7917 13.9587 60.4923Z" fill="#0F68EA"/>
<path fill-rule="evenodd" clip-rule="evenodd" d="M47.4237 46.4983C47.1634 44.3783 47.232 42.2308 47.6271 40.1318C47.9229 37.4112 49.0138 34.5796 49.6239 31.6925C49.7752 30.7314 49.6199 29.747 49.1802 28.8794C48.57 27.7875 48.0154 26.7695 47.3313 25.7146C47.3087 25.6855 47.2966 25.6497 47.2966 25.6128C47.2966 25.576 47.3087 25.5402 47.3313 25.511L47.7565 25.1224C47.7721 25.1031 47.7918 25.0875 47.8142 25.0768C47.8366 25.0661 47.8611 25.0605 47.8859 25.0605C47.9108 25.0605 47.9353 25.0661 47.9577 25.0768C47.9801 25.0875 47.9998 25.1031 48.0154 25.1224C49.1625 27.2016 50.1454 29.3674 50.9551 31.6C51.2139 32.3032 51.5838 33.4507 51.7686 34.2095C52.7811 37.9537 53.2482 41.8247 53.1553 45.7025C51.2688 46.1191 49.3522 46.3852 47.4237 46.4983Z" fill="#0F68EA"/>
<path fill-rule="evenodd" clip-rule="evenodd" d="M51.6211 29.4727C53.7076 34.4604 54.7097 39.8356 54.5608 45.2409C56.0419 45.1586 57.4814 44.7206 58.7579 43.9639C59.4124 43.5588 59.955 42.9959 60.3362 42.3266C60.7173 41.6574 60.9247 40.9031 60.9396 40.1329C60.9692 39.819 60.9692 39.5029 60.9396 39.189C60.8689 38.4217 60.7139 37.6645 60.4773 36.9311C59.2545 34.3374 57.1879 32.2362 54.6163 30.9718L51.6211 29.4727Z" fill="#0F68EA"/>
<path fill-rule="evenodd" clip-rule="evenodd" d="M61.3275 38.7441C63.1765 46.3691 56.1691 46.9984 50.6039 47.4981C47.1734 47.5524 43.7943 48.3412 40.6937 49.8114C37.827 51.2189 35.2149 53.0954 32.9653 55.3636C35.3214 57.6412 38.2359 59.2563 41.4148 60.046C43.6754 60.6617 46.04 60.7953 48.3554 60.4382C50.6709 60.0812 52.8857 59.2413 54.8563 57.9732C58.0082 56.0314 60.2924 52.9497 61.2351 49.3673C57.075 56.9367 45.5379 58.88 39.418 55.6228C46.111 56.5851 57.0935 54.5123 61.6049 46.9613C62.1654 44.239 62.0703 41.4223 61.3275 38.7441Z" fill="#0F68EA"/>
<path fill-rule="evenodd" clip-rule="evenodd" d="M32.7623 16.5731C31.0818 17.876 29.211 18.9122 27.2155 19.6453C24.7195 20.7742 21.6688 21.3109 18.9324 22.1993C18.0212 22.5665 17.2506 23.2148 16.7322 24.05C16.1036 25.1419 15.5119 26.1228 14.8834 27.1962C14.8559 27.2145 14.8238 27.2243 14.7909 27.2243C14.758 27.2243 14.7258 27.2145 14.6984 27.1962L14.1438 27.0111C14.1172 27.0013 14.0937 26.9847 14.0753 26.9631C14.0569 26.9415 14.0444 26.9156 14.0389 26.8878C14.0333 26.86 14.035 26.8312 14.0436 26.8042C14.0522 26.7772 14.0676 26.7529 14.0883 26.7336C15.2944 24.719 16.6543 22.8009 18.1559 20.9963C18.6366 20.4041 19.4502 19.4972 20.0048 18.9605C22.7306 16.1813 25.8444 13.8124 29.2493 11.9277C30.5419 13.3802 31.7166 14.9335 32.7623 16.5731Z" fill="#0F68EA"/>
<path fill-rule="evenodd" clip-rule="evenodd" d="M15.9743 21.6068C19.2194 17.26 23.3546 13.6571 28.1031 11.0392C27.2849 9.80218 26.1815 8.78026 24.886 8.05948C24.2086 7.68857 23.4488 7.49414 22.6766 7.49414C21.9044 7.49414 21.1446 7.68857 20.4672 8.05948C20.1758 8.18695 19.8972 8.3419 19.6352 8.52217C19.0192 8.97721 18.455 9.49859 17.9527 10.0768C16.3303 12.4666 15.5734 15.3401 15.8079 18.22L15.9743 21.6068Z" fill="#0F68EA"/>
<path fill-rule="evenodd" clip-rule="evenodd" d="M19.0991 8.52145C24.6459 3.08025 28.7504 8.78053 32.0415 13.3149C33.8273 16.2573 36.2232 18.7818 39.0673 20.7179C41.7106 22.483 44.6284 23.7963 47.7017 24.6044C48.5056 21.4079 48.4482 18.0551 47.5353 14.888C46.916 12.6167 45.8253 10.5016 44.3343 8.68075C42.8434 6.85983 40.9857 5.37403 38.8824 4.32024C35.6043 2.58288 31.7828 2.17848 28.2142 3.19129C37.015 3.00622 44.3921 11.8898 44.688 18.8116C42.1364 12.5561 34.7594 4.15368 25.9586 4.07965C23.3539 4.99748 21.0033 6.51959 19.0991 8.52145Z" fill="#0F68EA"/>
<path d="M25.5328 37.375L22.7964 43.686C23.2415 44.1586 23.7982 44.5115 24.4154 44.712C25.0326 44.9126 25.6903 44.9544 26.3278 44.8334C26.7032 44.7744 27.062 44.6368 27.3806 44.4295C27.6992 44.2222 27.9705 43.95 28.1767 43.6304C28.491 43.1122 29.5264 40.5767 30.0256 39.2997C30.1366 39.0221 30.266 38.8185 30.5618 38.8185H33.52L33.0024 37.375H25.5328Z" fill="#0F68EA"/>
<path d="M28.9717 28.4724C29.346 27.4941 30.0859 26.6998 31.0348 26.2577C31.9837 25.8156 33.0673 25.7603 34.0562 26.1035C34.5481 26.3564 34.9836 26.7065 35.3364 27.1328C35.6892 27.5591 35.9518 28.0527 36.1085 28.5835L41.9879 44.0186C41.4591 44.5361 40.8298 44.9392 40.139 45.2031C39.6619 45.384 39.1464 45.4398 38.6416 45.3652C38.1369 45.2908 37.6595 45.0884 37.2547 44.7775C36.6279 44.2989 36.1423 43.6593 35.8495 42.9267C35.4243 41.9828 31.0794 30.6193 30.7466 29.8235C30.638 29.4356 30.4059 29.0938 30.0855 28.85C29.7652 28.6062 29.3741 28.4736 28.9717 28.4724Z" fill="#0F68EA"/>
<path d="M21.5947 29.6389C22.1156 29.5858 22.6297 29.4804 23.1294 29.3243C23.6286 29.1762 24.1093 28.9911 24.5899 28.8431C25.1901 28.6313 25.8332 28.5712 26.4622 28.668C27.0912 28.7649 27.6865 29.0157 28.1954 29.3983C28.8042 29.9937 29.2881 30.7046 29.619 31.4896L30.1737 32.7667C30.451 33.4144 30.3955 33.3034 30.8208 34.2473C30.0268 33.1298 28.9833 32.2133 27.7733 31.5708C26.5631 30.9282 25.2199 30.5772 23.8504 30.5458C26.6656 31.6009 29.1044 33.4688 30.8578 35.9129C29.3786 35.1726 28.8055 35.8204 27.4003 35.9129C26.5689 36.0043 25.7288 35.8567 24.9782 35.4873C23.9495 34.8369 23.1783 33.849 22.7966 32.6926C22.0939 30.9159 21.5947 29.6389 21.5947 29.6389Z" fill="#0F68EA"/>
</g>
<defs>
<clipPath id="clip0_229_2840">
<rect width="237" height="61" fill="white"/>
</clipPath>
</defs>
</svg>
