<svg width="100" height="50" viewBox="0 0 100 50" fill="none" xmlns="http://www.w3.org/2000/svg">
<g clip-path="url(#clip0_229_2875)">
<path d="M-0.21582 7.05078V34.7918L3.3334 34.8056V21.5956H11.8652V18.1004H3.31975V10.5322H14.4452V7.05078H-0.21582ZM20.8065 12.6926C21.422 12.6926 22.0122 12.4461 22.4474 12.0074C22.8827 11.5687 23.1271 10.9737 23.1271 10.3533C23.1271 9.73287 22.8827 9.13787 22.4474 8.69917C22.0122 8.26047 21.422 8.01401 20.8065 8.01401C20.191 8.01401 19.6008 8.26047 19.1656 8.69917C18.7304 9.13787 18.4859 9.73287 18.4859 10.3533C18.4859 10.9737 18.7304 11.5687 19.1656 12.0074C19.6008 12.4461 20.191 12.6926 20.8065 12.6926ZM19.0182 16.174V34.8056H22.5675V16.174H19.0182Z" fill="#0F68EA"/>
<path fill-rule="evenodd" clip-rule="evenodd" d="M35.6859 15.6373C30.99 15.6373 27.7138 19.6416 27.7138 24.4027C27.7138 29.1638 30.99 33.1681 35.6859 33.1681C37.8427 33.1681 39.6173 32.3424 40.9142 30.9664V33.4433C40.9232 34.1834 40.7866 34.9179 40.5123 35.6045C40.238 36.291 39.8314 36.9159 39.316 37.4431C38.8006 37.9703 38.1867 38.3893 37.5097 38.6758C36.8328 38.9624 36.1062 39.1108 35.3719 39.1126C34.2389 39.1126 33.1195 38.6722 32.2322 38.0393L30.4576 41.1354C31.8298 42.0295 33.416 42.5337 35.0488 42.5948C36.6816 42.6559 38.3005 42.2716 39.7347 41.4826C41.1689 40.6935 42.3652 39.5288 43.1975 38.1114C44.0298 36.6941 44.4671 35.0766 44.4634 33.4295V16.1877H40.9142V17.8527C39.6173 16.4767 37.8427 15.651 35.6859 15.651V15.6373ZM31.2494 24.4027C31.2494 21.4442 33.4881 19.1187 36.0818 19.1187C38.6754 19.1187 40.9005 21.4579 40.9005 24.4027C40.9005 27.3612 38.6618 29.6729 36.0818 29.6729C33.4881 29.6729 31.2494 27.3612 31.2494 24.4027Z" fill="#0F68EA"/>
<path d="M57.2133 19.1188C56.1982 19.1368 55.231 19.557 54.5208 20.2883C53.8106 21.0196 53.4146 22.0033 53.4183 23.0267V34.8057H49.8691V16.174H53.4183V17.8803C53.9493 17.1709 54.6391 16.5979 55.4314 16.2082C56.2237 15.8184 57.0962 15.6228 57.9777 15.6374C60.4622 15.6374 62.3733 16.8758 63.4654 18.7747C64.0746 17.8228 64.9085 17.0379 65.8923 16.4904C66.8762 15.9429 67.9794 15.6498 69.1032 15.6374C73.1302 15.6374 75.6556 18.9123 75.6556 22.9717V34.8057H72.1337V23.013C72.1374 21.9896 71.7414 21.0058 71.0312 20.2745C70.321 19.5432 69.3538 19.1231 68.3387 19.105C67.3236 19.1231 66.3564 19.5432 65.6462 20.2745C64.9361 21.0058 64.54 21.9896 64.5438 23.013V34.7919H60.9946V23.013C60.9984 21.9919 60.6042 21.0102 59.8969 20.2793C59.1897 19.5483 58.226 19.1266 57.2133 19.105V19.1188Z" fill="#0F68EA"/>
<path fill-rule="evenodd" clip-rule="evenodd" d="M94.5348 18.2931C93.7288 17.4459 92.7599 16.7735 91.6872 16.3168C90.6145 15.8602 89.4607 15.629 88.2963 15.6373C83.0271 15.6373 79.2868 20.1232 79.2868 25.4898C79.2868 30.8564 83.0271 35.3423 88.2963 35.3423C89.4604 35.3482 90.6135 35.1159 91.6858 34.6594C92.7581 34.2029 93.7274 33.5317 94.5348 32.6865V34.8056H98.0703V16.174H94.5211V18.2931H94.5348ZM82.8223 25.4898C82.8223 21.9396 85.5252 19.1187 88.6786 19.1187C91.8183 19.1187 94.5348 21.9396 94.5348 25.4898C94.5348 29.04 91.8319 31.8471 88.6786 31.8471C85.5389 31.8471 82.8223 29.04 82.8223 25.4898Z" fill="#0F68EA"/>
</g>
<defs>
<clipPath id="clip0_229_2875">
<rect width="100" height="50" fill="white"/>
</clipPath>
</defs>
</svg>
