<svg width="127" height="40" viewBox="0 0 127 40" fill="none" xmlns="http://www.w3.org/2000/svg">
<g clip-path="url(#clip0_229_2886)">
<path d="M15.8854 14.2727V18.5455H26.1434C25.8711 20.9091 25.0541 22.7273 23.7832 23.9091C22.3307 25.3636 19.9704 27 15.8854 27C9.62161 27 4.71954 21.9091 4.71954 15.6364C4.71954 9.36364 9.53083 4.27273 15.8854 4.27273C19.2442 4.27273 21.786 5.63636 23.6016 7.36364L26.5973 4.36364C24.0555 1.90909 20.6059 0 15.8854 0C7.26135 0 -0.000976562 7 -0.000976562 15.6364C-0.000976562 24.2727 7.26135 31.2727 15.8854 31.2727C20.5151 31.2727 24.0555 29.7273 26.7789 26.9091C29.593 24.0909 30.5008 20.0909 30.5008 16.9091C30.5008 15.9091 30.41 15 30.3193 14.2727H15.8854Z" fill="#0F68EA"/>
<path d="M43.2102 10.7266C37.6727 10.7266 33.043 14.9993 33.043 20.8175C33.043 26.6357 37.5819 30.9084 43.2102 30.9084C48.8385 30.9084 53.3775 26.7266 53.3775 20.9084C53.3775 14.9993 48.8385 10.7266 43.2102 10.7266ZM43.2102 26.9993C40.1237 26.9993 37.4911 24.4538 37.4911 20.9084C37.4911 17.272 40.1237 14.8175 43.2102 14.8175C46.2967 14.8175 48.9293 17.272 48.9293 20.9084C48.9293 24.4538 46.2967 26.9993 43.2102 26.9993Z" fill="#0F68EA"/>
<path d="M92.8663 12.9993H92.6847C91.6861 11.8175 89.7798 10.7266 87.3287 10.7266C82.2451 10.7266 77.8877 15.0902 77.8877 20.8175C77.8877 26.4538 82.2451 30.9084 87.3287 30.9084C89.7798 30.9084 91.6861 29.8175 92.6847 28.6357H92.8663V30.0902C92.8663 33.9084 90.7783 35.9993 87.5103 35.9993C84.7869 35.9993 83.1529 34.0902 82.4267 32.3629L78.6139 33.9993C79.7033 36.6357 82.699 39.9993 87.6011 39.9993C92.7755 39.9993 97.2236 36.9084 97.2236 29.4538V11.272H93.0478V12.9993H92.8663ZM87.7826 26.9993C84.6961 26.9993 82.4267 24.3629 82.4267 20.9084C82.4267 17.3629 84.7869 14.8175 87.7826 14.8175C90.7783 14.8175 93.1386 17.4538 93.1386 20.9993C93.2294 24.4538 90.8691 26.9993 87.7826 26.9993Z" fill="#0F68EA"/>
<path d="M65.8137 10.7266C60.2762 10.7266 55.6465 14.9993 55.6465 20.8175C55.6465 26.6357 60.1854 30.9084 65.8137 30.9084C71.4421 30.9084 75.981 26.7266 75.981 20.9084C75.981 14.9993 71.4421 10.7266 65.8137 10.7266ZM65.8137 26.9993C62.7273 26.9993 60.0947 24.4538 60.0947 20.9084C60.0947 17.272 62.7273 14.8175 65.8137 14.8175C68.9002 14.8175 71.5328 17.272 71.5328 20.9084C71.5328 24.4538 68.9002 26.9993 65.8137 26.9993Z" fill="#0F68EA"/>
<path d="M100.583 0.453125H104.94V30.9986H100.583V0.453125Z" fill="#0F68EA"/>
<path d="M118.375 26.9993C116.106 26.9993 114.563 25.9993 113.473 23.9084L126.999 18.3629L126.545 17.1811C125.728 14.9084 123.096 10.7266 117.921 10.7266C112.747 10.7266 108.39 14.8175 108.39 20.8175C108.39 26.4538 112.656 30.9084 118.375 30.9084C123.005 30.9084 125.638 28.0902 126.818 26.4538L123.368 24.1811C122.188 25.9084 120.645 26.9993 118.375 26.9993ZM118.103 14.5447C119.919 14.5447 121.462 15.4538 121.916 16.7266L112.838 20.5447C112.747 16.3629 115.834 14.5447 118.103 14.5447Z" fill="#0F68EA"/>
</g>
<defs>
<clipPath id="clip0_229_2886">
<rect width="127" height="40" fill="white"/>
</clipPath>
</defs>
</svg>
