<svg width="176" height="56" viewBox="0 0 176 56" fill="none" xmlns="http://www.w3.org/2000/svg">
<g clip-path="url(#clip0_720_241)">
<path d="M22.7415 20.4472V26.2994H36.8645C36.4895 29.5367 35.3647 32.027 33.6149 33.6457C31.6152 35.638 28.3657 37.8792 22.7415 37.8792C14.1177 37.8792 7.3687 30.9064 7.3687 22.3149C7.3687 13.7234 13.9928 6.75061 22.7415 6.75061C27.3658 6.75061 30.8653 8.61833 33.365 10.9841L37.4894 6.87513C33.9899 3.51324 29.2406 0.898438 22.7415 0.898438C10.8682 0.898438 0.869629 10.486 0.869629 22.3149C0.869629 34.1438 10.8682 43.7314 22.7415 43.7314C29.1156 43.7314 33.9899 41.6146 37.7394 37.7547C41.6138 33.8948 42.8636 28.4161 42.8636 24.0581C42.8636 22.6885 42.7386 21.4433 42.6137 20.4472H22.7415Z" fill="white"/>
<path d="M60.3613 15.5918C52.7374 15.5918 46.3633 21.444 46.3633 29.4129C46.3633 37.3818 52.6124 43.234 60.3613 43.234C68.1102 43.234 74.3593 37.5063 74.3593 29.5374C74.3593 21.444 68.1102 15.5918 60.3613 15.5918ZM60.3613 37.8799C56.1119 37.8799 52.4874 34.3935 52.4874 29.5374C52.4874 24.5568 56.1119 21.1949 60.3613 21.1949C64.6107 21.1949 68.2352 24.5568 68.2352 29.5374C68.2352 34.3935 64.6107 37.8799 60.3613 37.8799Z" fill="white"/>
<path d="M128.727 18.7047H128.477C127.102 17.086 124.477 15.5918 121.103 15.5918C114.104 15.5918 108.104 21.5685 108.104 29.4129C108.104 37.1328 114.104 43.234 121.103 43.234C124.477 43.234 127.102 41.7398 128.477 40.1211H128.727V42.1134C128.727 47.343 125.852 50.2068 121.353 50.2068C117.603 50.2068 115.353 47.592 114.354 45.2262L109.104 47.4675C110.604 51.0784 114.729 55.6854 121.478 55.6854C128.602 55.6854 134.726 51.4519 134.726 41.2418V16.3389H128.977V18.7047H128.727ZM121.728 37.8799C117.478 37.8799 114.354 34.269 114.354 29.5374C114.354 24.6813 117.603 21.1949 121.728 21.1949C125.852 21.1949 129.101 24.8059 129.101 29.6619C129.226 34.3935 125.977 37.8799 121.728 37.8799Z" fill="white"/>
<path d="M91.4819 15.5918C83.858 15.5918 77.4839 21.444 77.4839 29.4129C77.4839 37.3818 83.733 43.234 91.4819 43.234C99.2308 43.234 105.48 37.5063 105.48 29.5374C105.48 21.444 99.2308 15.5918 91.4819 15.5918ZM91.4819 37.8799C87.2325 37.8799 83.608 34.3935 83.608 29.5374C83.608 24.5568 87.2325 21.1949 91.4819 21.1949C95.7313 21.1949 99.3558 24.5568 99.3558 29.5374C99.3558 34.3935 95.7313 37.8799 91.4819 37.8799Z" fill="white"/>
<path d="M139.35 1.52148H145.349V43.3583H139.35V1.52148Z" fill="white"/>
<path d="M163.847 37.8799C160.722 37.8799 158.597 36.5102 157.098 33.6464L175.72 26.051L175.095 24.4323C173.97 21.3195 170.346 15.5918 163.222 15.5918C156.098 15.5918 150.099 21.1949 150.099 29.4129C150.099 37.1328 155.973 43.234 163.847 43.234C170.221 43.234 173.845 39.374 175.47 37.1328L170.721 34.0199C169.096 36.3857 166.971 37.8799 163.847 37.8799ZM163.472 20.8214C165.971 20.8214 168.096 22.0665 168.721 23.8097L156.223 29.0393C156.098 23.3117 160.347 20.8214 163.472 20.8214Z" fill="white"/>
</g>
<defs>
<clipPath id="clip0_720_241">
<rect width="174.85" height="54.7863" fill="white" transform="translate(0.869629 0.898438)"/>
</clipPath>
</defs>
</svg>
