<svg width="72" height="81" viewBox="0 0 72 81" fill="none" xmlns="http://www.w3.org/2000/svg">
<mask id="mask0_229_2262" style="mask-type:luminance" maskUnits="userSpaceOnUse" x="0" y="0" width="72" height="81">
<path d="M0.71875 0.273438H71.2726V80.2734H0.71875V0.273438Z" fill="white"/>
</mask>
<g mask="url(#mask0_229_2262)">
<path fill-rule="evenodd" clip-rule="evenodd" d="M14.4529 25.571C16.6288 22.2415 19.5737 19.382 22.9657 17.3015C23.5343 16.9564 24.2738 17.1306 24.6189 17.6959C24.9673 18.2613 24.7931 19.0008 24.2245 19.3492C21.1316 21.2424 18.4529 23.8488 16.471 26.8825C16.1062 27.4445 15.3601 27.5957 14.8046 27.2341C14.2491 26.8726 14.0914 26.1265 14.4529 25.571ZM49.4768 17.6959C49.8219 17.1306 50.5647 16.9564 51.13 17.3015C54.5252 19.3788 57.4669 22.2415 59.6427 25.571C60.1719 26.3829 59.5671 27.4313 58.6337 27.4313C58.2426 27.4313 57.858 27.2374 57.6247 26.8825C55.6427 23.8488 52.964 21.2424 49.8712 19.3492C49.3058 19.0008 49.1284 18.2613 49.4768 17.6959ZM68.093 47.2506V48.0953H50.4726V47.2506C50.4726 45.4593 51.8794 43.2933 55.8367 43.0895C57.904 42.9811 59.0544 40.4174 56.964 38.0772C54.7882 35.645 57.0067 33.055 59.2845 33.055C61.5655 33.055 63.7775 35.6483 61.6082 38.0772C59.5178 40.4141 60.6682 42.9811 62.7323 43.0895C66.6896 43.2933 68.093 45.4593 68.093 47.2506ZM49.7134 37.6105C49.7134 37.8077 49.8777 37.972 50.0749 37.972H54.0651C53.5129 36.6737 53.5195 35.2802 54.1078 33.9654C54.9459 32.1018 56.8391 30.8134 58.8966 30.6688H59.6723C61.7298 30.8134 63.623 32.1018 64.4611 33.9654C65.0495 35.2802 65.0528 36.6737 64.5006 37.972H68.494C68.6879 37.972 68.8556 37.8077 68.8556 37.6105V30.5242C68.8556 30.3303 68.6879 30.1659 68.494 30.1659H50.0749C49.8777 30.1659 49.7134 30.3303 49.7134 30.5242V37.6105ZM68.494 40.3746C70.0224 40.3746 71.2615 39.1355 71.2615 37.6105V30.5242C71.2615 29.0024 70.0191 27.7633 68.494 27.7633H50.0749C48.5499 27.7633 47.3075 29.0024 47.3075 30.5242V37.6105C47.3075 39.1355 48.5499 40.3746 50.0749 40.3746H55.6099C55.6592 40.5193 55.6723 40.631 55.6625 40.6935C50.4168 40.986 48.0667 44.1939 48.0667 47.2506V49.2949C48.0667 49.9589 48.6058 50.4946 49.2697 50.4946H69.2993C69.9632 50.4946 70.4989 49.9589 70.4989 49.2949V47.2506C70.4989 44.1939 68.1522 40.986 62.9065 40.6935C62.8966 40.631 62.9098 40.5193 62.9591 40.3746H68.494ZM10.545 46.2054C10.545 46.212 10.5351 46.2218 10.5285 46.2218H7.95169C7.94512 46.2218 7.93526 46.212 7.93526 46.2054V31.6154C7.93526 31.6088 7.94183 31.6023 7.95169 31.6023H10.5285C10.5351 31.6023 10.545 31.6088 10.545 31.6154V46.2054ZM3.65588 41.8175C3.36336 41.8175 3.11685 41.571 3.11685 41.2785V36.5423C3.11685 36.2498 3.36336 36.0065 3.65588 36.0065H5.52606V41.8175H3.65588ZM19.5376 31.6154C19.5376 31.6088 19.5474 31.6023 19.5507 31.6023H22.1308C22.1374 31.6023 22.1473 31.6088 22.1473 31.6154V46.2054C22.1473 46.212 22.1374 46.2218 22.1308 46.2218H19.5507C19.5474 46.2218 19.5376 46.212 19.5376 46.2054V31.6154ZM26.4266 36.0065C26.7192 36.0065 26.9657 36.2498 26.9657 36.5423V41.2785C26.9657 41.571 26.7192 41.8175 26.4266 41.8175H24.5565V36.0065H26.4266ZM17.1284 40.0788V46.2054C17.1284 47.5398 18.2163 48.6244 19.5507 48.6244H22.1308C23.4653 48.6244 24.5565 47.5398 24.5565 46.2054V44.2169H26.4266C28.0503 44.2169 29.3716 42.8989 29.3716 41.2785V36.5423C29.3716 34.9219 28.0503 33.6039 26.4266 33.6039H24.5565V31.6154C24.5565 30.2843 23.4653 29.1996 22.1308 29.1996H19.5507C18.2163 29.1996 17.1284 30.2843 17.1284 31.6154V37.6762L12.9509 37.7452V31.6154C12.9509 30.2843 11.8662 29.1996 10.5285 29.1996H7.95169C6.61398 29.1996 5.52606 30.2843 5.52606 31.6154V33.6039H3.65588C2.03222 33.6039 0.710938 34.9219 0.710938 36.5423V41.2785C0.710938 42.8989 2.03222 44.2169 3.65588 44.2169H5.52606V46.2054C5.52606 47.5398 6.61398 48.6244 7.95169 48.6244H10.5285C11.8662 48.6244 12.9509 47.5398 12.9509 46.2054V40.1479L17.1284 40.0788ZM29.6805 13.7157C30.5778 12.8545 31.4915 12.5324 32.3593 12.5324C33.927 12.5324 35.3371 13.5842 36.2113 14.419C36.6419 14.866 37.4537 14.8627 37.8777 14.419C39.2352 13.1207 41.8876 11.2966 44.4086 13.7157C46.5581 15.7765 43.8432 23.1618 41.1053 27.1454C40.6058 27.8718 39.6066 27.9408 39.0215 27.3853C37.9106 26.3303 36.1719 26.3369 35.0676 27.3952C34.4858 27.9507 33.4833 27.8948 32.9804 27.1618C31.5244 25.0616 30.1374 22.0772 29.4439 19.5595C28.6649 16.7362 28.7504 14.6064 29.6805 13.7157ZM38.6994 4.14458C39.485 3.60884 40.402 3.36233 41.2533 3.43464C40.7438 5.14704 38.8868 6.41245 37.1053 6.25797C37.3453 5.44614 37.9106 4.68032 38.6994 4.14458ZM33.927 30.1594C34.9689 30.2284 35.978 29.8504 36.7307 29.1306C36.9081 28.9597 37.1875 28.9597 37.365 29.1273C39.0511 30.7181 41.7758 30.419 43.0906 28.5028C45.6082 24.8447 49.8514 15.6023 46.0782 11.9835C43.7808 9.78139 40.8391 9.55789 38.0585 11.2506C37.9468 10.4157 37.7791 9.5316 37.5458 8.66389C40.9016 8.57515 43.8202 5.7551 43.7906 2.51434C43.7841 2.02461 43.4883 1.59076 43.0314 1.40999C40.2475 0.295771 36.8621 1.64992 35.3338 4.33521C34.9492 3.96052 34.5187 3.65814 34.0388 3.45764C33.4275 3.20128 32.7208 3.48722 32.4644 4.09856C32.2081 4.71319 32.4973 5.41656 33.1119 5.67293C34.282 6.15937 35.1727 8.48312 35.5901 11.0008C32.941 9.58418 30.1867 9.89643 28.0109 11.9835C24.2113 15.6286 28.471 24.8677 30.9985 28.5291C31.6822 29.5152 32.7208 30.0969 33.927 30.1594ZM37.0495 62.2448C35.0084 62.2448 33.3453 60.5883 33.3453 58.5538C33.3453 56.516 35.0084 54.8594 37.0495 54.8594C39.0906 54.8594 40.7504 56.516 40.7504 58.5538C40.7504 60.5883 39.0906 62.2448 37.0495 62.2448ZM37.0495 52.4601C33.6805 52.4601 30.9394 55.1914 30.9394 58.5538C30.9394 61.9129 33.6805 64.6475 37.0495 64.6475C40.4151 64.6475 43.1563 61.9129 43.1563 58.5538C43.1563 55.1914 40.4151 52.4601 37.0495 52.4601ZM55.1201 55.6549C55.5178 55.0961 55.3897 54.3171 54.8309 53.9161C54.2754 53.5217 53.4866 53.6499 53.0889 54.2054L45.5261 64.7395C43.5343 67.5135 40.5499 69.0419 37.1284 69.0419H36.9673C33.5458 69.0419 30.5647 67.5135 28.5696 64.7395L21.01 54.2054C20.8161 53.9359 20.5269 53.7584 20.1949 53.7025C19.1201 53.525 18.328 54.751 18.9788 55.6549L29.5556 70.3927C30.7783 72.092 31.3699 73.9359 31.3699 76.0263V77.8603H42.7257V76.0263C42.7257 73.9359 43.3206 72.092 44.54 70.3927L55.1201 55.6549ZM56.2311 51.9671C54.5975 50.7937 52.3034 51.175 51.13 52.8052L43.5704 63.3393C41.9468 65.6006 39.7315 66.6425 36.9673 66.6425C34.305 66.6425 32.0766 65.502 30.5252 63.3393L22.9657 52.8052C21.7923 51.1717 19.5014 50.7937 17.8646 51.9671C16.2245 53.1372 15.8465 55.4182 17.0232 57.055L27.6 71.7896C28.5302 73.0879 28.964 74.4322 28.964 76.0263V79.0599C28.964 79.7239 29.503 80.2629 30.167 80.2629H43.9287C44.5926 80.2629 45.1316 79.7239 45.1316 79.0599V76.0263C45.1316 74.4322 45.5655 73.0879 46.4989 71.7896L57.0758 57.055C58.2491 55.4182 57.8712 53.1372 56.2311 51.9671Z" fill="white"/>
</g>
</svg>
