<svg width="88" height="81" viewBox="0 0 88 81" fill="none" xmlns="http://www.w3.org/2000/svg">
<path d="M59.212 73.1724C59.4673 73.7114 59.2363 74.3517 58.6933 74.607C54.118 76.7629 49.2105 77.8571 44.1125 77.8571C39.9465 77.8571 35.8778 77.1196 32.0199 75.6607C31.4606 75.454 31.181 74.8299 31.3917 74.2707C31.6024 73.7155 32.2265 73.4359 32.7898 73.6425C36.4006 75.0082 40.2099 75.6971 44.1125 75.6971C48.8863 75.6971 53.4858 74.6759 57.7693 72.6578C58.3083 72.4065 58.9567 72.6335 59.212 73.1724ZM11.3036 48.9913C11.3482 48.9913 11.3927 48.9913 11.4373 48.9872C12.033 48.9143 12.4545 48.3753 12.3815 47.7837C12.2235 46.495 12.1424 45.182 12.1424 43.873C12.1424 33.5351 17.2202 23.8011 25.7182 17.8399C26.2086 17.4954 26.3261 16.8227 25.9817 16.3364C25.6372 15.8501 24.9604 15.7326 24.4701 16.0771C15.3966 22.4435 9.97842 32.8341 9.97842 43.873C9.97842 45.2671 10.0676 46.6733 10.2337 48.0471C10.2986 48.5942 10.7646 48.9913 11.3036 48.9913ZM62.5067 17.8399C71.0047 23.8011 76.0784 33.5351 76.0784 43.873C76.0784 44.9307 76.0298 45.9965 75.9244 47.042C75.8636 47.6337 76.2972 48.1605 76.893 48.2213C76.9294 48.2254 76.9659 48.2254 77.0024 48.2254C77.5535 48.2254 78.0236 47.812 78.0763 47.2528C78.1898 46.1383 78.2424 45.0037 78.2424 43.873C78.2424 32.8341 72.8283 22.4435 63.7508 16.0771C63.2645 15.7326 62.5877 15.8501 62.2432 16.3364C61.8988 16.8227 62.0163 17.4954 62.5067 17.8399ZM44.1125 62.3726C33.8637 62.3726 25.5278 54.0731 25.5278 43.873C25.5278 33.6729 33.8637 25.3734 44.1125 25.3734C54.3571 25.3734 62.6931 33.6729 62.6931 43.873C62.6931 54.0731 54.3571 62.3726 44.1125 62.3726ZM45.1945 60.0586C47.2531 59.4588 49.0929 57.1814 50.3533 53.9475C48.7201 53.6152 46.9816 53.4085 45.1945 53.3518V60.0586ZM51.0422 51.8929C51.6339 49.8058 52.0067 47.4432 52.0918 44.951H45.1945V51.1958C47.2167 51.2566 49.1902 51.4957 51.0422 51.8929ZM52.0918 42.7951C52.0067 40.3028 51.6339 37.9402 51.0422 35.8532C49.1902 36.2503 47.2167 36.4894 45.1945 36.5502V42.7951H52.0918ZM50.3533 33.7945C49.0929 30.5647 47.2531 28.2872 45.1945 27.6874V34.3943C46.9816 34.3335 48.7201 34.1309 50.3533 33.7945ZM43.0264 27.6874C40.9677 28.2872 39.1279 30.5647 37.8676 33.7985C39.5007 34.1309 41.2433 34.3375 43.0264 34.3943V27.6874ZM37.1827 35.8532C36.587 37.9402 36.2182 40.3028 36.1331 42.7951H43.0264V36.5502C41.0042 36.4894 39.0306 36.2503 37.1827 35.8532ZM36.1331 44.951C36.2182 47.4473 36.587 49.8099 37.1827 51.8969C39.0306 51.4998 41.0042 51.2566 43.0264 51.1958V44.951H36.1331ZM37.8676 53.9515C39.1279 57.1814 40.9677 59.4588 43.0264 60.0586V53.3518C41.2392 53.4125 39.5007 53.6152 37.8676 53.9515ZM49.8832 59.1752C51.9986 58.3809 53.9113 57.1611 55.508 55.6212C54.58 55.1794 53.5588 54.7944 52.4687 54.4743C52.1728 55.2483 51.8486 55.9859 51.488 56.6788C50.9976 57.619 50.4586 58.4538 49.8832 59.1752ZM57.0155 53.9637C59.0053 51.4471 60.2656 48.3388 60.4926 44.951H54.2558C54.1748 47.5891 53.7938 50.13 53.1454 52.4278C54.5476 52.8452 55.8525 53.3599 57.0155 53.9637ZM60.4926 42.7951C60.2697 39.4072 59.0053 36.2989 57.0155 33.7823C55.8525 34.3862 54.5476 34.9008 53.1454 35.3142C53.7938 37.616 54.1748 40.1528 54.2558 42.7951H60.4926ZM55.508 32.1249C53.9073 30.5849 51.9986 29.3692 49.8791 28.5749C50.4546 29.2922 50.9936 30.127 51.4839 31.0672C51.8446 31.7602 52.1728 32.4977 52.4687 33.2717C53.5588 32.9516 54.58 32.5666 55.508 32.1249ZM38.3377 28.5749C36.2223 29.3692 34.3095 30.5849 32.7128 32.1249C33.6408 32.5706 34.6621 32.9516 35.7522 33.2717C36.048 32.4977 36.3722 31.7602 36.7369 31.0712C37.2273 30.127 37.7622 29.2922 38.3377 28.5749ZM31.2053 33.7823C29.2196 36.2989 27.9552 39.4072 27.7323 42.7951H33.965C34.0461 40.1569 34.427 37.616 35.0795 35.3182C33.6733 34.9008 32.3724 34.3862 31.2053 33.7823ZM27.7323 44.951C27.9552 48.3388 29.2196 51.4471 31.2094 53.9677C32.3724 53.3639 33.6773 52.8493 35.0795 52.4319C34.4311 50.1341 34.0501 47.5932 33.9691 44.955H27.7323V44.951ZM32.7128 55.6212C34.3136 57.1611 36.2223 58.3768 38.3417 59.1752C37.7663 58.4538 37.2273 57.619 36.7369 56.6788C36.3763 55.9859 36.048 55.2483 35.7562 54.4784C34.6661 54.7944 33.6449 55.1794 32.7128 55.6212ZM87.6037 73.5696V79.3687C87.6037 79.9644 87.1214 80.4466 86.5217 80.4466H63.2564C62.6607 80.4466 62.1744 79.9644 62.1744 79.3687V73.5696C62.1744 69.4806 64.772 65.3633 70.4617 63.9652C68.707 62.6319 67.5682 60.5287 67.5682 58.1661C67.5682 54.146 70.8548 50.8757 74.891 50.8757C78.9273 50.8757 82.2139 54.146 82.2139 58.1661C82.2139 60.5287 81.0751 62.6319 79.3204 63.9652C85.0101 65.3633 87.6037 69.4806 87.6037 73.5696ZM69.7363 58.1621C69.7363 60.9947 72.0462 63.2965 74.891 63.2965C77.7318 63.2965 80.0458 60.9947 80.0458 58.1621C80.0458 55.3334 77.7359 53.0316 74.891 53.0316C72.0462 53.0316 69.7363 55.3334 69.7363 58.1621ZM85.4396 73.5696C85.4396 68.7431 81.298 65.6186 74.891 65.6186C68.4841 65.6186 64.3424 68.7431 64.3424 73.5696V78.2907H67.8114V74.5422C67.8114 73.9465 68.2977 73.4642 68.8974 73.4642C69.4931 73.4642 69.9794 73.9465 69.9794 74.5422V78.2907H79.8067V74.5422C79.8067 73.9465 80.293 73.4642 80.8887 73.4642C81.4885 73.4642 81.9748 73.9465 81.9748 74.5422V78.2907H85.4396V73.5696ZM28.2997 59.1509V72.1674C28.2997 72.5605 28.0889 72.9171 27.7445 73.1076L14.9873 80.1873C14.8211 80.2764 14.6428 80.321 14.4605 80.321C14.2781 80.321 14.0957 80.2764 13.9336 80.1832V80.1873L1.17238 73.1076C0.827916 72.9171 0.617188 72.5565 0.617188 72.1674V59.1509C0.617188 58.7699 0.819812 58.4133 1.15211 58.2228C1.15617 58.2188 1.16427 58.2147 1.17238 58.2107L13.9336 51.131C14.2619 50.9527 14.659 50.9527 14.9873 51.131L27.7445 58.2107C27.7526 58.2147 27.7607 58.2188 27.7688 58.2228C28.0971 58.4174 28.2997 58.7699 28.2997 59.1509ZM12.4302 54.4338L22.4884 60.5409L24.9929 59.1509L14.4605 53.3112L12.4302 54.4338ZM14.4605 64.9945L17.435 63.3452L7.27541 57.2948L3.92401 59.1509L14.4605 64.9945ZM20.3163 61.7444L10.254 55.6414L9.4597 56.0831L19.6233 62.1335L20.3163 61.7444ZM20.7377 67.5679L21.3821 67.195V63.6248L20.7377 63.9814V67.5679ZM2.78121 71.5352L13.3744 77.4113V66.8627L2.78121 60.9866V71.5352ZM26.1357 60.9866L23.5461 62.4212V67.8191C23.5461 68.2041 23.3435 68.5567 23.0071 68.7512L20.1947 70.3681C20.0286 70.4654 19.8381 70.514 19.6517 70.514C19.4653 70.514 19.2789 70.4654 19.1127 70.3722C18.7764 70.1777 18.5697 69.821 18.5697 69.4361V65.185L15.5425 66.8627V77.4113L26.1357 71.5352V60.9866ZM29.252 19.5095V2.74439C29.252 1.54486 30.2287 0.572266 31.4322 0.572266H46.6615C47.865 0.572266 48.8417 1.54486 48.8417 2.74439V4.67743H53.7006C54.0653 4.67743 54.4098 4.85979 54.6084 5.16778L58.7946 11.595C58.9081 11.7693 58.9688 11.9759 58.9688 12.1826V19.5055C58.9688 20.1012 58.4825 20.5834 57.8868 20.5834H56.0024C55.5485 21.9045 54.2963 22.8528 52.8212 22.8528C51.3461 22.8528 50.0939 21.9005 49.6441 20.5834H38.5322C38.0783 21.9045 36.8261 22.8528 35.351 22.8528C33.8759 22.8528 32.6237 21.9005 32.1698 20.5834H30.334C29.7343 20.5875 29.252 20.1012 29.252 19.5095ZM36.5465 19.5095C36.5465 18.8489 36.0075 18.3181 35.351 18.3181C34.6904 18.3181 34.1555 18.853 34.1555 19.5095C34.1555 20.166 34.6904 20.7009 35.351 20.7009C36.0075 20.7009 36.5465 20.166 36.5465 19.5095ZM46.6777 18.4315V15.1166H31.416V18.4315H32.1698C32.6237 17.1104 33.8759 16.1622 35.3469 16.1622C36.822 16.1622 38.0783 17.1145 38.5281 18.4315H46.6777ZM54.0208 19.5095C54.0208 18.8489 53.4858 18.3181 52.8253 18.3181C52.1647 18.3181 51.6298 18.853 51.6298 19.5095C51.6298 20.166 52.1688 20.7009 52.8253 20.7009C53.4858 20.7009 54.0208 20.166 54.0208 19.5095ZM55.1028 9.88486H52.9388V11.1047H55.8971L55.1028 9.88486ZM48.8417 6.83335V18.4275H49.6441C50.0939 17.1104 51.3461 16.1581 52.8212 16.1581C54.2963 16.1581 55.5526 17.1104 56.0024 18.4275H56.8008V13.2606H51.8527C51.2529 13.2606 50.7707 12.7783 50.7707 12.1826V8.80285C50.7707 8.21119 51.2529 7.72489 51.8527 7.72489H53.6925L53.113 6.83335H48.8417ZM31.416 2.74439V12.9607H46.6777V2.74439C46.6777 2.73629 46.6696 2.72818 46.6615 2.72818H31.4322C31.4241 2.72818 31.416 2.73629 31.416 2.74439Z" fill="black"/>
</svg>
