<svg width="81" height="81" viewBox="0 0 81 81" fill="none" xmlns="http://www.w3.org/2000/svg">
<mask id="mask0_229_2247" style="mask-type:luminance" maskUnits="userSpaceOnUse" x="0" y="0" width="81" height="81">
<path d="M0.144531 0.25293H80.1479V80.2529H0.144531V0.25293Z" fill="white"/>
</mask>
<g mask="url(#mask0_229_2247)">
<path d="M75.1489 10.5848H66.5312C62.0844 4.35382 54.8165 0.270508 46.5859 0.270508C38.3553 0.270508 31.0909 4.35382 26.6406 10.5848H5.12665C2.37638 10.5848 0.144531 12.8167 0.144531 15.567V59.7933C0.144531 62.5402 2.37638 64.7755 5.12665 64.7755H27.2062C26.8056 75.8068 21.3758 77.5068 20.6587 77.6717H16.9255C16.2085 77.6717 15.643 78.2541 15.643 78.9543C15.643 79.6545 16.2253 80.2368 16.9255 80.2368H63.3669C64.0839 80.2368 64.6495 79.6545 64.6495 78.9543C64.6495 78.2541 64.0671 77.6717 63.3669 77.6717H59.6337C58.8998 77.49 53.4835 75.79 53.0863 64.7755H75.1658C77.9127 64.7755 80.1479 62.5402 80.1479 59.7933V15.567C80.1311 12.8167 77.8958 10.5848 75.1489 10.5848ZM46.5859 2.85246C58.6844 2.85246 68.514 12.6854 68.514 24.7805C68.514 36.879 58.6844 46.7119 46.5859 46.7119C42.3545 46.7119 38.2544 45.4933 34.6894 43.1773C34.4706 43.046 34.2384 42.9787 33.9893 42.9787C33.8209 42.9787 33.656 43.0124 33.5045 43.0797L26.9739 45.6953L29.4549 39.4946C29.6232 39.0637 29.5558 38.5789 29.2731 38.2289C26.2569 34.3475 24.6579 29.6987 24.6579 24.7973C24.6579 12.6854 34.4875 2.85246 46.5859 2.85246ZM54.9007 77.6717H25.3749C27.4553 75.5543 29.5558 71.7067 29.7881 64.7755H50.4673C50.7197 71.7067 52.8169 75.5543 54.9007 77.6717ZM77.5457 59.7933C77.5457 61.1096 76.482 62.1901 75.1489 62.1901H5.12665C3.81043 62.1901 2.72648 61.1264 2.72648 59.7933V15.567C2.72648 14.2507 3.79359 13.1668 5.12665 13.1668H25.008C23.1397 16.6341 22.0726 20.5827 22.0726 24.7805C22.0726 30.0151 23.7086 34.9804 26.7888 39.195L23.4561 47.5266C23.2743 48.0113 23.3753 48.56 23.7423 48.9269C23.9914 49.176 24.3246 49.3107 24.6579 49.3107C24.8228 49.3107 24.9743 49.277 25.1393 49.2097L33.8546 45.729C37.7057 48.0786 42.0886 49.3107 46.5859 49.3107C60.1016 49.3107 71.0993 38.313 71.0993 24.7973C71.0993 20.5996 70.0322 16.6509 68.1673 13.1836H75.1489C76.4652 13.1836 77.5457 14.2507 77.5457 15.5838V59.7933ZM72.3819 54.4611C72.3819 55.1748 71.7995 55.7437 71.0993 55.7437H23.0084C22.5573 56.5078 21.7393 57.0262 20.79 57.0262C19.8407 57.0262 19.0092 56.5078 18.575 55.7437H9.1763C8.45928 55.7437 7.89374 55.1613 7.89374 54.4611C7.89374 53.7609 8.47611 53.1752 9.1763 53.1752H18.5582C19.0092 52.4111 19.8239 51.8926 20.7732 51.8926C21.7258 51.8926 22.5573 52.4111 22.9916 53.1752H71.0825C71.8163 53.1617 72.3819 53.7441 72.3819 54.4611ZM30.5893 22.3837L33.1544 23.4979C33.1544 23.5316 33.1376 23.5484 33.1376 23.5821V29.5303C33.1376 31.1293 33.9388 33.3477 37.7393 34.8962C40.089 35.8623 43.2365 36.3808 46.5859 36.3808C53.2849 36.3808 60.0343 34.2634 60.0343 29.5135V23.5653C60.0343 23.5316 60.0174 23.5148 60.0174 23.4811L62.5826 22.3669C63.0505 22.1649 63.3501 21.7003 63.3501 21.1819C63.3501 20.6669 63.0505 20.199 62.5826 20.0004L47.1043 13.2678C46.7711 13.1163 46.4042 13.1163 46.0709 13.2678L30.5893 20.0004C30.1214 20.199 29.8218 20.6669 29.8218 21.1819C29.8218 21.7172 30.1214 22.1817 30.5893 22.3837ZM57.4692 29.5303C57.4692 31.9305 52.6857 33.8123 46.5859 33.8123C40.4862 33.8123 35.7061 31.9305 35.7061 29.5303V24.6156L46.0709 29.1298C46.2358 29.1971 46.4042 29.2307 46.5859 29.2307C46.7711 29.2307 46.936 29.1971 47.1043 29.1298L57.4692 24.6156V29.5303ZM46.5859 15.8666L58.8325 21.1988L46.5859 26.531L34.3394 21.1988L46.5859 15.8666Z" fill="white"/>
</g>
</svg>
