<svg width="90" height="80" viewBox="0 0 90 80" fill="none" xmlns="http://www.w3.org/2000/svg">
<path d="M45.0977 75.795H47.9134V72.9902H45.0977V75.795Z" fill="#020202"/>
<path d="M70.4297 75.795H73.2454V72.9902H70.4297V75.795Z" fill="#020202"/>
<mask id="mask0_229_2224" style="mask-type:luminance" maskUnits="userSpaceOnUse" x="36" y="32" width="54" height="49">
<path d="M36.2188 32.1777H89.07V80.0016H36.2188V32.1777Z" fill="white"/>
</mask>
<g mask="url(#mask0_229_2224)">
<path d="M71.8369 77.2005C70.2844 77.2005 69.0248 75.9409 69.0248 74.3921C69.0248 72.8432 70.2844 71.5873 71.8369 71.5873C73.3894 71.5873 74.6526 72.8432 74.6526 74.3921C74.6526 75.9409 73.3894 77.2005 71.8369 77.2005ZM43.3571 61.7596L39.8676 49.01L79.0355 46.4066L75.4801 61.7596H43.3571ZM46.5024 77.2005C44.9499 77.2005 43.6903 75.9409 43.6903 74.3921C43.6903 72.8432 44.9499 71.5873 46.5024 71.5873C48.0549 71.5873 49.3182 72.8432 49.3182 74.3921C49.3182 75.9409 48.0549 77.2005 46.5024 77.2005ZM89.0683 35.0484L88.3872 32.3242L81.9172 33.939L79.6946 43.5506L36.25 46.4396L41.2078 64.5681H74.832L73.7738 69.1414C73.166 68.918 72.5179 68.7789 71.8369 68.7789C69.7644 68.7789 67.9666 69.914 66.9926 71.5873H51.3503C50.3727 69.914 48.5785 68.7789 46.5024 68.7789C43.3974 68.7789 40.8709 71.298 40.8709 74.3921C40.8709 77.4898 43.3974 80.0053 46.5024 80.0053C49.6074 80.0053 52.1339 77.4898 52.1339 74.3921H66.2054C66.2054 77.4898 68.7319 80.0053 71.8369 80.0053C74.9419 80.0053 77.4684 77.4898 77.4684 74.3921C77.4684 73.0849 76.9997 71.8985 76.2454 70.9429L84.2753 36.2421L89.0683 35.0484Z" fill="#020202"/>
</g>
<path d="M50.7255 49.1289H45.0977V51.9373H50.7255V49.1289Z" fill="#020202"/>
<path d="M61.9833 49.1289H56.3555V51.9373H61.9833V49.1289Z" fill="#020202"/>
<path d="M67.6133 49.1289V51.9373H73.2448V49.1289H67.6133Z" fill="#020202"/>
<path d="M56.3542 53.3359H50.7227V56.1444H56.3542V53.3359Z" fill="#020202"/>
<path d="M67.6159 53.3359H61.9844V56.1444H67.6159V53.3359Z" fill="#020202"/>
<path d="M56.3555 60.3592H61.9833V57.5508H56.3555V60.3592Z" fill="#020202"/>
<path d="M67.6133 60.3592H73.2448V57.5508H67.6133V60.3592Z" fill="#020202"/>
<path d="M45.0977 60.3592H50.7255V57.5508H45.0977V60.3592Z" fill="#020202"/>
<mask id="mask1_229_2224" style="mask-type:luminance" maskUnits="userSpaceOnUse" x="0" y="0" width="77" height="77">
<path d="M0 0H76.2414V76.1828H0V0Z" fill="white"/>
</mask>
<g mask="url(#mask1_229_2224)">
<path d="M12.2992 61.7684C14.5328 60.4063 17.0556 59.2309 19.8128 58.2826C21.8084 63.8774 24.6131 68.4434 27.9635 71.5118C21.8926 69.6957 16.5101 66.2831 12.2992 61.7684ZM27.9635 4.28893C24.6095 7.35733 21.801 11.9306 19.8055 17.5365C17.052 16.5882 14.5438 15.3982 12.2992 14.0287C16.5101 9.514 21.8926 6.10507 27.9635 4.28893ZM63.8176 14.0287C61.5694 15.3982 59.0649 16.5882 56.3114 17.5365C54.3159 11.9306 51.5074 7.35733 48.1534 4.28893C54.2207 6.10507 59.6068 9.514 63.8176 14.0287ZM59.5702 36.4962C59.453 30.59 58.6072 25.072 57.1755 20.1985C60.2989 19.1256 63.1476 17.7672 65.6704 16.1891C70.1339 21.8242 72.902 28.8471 73.2096 36.4962H59.5702ZM39.4645 23.201C44.7262 23.0875 49.8194 22.3478 54.466 21.0333C55.8244 25.6579 56.641 30.9086 56.7581 36.4962H39.4645V23.201ZM36.6487 2.9195V20.3925C31.6836 20.2827 26.8833 19.5907 22.5151 18.3677C25.6311 9.67877 30.7682 3.74335 36.6487 2.9195ZM39.4645 2.9195C45.3487 3.74335 50.4822 9.67877 53.6018 18.3677C49.2336 19.5907 44.4333 20.2827 39.4645 20.3925V2.9195ZM19.3588 36.4962C19.4759 30.9086 20.2925 25.6579 21.6473 21.0333C26.2975 22.3478 31.3907 23.0875 36.6487 23.201V36.4962H19.3588ZM2.9073 36.4962C3.21121 28.8471 5.98303 21.8242 10.4465 16.1891C12.9693 17.7672 15.818 19.1256 18.9414 20.1985C17.5097 25.072 16.6602 30.59 16.543 36.4962H2.9073ZM18.9487 55.6206C15.818 56.6934 12.9583 58.0372 10.4465 59.6117C5.98303 53.9765 3.21121 46.9536 2.9073 39.3046H16.543C16.6602 45.218 17.5097 50.7434 18.9487 55.6206ZM39.4645 75.7959V67.3779H36.6487V72.8813C30.7646 72.0537 25.6311 66.1183 22.5114 57.4257C26.8943 56.1955 31.7166 55.4851 36.6817 55.3753L36.6194 52.5668C31.3871 52.684 26.2901 53.4419 21.6473 54.7565C20.2925 50.1355 19.4759 44.8848 19.3588 39.3046H36.6487V43.5154H39.4645V39.3046H73.2462V40.707H76.0583V36.4962H76.0254C75.2784 16.2476 58.5413 0.00488281 38.0584 0.00488281C17.1032 0.00488281 0.0585938 17.0019 0.0585938 37.9022C0.0585938 58.7952 17.1032 75.7959 38.0584 75.7959H39.4645Z" fill="#020202"/>
</g>
</svg>
