<svg width="68" height="68" viewBox="0 0 68 68" fill="none" xmlns="http://www.w3.org/2000/svg">
<rect width="68" height="68" rx="12" fill="#3F3C3C" fill-opacity="0.1"/>
<path d="M50.5674 24.9411C52.0411 27.63 52.8797 30.717 52.8797 33.9987C52.8797 40.9654 49.1052 47.0461 43.492 50.3188L49.2588 33.6453C50.3356 30.9513 50.6941 28.7977 50.6941 26.8835C50.6941 26.1882 50.6493 25.5429 50.5674 24.9411ZM36.6024 25.1472C37.7393 25.0871 38.7623 24.968 38.7623 24.968C39.7802 24.8476 39.6599 23.3521 38.642 23.411C38.642 23.411 35.5845 23.6517 33.6101 23.6517C31.7549 23.6517 28.6372 23.411 28.6372 23.411C27.6193 23.3521 27.5002 24.9078 28.5181 24.968C28.5181 24.968 29.4809 25.0871 30.4988 25.1472L33.4398 33.2074L29.3068 45.5992L22.4325 25.1472C23.5695 25.0871 24.5925 24.968 24.5925 24.968C25.6091 24.8476 25.49 23.3521 24.4721 23.411C24.4721 23.411 21.4146 23.6517 19.4403 23.6517C19.0856 23.6517 18.6682 23.6428 18.2252 23.6287C21.6015 18.5032 27.4042 15.1178 34.0006 15.1178C38.9147 15.1178 43.3909 16.9974 46.7493 20.0755C46.6686 20.0704 46.5892 20.0602 46.5047 20.0602C44.6508 20.0602 43.3345 21.6761 43.3345 23.411C43.3345 24.968 44.2321 26.2843 45.1885 27.8399C45.9068 29.0973 46.7455 30.7132 46.7455 33.0474C46.7455 34.6633 46.1245 36.5378 45.3089 39.1511L43.4254 45.443L36.6024 25.1472ZM34.0006 52.8822C32.1467 52.8822 30.358 52.6095 28.6666 52.1127L34.331 35.6504L40.1349 51.5506C40.1733 51.644 40.2194 51.7298 40.2693 51.8118C38.3078 52.5019 36.199 52.8822 34.0006 52.8822ZM15.1203 33.9987C15.1203 31.2625 15.7067 28.6633 16.754 26.315L25.7615 50.9923C19.462 47.9321 15.1203 41.4725 15.1203 33.9987ZM34.0006 13C22.421 13 13 22.42 13 33.9987C13 45.5787 22.421 55 34.0006 55C45.579 55 55 45.5787 55 33.9987C55 22.42 45.579 13 34.0006 13Z" fill="#3F3C3C"/>
</svg>
