<svg width="68" height="68" viewBox="0 0 68 68" fill="none" xmlns="http://www.w3.org/2000/svg">
<rect width="68" height="68" rx="12" fill="#934B22" fill-opacity="0.1"/>
<path d="M16.6702 43.044C15.8909 42.3196 15.2714 41.4566 14.8095 40.4565C14.3476 39.4563 14.1173 38.3773 14.1173 37.2172V18.043H16.6702V37.2184C16.6702 37.9727 16.8063 38.6745 17.0808 39.3274C17.3541 39.979 17.7361 40.5519 18.2278 41.0449C18.7184 41.5378 19.2805 41.9209 19.9155 42.1978C20.5492 42.4735 21.2415 42.6096 21.9922 42.6096C22.7418 42.6096 23.4412 42.4735 24.0905 42.1978C24.7398 41.9221 25.3091 41.539 25.7996 41.0449C26.2902 40.5519 26.6721 39.979 26.9466 39.3274C27.2199 38.6757 27.3572 37.9727 27.3572 37.2184V18.043H29.9102V37.2172C29.9102 38.3773 29.6798 39.4563 29.2191 40.4565C28.7572 41.4566 28.1366 42.3196 27.3572 43.044C26.6661 43.7112 25.8581 44.2328 24.9343 44.6088C24.0117 44.9859 23.0306 45.1745 21.9922 45.1745C20.9825 45.1745 20.0157 44.9859 19.0931 44.6088C18.1705 44.2316 17.3637 43.71 16.6702 43.044ZM55.7002 49.8699L48.3444 36.6956L47.0017 39.0875L53.0171 49.8699H50.0738L45.5312 41.6953L40.9874 49.8699H38.0454L44.0596 39.0875L45.5312 36.4354L46.8728 34.0436L45.5312 31.6517L44.0596 28.9997L37.9153 18H40.8585L45.5312 26.3476L50.1622 18H53.1042L47.0029 28.9997L48.3444 31.3915L55.7861 18H58.7294L49.8148 34.0436L58.6423 49.8699H55.7002ZM42.7193 31.3915L35.2763 18H32.3343L32.3581 18.043H32.2042V37.1897C32.2042 38.4334 32.0013 39.5995 31.599 40.6844C31.1944 41.7705 30.6311 42.76 29.9114 43.6587C29.132 44.5551 28.2822 45.3082 27.3584 45.9157C26.5802 46.4086 25.7435 46.7846 24.8484 47.0448C23.9544 47.305 23.002 47.4363 21.9934 47.4363C21.0123 47.4363 20.0742 47.305 19.1803 47.0448C18.2851 46.7858 17.4496 46.4086 16.6702 45.9157C16.1797 45.597 15.725 45.2509 15.306 44.8749C14.8883 44.4978 14.492 44.0932 14.1161 43.6587C13.3952 42.7612 12.8318 41.7705 12.4296 40.6844C12.025 39.5983 11.8233 38.4334 11.8233 37.1897V18.043H9.27148V37.2172C9.27148 38.6661 9.49468 40.0375 9.94225 41.3265C10.3886 42.6168 11.0164 43.7984 11.8245 44.869C12.1408 45.3333 12.4952 45.7605 12.8855 46.152C13.2746 46.5435 13.6852 46.9135 14.1185 47.2608C14.868 47.8409 15.719 48.3637 16.6714 48.8267C18.2565 49.6097 20.0312 50 21.9934 50C23.9544 50 25.7423 49.6097 27.3584 48.8267C28.3108 48.3637 29.1606 47.8409 29.9114 47.2608C30.3446 46.9135 30.7552 46.5435 31.1443 46.152C31.5334 45.7605 31.8867 45.3333 32.2054 44.869C33.0122 43.7972 33.64 42.6156 34.0876 41.3265C34.534 40.0375 34.7583 38.6661 34.7583 37.2172V22.3612L41.2488 34.0436L32.4202 49.8699H35.3623L42.7193 36.6956L44.1897 34.0436L42.7193 31.3915Z" fill="#934B22"/>
</svg>
