<svg width="68" height="68" viewBox="0 0 68 68" fill="none" xmlns="http://www.w3.org/2000/svg">
<rect width="68" height="68" rx="12" fill="#058F00" fill-opacity="0.1"/>
<mask id="mask0_229_11835" style="mask-type:luminance" maskUnits="userSpaceOnUse" x="22" y="30" width="29" height="26">
<path d="M22.1704 30.8516H50.2815V56.0002H22.1704V30.8516Z" fill="white"/>
</mask>
<g mask="url(#mask0_229_11835)">
<path d="M45.733 56H26.6668C24.2391 56 22.2661 54.0282 22.2661 51.6005V43.5343C22.2661 43.1309 22.5967 42.8002 23.0002 42.8002C23.4036 42.8002 23.733 43.1309 23.733 43.5343V51.6005C23.733 53.2214 25.046 54.5343 26.6668 54.5343H45.733C47.3539 54.5343 48.6668 53.2214 48.6668 51.6005V31.8002C48.6668 31.3968 48.9963 31.0674 49.3997 31.0674C49.8031 31.0674 50.1337 31.3968 50.1337 31.8002V51.6005C50.1337 54.0282 48.1608 56 45.733 56Z" fill="#058F00"/>
</g>
<mask id="mask1_229_11835" style="mask-type:luminance" maskUnits="userSpaceOnUse" x="22" y="12" width="29" height="10">
<path d="M22.1704 12H50.2815V21.0736H22.1704V12Z" fill="white"/>
</mask>
<g mask="url(#mask1_229_11835)">
<path d="M45.733 12H26.6668C24.2391 12 22.2661 13.973 22.2661 16.4007V17.1336C22.2661 17.537 22.5967 17.8676 23.0002 17.8676C23.4036 17.8676 23.733 17.537 23.733 17.1336V16.4007C23.733 14.7798 25.046 13.4669 26.6668 13.4669H30.5674L31.4841 15.7478C31.8219 16.5917 32.6216 17.1336 33.5311 17.1336H38.8759C39.7783 17.1336 40.5851 16.5917 40.9229 15.7478L41.8396 13.4669H45.7402C47.3611 13.4669 48.674 14.7798 48.674 16.4007V20.0674C48.674 20.4708 49.0034 20.8002 49.4068 20.8002C49.8103 20.8002 50.1409 20.4708 50.1409 20.0674V16.4007C50.1409 13.973 48.1679 12 45.7402 12H45.733Z" fill="#058F00"/>
</g>
<mask id="mask2_229_11835" style="mask-type:luminance" maskUnits="userSpaceOnUse" x="12" y="19" width="23" height="23">
<path d="M12 19.2402H34.0871V41.5458H12V19.2402Z" fill="white"/>
</mask>
<g mask="url(#mask2_229_11835)">
<path d="M23 19.334C16.9354 19.334 12 24.2694 12 30.334C12 33.4003 13.2688 36.1789 15.3002 38.1734C15.3289 38.2032 15.3516 38.2331 15.3802 38.2546C17.3604 40.1535 20.0447 41.334 23 41.334C25.9553 41.334 28.6385 40.1535 30.6186 38.2546C30.6484 38.2331 30.6699 38.2032 30.6998 38.1734C32.7312 36.1789 34 33.4003 34 30.334C34 24.2694 29.0646 19.334 23 19.334ZM30.5088 36.1944C29.8487 34.0007 27.8758 32.5349 25.596 32.5349H20.404C18.123 32.5349 16.1501 34.009 15.49 36.1944C14.2296 34.5736 13.4669 32.5421 13.4669 30.334C13.4669 25.0763 17.7411 20.8009 23 20.8009C28.2577 20.8009 32.5331 25.0763 32.5331 30.334C32.5331 32.5421 31.7704 34.5736 30.5088 36.1944Z" fill="#058F00"/>
</g>
<path d="M26.6668 27.401C26.6668 27.6421 26.643 27.8797 26.5964 28.116C26.5487 28.3523 26.4794 28.5815 26.3875 28.8035C26.2956 29.0267 26.1822 29.238 26.0486 29.4385C25.9149 29.6378 25.7633 29.8228 25.5926 29.9935C25.4219 30.1642 25.2369 30.3158 25.0364 30.4494C24.8371 30.5831 24.6258 30.6965 24.4026 30.7884C24.1806 30.8803 23.9514 30.9507 23.7151 30.9973C23.4788 31.0438 23.2401 31.0677 23.0002 31.0677C22.7591 31.0677 22.5203 31.0438 22.284 30.9973C22.0489 30.9507 21.8185 30.8803 21.5965 30.7884C21.3745 30.6965 21.1632 30.5831 20.9627 30.4494C20.7622 30.3158 20.5772 30.1642 20.4065 29.9935C20.237 29.8228 20.0854 29.6378 19.9506 29.4385C19.8169 29.238 19.7047 29.0267 19.6128 28.8035C19.5197 28.5815 19.4505 28.3523 19.4039 28.116C19.3562 27.8797 19.3335 27.6421 19.3335 27.401C19.3335 27.1599 19.3562 26.9212 19.4039 26.6861C19.4505 26.4498 19.5197 26.2206 19.6128 25.9974C19.7047 25.7754 19.8169 25.5641 19.9506 25.3636C20.0854 25.1631 20.237 24.9781 20.4065 24.8086C20.5772 24.6379 20.7622 24.4863 20.9627 24.3526C21.1632 24.219 21.3745 24.1056 21.5965 24.0137C21.8185 23.9218 22.0489 23.8513 22.284 23.8048C22.5203 23.7582 22.7591 23.7344 23.0002 23.7344C23.2401 23.7344 23.4788 23.7582 23.7151 23.8048C23.9514 23.8513 24.1806 23.9218 24.4026 24.0137C24.6258 24.1056 24.8371 24.219 25.0364 24.3526C25.2369 24.4863 25.4219 24.6379 25.5926 24.8086C25.7633 24.9781 25.9149 25.1631 26.0486 25.3636C26.1822 25.5641 26.2956 25.7754 26.3875 25.9974C26.4794 26.2206 26.5487 26.4498 26.5964 26.6861C26.643 26.9212 26.6668 27.1599 26.6668 27.401Z" fill="#058F00"/>
<path d="M42.8 44.2667H29.5991C29.1956 44.2667 28.8662 43.9373 28.8662 43.5339C28.8662 43.1304 29.1956 42.7998 29.5991 42.7998H42.8C43.2023 42.7998 43.5329 43.1304 43.5329 43.5339C43.5329 43.9373 43.2023 44.2667 42.8 44.2667Z" fill="#058F00"/>
<path d="M36.1995 47.9337H29.5991C29.1956 47.9337 28.8662 47.6043 28.8662 47.2008C28.8662 46.7974 29.1956 46.4668 29.5991 46.4668H36.1995C36.603 46.4668 36.9324 46.7974 36.9324 47.2008C36.9324 47.6043 36.603 47.9337 36.1995 47.9337Z" fill="#058F00"/>
<path d="M42.8 51.6007H29.5991C29.1956 51.6007 28.8662 51.2713 28.8662 50.8678C28.8662 50.4644 29.1956 50.1338 29.5991 50.1338H42.8C43.2023 50.1338 43.5329 50.4644 43.5329 50.8678C43.5329 51.2713 43.2023 51.6007 42.8 51.6007Z" fill="#058F00"/>
<mask id="mask3_229_11835" style="mask-type:luminance" maskUnits="userSpaceOnUse" x="38" y="21" width="18" height="9">
<path d="M38.3647 21.9902H55.9998V29.6291H38.3647V21.9902Z" fill="white"/>
</mask>
<g mask="url(#mask3_229_11835)">
<path d="M52.3327 22.2676H42.0656C40.0413 22.2676 38.3989 23.9099 38.3989 25.9342C38.3989 27.9586 40.0413 29.6009 42.0656 29.6009H52.3327C54.3558 29.6009 55.9994 27.9586 55.9994 25.9342C55.9994 23.9099 54.3558 22.2676 52.3327 22.2676Z" fill="#058F00"/>
</g>
</svg>
