<svg width="68" height="68" viewBox="0 0 68 68" fill="none" xmlns="http://www.w3.org/2000/svg">
<rect width="68" height="68" rx="12" fill="#A700B3" fill-opacity="0.1"/>
<mask id="mask0_229_11821" style="mask-type:luminance" maskUnits="userSpaceOnUse" x="15" y="20" width="38" height="28">
<path d="M15.4316 20H52.5685V47.9995H15.4316V20Z" fill="white"/>
</mask>
<g mask="url(#mask0_229_11821)">
<path d="M49.4836 20H18.5335C16.8241 20 15.4316 21.4068 15.4316 23.1198V44.8555C15.4316 46.5686 16.8241 47.9753 18.5335 47.9753H49.4836C51.177 47.9753 52.5685 46.5686 52.5685 44.8555V23.1198C52.5685 21.4068 51.177 20 49.4836 20ZM48.3437 21.2716C49.0314 21.2716 49.6018 21.8312 49.6018 22.5431C49.6018 23.238 49.0314 23.8147 48.3437 23.8147C47.6569 23.8147 47.0865 23.238 47.0865 22.5431C47.0865 21.8312 47.6569 21.2716 48.3437 21.2716ZM44.6382 21.2716C45.343 21.2716 45.8964 21.8312 45.8964 22.5431C45.8964 23.238 45.343 23.8147 44.6382 23.8147C43.9514 23.8147 43.381 23.238 43.381 22.5431C43.381 21.8312 43.9514 21.2716 44.6382 21.2716ZM40.9498 21.2716C41.6375 21.2716 42.2079 21.8312 42.2079 22.5431C42.2079 23.238 41.6375 23.8147 40.9498 23.8147C40.246 23.8147 39.6926 23.238 39.6926 22.5431C39.6926 21.8312 40.246 21.2716 40.9498 21.2716ZM19.0538 22.0005C19.0538 21.6441 19.3386 21.3557 19.6905 21.3557H36.6578C37.0097 21.3557 37.2954 21.6441 37.2954 22.0005V23.0858C37.2954 23.4413 37.0097 23.7126 36.6578 23.7126H19.6905C19.3386 23.7126 19.0538 23.4413 19.0538 23.0858V22.0005ZM52.0662 44.8555C52.0662 46.2972 50.8922 47.4667 49.4836 47.4667H18.5335C17.1089 47.4667 15.9349 46.2972 15.9349 44.8555V25.0863H52.0662V44.8555Z" fill="#A700B3"/>
</g>
<path d="M28.0402 43.669C28.0572 43.737 28.1074 43.8042 28.1745 43.8722C28.342 44.0083 28.5936 43.9743 28.745 43.8042L29.6163 42.7198C30.9747 44.0254 32.6179 44.6692 34.2772 44.7543C35.2998 44.8223 36.3233 44.6522 37.2788 44.2967C38.2342 43.9403 39.1225 43.3976 39.8774 42.6857C41.1347 41.4652 41.9898 39.7862 42.1071 37.7347C42.1242 37.5825 42.057 37.4293 41.9227 37.3622C41.7382 37.2601 41.5206 37.3281 41.4194 37.4974C41.235 37.8368 41.0344 38.1412 40.8159 38.4296C39.7601 39.8543 38.3686 40.6682 36.8928 40.9396C35.4341 41.2109 33.8751 40.9396 32.5167 40.1596C32.3322 40.0405 32.1316 39.9384 31.9633 39.8032L32.8184 38.7349C32.8695 38.6669 32.9026 38.5997 32.9026 38.5317C32.9358 38.3114 32.7853 38.0911 32.5677 38.0571L26.3639 37.175C26.2968 37.158 26.2296 37.175 26.1624 37.192C25.9448 37.2771 25.8445 37.5144 25.9108 37.7177L28.0402 43.669Z" fill="#A700B3"/>
<path d="M26.0787 35.2252C26.2631 35.3264 26.4807 35.2584 26.581 35.0721C26.7825 34.7336 26.967 34.4283 27.1846 34.1569C28.2412 32.7323 29.6328 31.9183 31.1085 31.6478C32.5833 31.3765 34.1262 31.6478 35.4838 32.4278C35.6853 32.529 35.8697 32.6481 36.0542 32.7833L35.1829 33.8516C35.1319 33.9026 35.0987 33.9707 35.0987 34.0549C35.0647 34.2751 35.216 34.4793 35.4336 34.5124L41.6374 35.4115C41.7046 35.4115 41.7718 35.4115 41.8389 35.3775C42.0565 35.3094 42.1568 35.0721 42.0896 34.8518L39.9611 28.9176C39.9441 28.8325 39.894 28.7653 39.8268 28.7143C39.6593 28.5782 39.4077 28.5952 39.2564 28.7823L38.3842 29.8668C37.0267 28.5612 35.3835 27.9173 33.7403 27.8152C32.7007 27.7642 31.678 27.9173 30.7226 28.2728C29.7671 28.6292 28.8779 29.1889 28.1239 29.9008C26.8667 31.1043 26.0115 32.8003 25.8942 34.8518C25.8772 35.005 25.9443 35.1402 26.0787 35.2252Z" fill="#A700B3"/>
</svg>
