<svg width="68" height="68" viewBox="0 0 68 68" fill="none" xmlns="http://www.w3.org/2000/svg">
<rect width="68" height="68" rx="12" fill="#EB5D5D" fill-opacity="0.1"/>
<mask id="mask0_229_11781" style="mask-type:luminance" maskUnits="userSpaceOnUse" x="26" y="51" width="16" height="5">
<path d="M26.938 51.2627H41.1172V56.0004H26.938V51.2627Z" fill="white"/>
</mask>
<g mask="url(#mask0_229_11781)">
<path d="M39.7893 53.685H38.631V51.3691H29.3681V53.685H28.2098C27.5736 53.685 27.0522 54.2057 27.0522 54.8426C27.0522 55.4796 27.5736 56.0009 28.2098 56.0009H39.7893C40.4263 56.0009 40.9469 55.4796 40.9469 54.8426C40.9469 54.2057 40.4263 53.685 39.7893 53.685Z" fill="#EB5D5D"/>
</g>
<path d="M33.9999 23.2003C34.5586 23.2003 35.0128 22.7461 35.0128 22.1874C35.0128 21.6287 34.5586 21.1738 33.9999 21.1738C33.4405 21.1738 32.9863 21.6287 32.9863 22.1874C32.9863 22.7461 33.4405 23.2003 33.9999 23.2003Z" fill="#EB5D5D"/>
<path d="M29.3362 24.4542L28.459 25.0496L29.2933 26.2785L30.1705 25.6831C30.5471 25.4263 31.0449 25.4373 31.4111 25.7074C31.7573 25.9628 32.1367 26.1643 32.5424 26.3076C32.971 26.4599 33.2569 26.865 33.2569 27.3198V28.3791H34.742V27.3198C34.742 26.865 35.028 26.4599 35.4565 26.3076C35.8629 26.1643 36.2423 25.9628 36.5878 25.7074C36.9527 25.4373 37.4498 25.4263 37.8285 25.6831L38.7057 26.2785L39.5407 25.0496L38.6628 24.4542C38.2868 24.198 38.1124 23.7335 38.2266 23.2938C38.3256 22.92 38.3748 22.5475 38.3748 22.1875C38.3748 21.8274 38.3256 21.455 38.2266 21.0804C38.1124 20.6401 38.2868 20.1755 38.6628 19.92L39.5407 19.3253L38.7057 18.0957L37.8285 18.6918C37.4498 18.9473 36.9527 18.9369 36.5878 18.6676C36.2423 18.4121 35.8622 18.2099 35.4565 18.0673C35.028 17.915 34.742 17.51 34.742 17.0551V15.9951H33.2569V17.0551C33.2569 17.51 32.971 17.915 32.5424 18.0673C32.1367 18.2099 31.7573 18.4121 31.4111 18.6676C31.0449 18.9369 30.5471 18.9473 30.1705 18.6918L29.2933 18.0957L28.459 19.3253L29.3362 19.92C29.7128 20.1755 29.8866 20.6401 29.7724 21.0804C29.6741 21.455 29.6242 21.8274 29.6242 22.1875C29.6242 22.5475 29.6741 22.92 29.7724 23.2938C29.8866 23.7335 29.7128 24.198 29.3362 24.4542ZM33.9998 19.1481C35.6753 19.1481 37.0392 20.5113 37.0392 22.1875C37.0392 23.8636 35.6753 25.2269 33.9998 25.2269C32.3237 25.2269 30.9597 23.8636 30.9597 22.1875C30.9597 20.5113 32.3237 19.1481 33.9998 19.1481Z" fill="#EB5D5D"/>
<mask id="mask1_229_11781" style="mask-type:luminance" maskUnits="userSpaceOnUse" x="22" y="12" width="24" height="22">
<path d="M22.3296 12H45.7254V33.0065H22.3296V12Z" fill="white"/>
</mask>
<g mask="url(#mask1_229_11781)">
<path d="M24.7363 32.8421H43.2628C44.5367 32.8421 45.5787 31.7994 45.5787 30.5262V14.3149C45.5787 13.041 44.5367 11.999 43.2628 11.999H24.7363C23.4624 11.999 22.4204 13.041 22.4204 14.3149V30.5262C22.4204 31.7994 23.4624 32.8421 24.7363 32.8421ZM27.4808 22.189C27.4808 21.8878 27.5036 21.5984 27.5382 21.2972L26.3689 20.4983C25.8711 20.1625 25.7437 19.5027 26.0795 19.0049L28.1177 16.0056C28.4535 15.5078 29.1251 15.3804 29.6111 15.7162L30.7923 16.5152C30.8961 16.457 31.0007 16.3996 31.1045 16.3414V14.9173C31.1045 14.3267 31.5912 13.8517 32.1818 13.8517H35.8173C36.4079 13.8517 36.8946 14.3267 36.8946 14.9173V16.3414C36.9985 16.3996 37.103 16.457 37.2069 16.5152L38.388 15.7162C38.8747 15.3804 39.5463 15.5078 39.8821 16.0056L41.9197 19.0049C42.2554 19.5027 42.1281 20.1625 41.6303 20.4983L40.4609 21.2972C40.4955 21.5984 40.519 21.8878 40.519 22.189C40.519 22.4784 40.4955 22.7796 40.4609 23.0807L41.6303 23.8797C42.1281 24.2037 42.2554 24.8753 41.9197 25.3613L39.8821 28.3723C39.5463 28.8584 38.8747 28.9857 38.388 28.6617L37.2069 27.8628C37.103 27.9209 36.9985 27.9784 36.8946 28.0248V29.4489C36.8946 30.0395 36.4079 30.5262 35.8173 30.5262H32.1818C31.5912 30.5262 31.1045 30.0395 31.1045 29.4489V28.0248C31.0007 27.9784 30.8961 27.9209 30.7923 27.8628L29.6111 28.6617C29.1251 28.9857 28.4535 28.8584 28.1177 28.3723L26.0795 25.3613C25.7437 24.8753 25.8711 24.2037 26.3689 23.8797L27.5382 23.0807C27.5036 22.7796 27.4808 22.4784 27.4808 22.189Z" fill="#EB5D5D"/>
</g>
<mask id="mask2_229_11781" style="mask-type:luminance" maskUnits="userSpaceOnUse" x="12" y="21" width="44" height="29">
<path d="M12 21.1318H56V49.1359H12V21.1318Z" fill="white"/>
</mask>
<g mask="url(#mask2_229_11781)">
<path d="M53.6843 21.2637H47.8949V34.0008C47.8949 35.2747 46.8529 36.3167 45.579 36.3167H22.4207C21.1468 36.3167 20.1048 35.2747 20.1048 34.0008V21.2637H14.3154C13.0415 21.2637 11.9995 22.3057 11.9995 23.5796V46.7379C11.9995 48.0118 13.0415 49.0538 14.3154 49.0538H53.6843C54.9582 49.0538 56.0002 48.0118 56.0002 46.7379V23.5796C56.0002 22.3057 54.9582 21.2637 53.6843 21.2637ZM26.0105 44.8969C26.5893 44.8969 27.0525 45.3712 27.0525 45.9507C27.0525 46.5295 26.5893 46.9927 26.0105 46.9927C23.7057 46.9927 21.8301 45.1164 21.8301 42.8123C21.8301 40.5081 23.7057 38.6326 26.0105 38.6326C26.5893 38.6326 27.0525 39.0957 27.0525 39.6745C27.0525 40.2534 26.5893 40.7283 26.0105 40.7283C24.8522 40.7283 23.9141 41.6547 23.9141 42.8123C23.9141 43.9588 24.8522 44.8969 26.0105 44.8969ZM38.1571 45.9507C38.1571 46.5295 37.6821 46.9927 37.1033 46.9927C36.5245 46.9927 36.0613 46.5295 36.0613 45.9507V42.8123L34.8103 44.4801C34.417 45.0125 33.5253 45.0125 33.1313 44.4801L31.8809 42.8123V45.9507C31.8809 46.5295 31.4178 46.9927 30.839 46.9927C30.2602 46.9927 29.797 46.5295 29.797 45.9507V39.6745C29.797 39.2231 30.0746 38.8292 30.5032 38.69C30.9317 38.5398 31.406 38.69 31.6725 39.0494L33.9767 42.1178L36.2697 39.0494C36.5356 38.69 37.0105 38.5398 37.4391 38.69C37.8677 38.8292 38.1571 39.2231 38.1571 39.6745V45.9507ZM43.5643 41.7703C45.0002 41.7703 46.1696 42.9397 46.1696 44.3756C46.1696 45.8233 45.0002 46.9927 43.5643 46.9927H41.9899C41.4104 46.9927 40.9472 46.5295 40.9472 45.9507C40.9472 45.3712 41.4104 44.8969 41.9899 44.8969H43.5643C43.8419 44.8969 44.0856 44.665 44.0856 44.3756C44.0856 44.098 43.8419 43.8549 43.5643 43.8549C42.1173 43.8549 40.9472 42.6849 40.9472 41.2496C40.9472 39.8019 42.1173 38.6326 43.5643 38.6326H45.1276C45.7064 38.6326 46.1696 39.0957 46.1696 39.6745C46.1696 40.2534 45.7064 40.7283 45.1276 40.7283H43.5643C43.2749 40.7283 43.0319 40.9595 43.0319 41.2496C43.0319 41.5273 43.2749 41.7703 43.5643 41.7703Z" fill="#EB5D5D"/>
</g>
</svg>
