<svg width="68" height="68" viewBox="0 0 68 68" fill="none" xmlns="http://www.w3.org/2000/svg">
<rect width="68" height="68" rx="12" fill="#3A6BFF" fill-opacity="0.1"/>
<mask id="mask0_229_11807" style="mask-type:luminance" maskUnits="userSpaceOnUse" x="39" y="25" width="14" height="6">
<path d="M39.5923 25.0518H52.0346V30.4622H39.5923V25.0518Z" fill="white"/>
</mask>
<g mask="url(#mask0_229_11807)">
<path d="M39.7671 25.3301H52.0274V30.3859H39.7671V25.3301Z" fill="#3A6BFF"/>
</g>
<mask id="mask1_229_11807" style="mask-type:luminance" maskUnits="userSpaceOnUse" x="18" y="14" width="30" height="6">
<path d="M18.8525 14.5H47.1069V19.6415H18.8525V14.5Z" fill="white"/>
</mask>
<g mask="url(#mask1_229_11807)">
<path d="M18.8525 15.9403V19.5519H46.9801V15.9403C46.9801 15.143 46.3343 14.4961 45.5371 14.4961H20.2944C19.4983 14.4961 18.8525 15.143 18.8525 15.9403ZM40.1278 18.1077C39.5302 18.1077 39.0465 17.6228 39.0465 17.024C39.0465 16.4264 39.5314 15.9415 40.1278 15.9415C40.7255 15.9415 41.2092 16.4264 41.2092 17.024C41.2092 17.6228 40.7255 18.1077 40.1278 18.1077ZM36.5221 18.1077C35.9233 18.1077 35.4395 17.6228 35.4395 17.024C35.4395 16.4264 35.9244 15.9415 36.5221 15.9415C37.1185 15.9415 37.6034 16.4264 37.6034 17.024C37.6034 17.6228 37.1185 18.1077 36.5221 18.1077ZM43.7336 18.1077C43.136 18.1077 42.6522 17.6228 42.6522 17.024C42.6522 16.4264 43.136 15.9415 43.7336 15.9415C44.3301 15.9415 44.815 16.4264 44.815 17.024C44.815 17.6228 44.3301 18.1077 43.7336 18.1077Z" fill="#3A6BFF"/>
</g>
<mask id="mask2_229_11807" style="mask-type:luminance" maskUnits="userSpaceOnUse" x="15" y="39" width="18" height="11">
<path d="M15.9653 39.4795H32.6791V49.9997H15.9653V39.4795Z" fill="white"/>
</mask>
<g mask="url(#mask2_229_11807)">
<path d="M15.9678 39.7754V49.887H32.5548V39.7754H15.9678ZM31.1129 46.9975L28.2281 44.1079L23.9014 47.7196L21.0165 44.8312L17.4096 47.7196V41.2196H31.1129V46.9975Z" fill="#3A6BFF"/>
</g>
<mask id="mask3_229_11807" style="mask-type:luminance" maskUnits="userSpaceOnUse" x="18" y="20" width="30" height="34">
<path d="M18.8525 20.8438H47.1069V53.4999H18.8525V20.8438Z" fill="white"/>
</mask>
<g mask="url(#mask3_229_11807)">
<path d="M46.9801 23.8866V20.9971H18.8525V38.332H33.9977V51.3331H18.8525V52.0552C18.8525 52.8536 19.4983 53.4994 20.2944 53.4994H45.5371C46.3343 53.4994 46.9801 52.8536 46.9801 52.0552V31.832H38.3255V23.8866H46.9801ZM29.671 27.4982H33.2768C33.6748 27.4982 33.9989 27.8223 33.9989 28.2203C33.9989 28.6195 33.6748 28.9436 33.2768 28.9436H29.671C29.2718 28.9436 28.9489 28.6195 28.9489 28.2203C28.9489 27.8223 29.2718 27.4982 29.671 27.4982ZM29.671 30.3866H33.2768C33.6748 30.3866 33.9989 30.7107 33.9989 31.1099C33.9989 31.5079 33.6748 31.832 33.2768 31.832H29.671C29.2718 31.832 28.9489 31.5079 28.9489 31.1099C28.9489 30.7107 29.2718 30.3866 29.671 30.3866ZM21.7374 27.1366C21.7374 26.1386 22.544 25.3308 23.5397 25.3308C24.5365 25.3308 25.3431 26.1386 25.3431 27.1366V27.8599C25.3431 28.8567 24.5365 29.6645 23.5397 29.6645C22.544 29.6645 21.7374 28.8567 21.7374 27.8599V27.1366ZM26.0641 34.7203H21.0153V33.6366C21.0153 32.2406 22.146 31.1099 23.5397 31.1099C24.9334 31.1099 26.0629 32.2417 26.0629 33.6366V34.7203H26.0641ZM40.4883 49.8878H36.1616V45.5541H40.4883V49.8878ZM40.4883 43.3866H36.1616V39.0541H40.4883V43.3866ZM44.0952 48.4436H42.6522C42.2542 48.4436 41.9313 48.1195 41.9313 47.7203C41.9313 47.3223 42.2542 46.9982 42.6522 46.9982H44.0952C44.4933 46.9982 44.8161 47.3223 44.8161 47.7203C44.8161 48.1195 44.4933 48.4436 44.0952 48.4436ZM44.8161 41.2203C44.8161 41.6195 44.4933 41.9436 44.0952 41.9436H42.6522C42.2542 41.9436 41.9313 41.6195 41.9313 41.2203C41.9313 40.8223 42.2542 40.4982 42.6522 40.4982H44.0952C44.4933 40.4982 44.8161 40.8223 44.8161 41.2203ZM42.6522 33.2762C43.0514 33.2762 43.3743 33.6002 43.3743 33.9982C43.3743 34.3975 43.0514 34.7215 42.6522 34.7215H29.671C29.2718 34.7215 28.9489 34.3975 28.9489 33.9982C28.9489 33.6002 29.2718 33.2762 29.671 33.2762H42.6522Z" fill="#3A6BFF"/>
</g>
</svg>
