<svg width="68" height="68" viewBox="0 0 68 68" fill="none" xmlns="http://www.w3.org/2000/svg">
<rect width="68" height="68" rx="12" fill="#D38900" fill-opacity="0.1"/>
<path d="M40.925 41.2115V41.4208L42.9675 40.7666C42.9675 40.7666 41.7184 36.1462 41.7155 36.1336C41.3115 34.4319 40.2358 33.6978 39.1153 33.2539C38.3462 32.9482 38.0249 32.9716 37.6501 32.9385C37.0553 34.4202 35.8316 35.7286 34.014 35.7325C32.1974 35.7364 30.963 34.426 30.3662 32.9385C29.9914 32.9716 29.6789 32.9492 28.9108 33.2539C27.7903 33.6978 26.7165 34.4319 26.3135 36.1336C26.3096 36.1462 25.0586 40.7666 25.0586 40.7666L27.175 41.448V41.2115C27.1721 40.5173 27.7329 39.9517 28.427 39.9488C29.125 39.9468 29.6916 40.5125 29.6887 41.2115V49.096C29.6887 49.8145 30.2221 50.3509 30.9406 50.3509H37.1487C37.8672 50.3509 38.4104 49.8145 38.4104 49.096V41.2115C38.4085 40.5173 38.9692 39.9517 39.6624 39.9488C40.3614 39.9468 40.9279 40.5125 40.925 41.2115Z" fill="#D38900"/>
<path d="M45.3218 21.4218C44.6248 21.4247 44.0572 20.8572 44.0601 20.1582C44.0621 19.4641 44.6287 18.9023 45.3218 18.9053C46.013 18.9072 46.5738 19.4679 46.5767 20.1582C46.5796 20.8533 46.0169 21.4189 45.3218 21.4218ZM41.4336 21.4218C40.7356 21.4247 40.169 20.8572 40.1719 20.1582C40.1738 19.4641 40.7395 18.9023 41.4336 18.9053C42.1238 18.9072 42.6836 19.4679 42.6855 20.1582C42.6884 20.8533 42.1277 21.4189 41.4336 21.4218ZM37.5453 21.4218C36.8473 21.4247 36.2817 20.8572 36.2846 20.1582C36.2876 19.4641 36.8502 18.9023 37.5453 18.9053C38.2356 18.9072 38.7944 19.4679 38.7973 20.1582C38.8002 20.8533 38.2385 21.4189 37.5453 21.4218ZM49.0903 18.9004C49.0903 18.181 48.5568 17.6484 47.8384 17.6484H20.1807C19.4622 17.6484 18.9287 18.181 18.9287 18.9004V22.8383H49.0903V18.9004Z" fill="#D38900"/>
<mask id="mask0_229_11863" style="mask-type:luminance" maskUnits="userSpaceOnUse" x="13" y="14" width="42" height="40">
<path d="M13.9375 14H54.0621V54H13.9375V14Z" fill="white"/>
</mask>
<g mask="url(#mask0_229_11863)">
<path d="M50.1986 37.0938C49.7099 37.5806 48.9194 37.5806 48.4297 37.0938C47.943 36.6042 47.943 35.8127 48.4297 35.322L49.7732 33.9688L48.346 32.5407C47.8602 32.051 47.8602 31.2595 48.346 30.7699C48.5923 30.5216 48.9311 30.3873 49.2825 30.3999C49.5989 30.4116 49.9017 30.544 50.1256 30.7699L52.4406 33.0888C52.9274 33.5775 52.9274 34.369 52.4406 34.8596L50.1986 37.0938ZM51.6053 40.4184V45.4301C51.6053 47.4988 49.9056 49.2122 47.8388 49.2122H40.9141C40.8509 51.2274 39.1774 52.8678 37.1495 52.8678H30.9414C28.9136 52.8678 27.2508 51.2274 27.1865 49.2122H20.1811C18.1143 49.2122 16.4155 47.4988 16.4155 45.4301V40.4126C16.4155 40.4126 16.4136 39.1616 17.6704 39.1616C18.9262 39.1616 18.9291 40.4126 18.9291 40.4126V45.4301C18.9291 46.1495 19.4626 46.6937 20.1811 46.6937H27.1758V44.0818C27.1408 44.074 23.1493 42.8016 23.1493 42.8016C22.5049 42.5981 22.1359 41.9215 22.3141 41.2683L23.8639 35.5586C24.4782 32.97 26.3834 31.5497 27.9829 30.9159C29.5843 30.2802 31.0349 30.2841 31.0349 30.2841C31.729 30.2812 32.2936 30.8419 32.2965 31.537C32.2965 32.6896 32.8378 33.2173 34.0148 33.2173C35.1743 33.2173 35.7311 32.6371 35.7311 31.537C35.734 30.8419 36.2987 30.2812 36.9928 30.2841C36.9928 30.2841 38.4443 30.2802 40.0438 30.9159C41.6443 31.5497 43.5417 32.97 44.1569 35.5586L45.7048 41.2683C45.8849 41.9215 45.516 42.5981 44.8705 42.8016C44.8705 42.8016 40.9356 44.0594 40.9258 44.0623V46.6937H47.8388C48.5573 46.6937 49.0907 46.1495 49.0907 45.4301V40.4184C49.0907 40.4184 49.0927 39.1402 50.3495 39.1412C51.6073 39.1421 51.6053 40.4184 51.6053 40.4184ZM15.5179 34.8596C15.0312 34.369 15.0312 33.5775 15.5179 33.0888L17.8339 30.7699C18.0578 30.544 18.3587 30.4116 18.677 30.3999C19.0265 30.3873 19.3662 30.5216 19.6125 30.7699C20.0993 31.2595 20.0993 32.051 19.6125 32.5407L18.1863 33.9688L19.5298 35.322C20.0156 35.8127 20.0156 36.6042 19.5298 37.0938C19.0401 37.5806 18.2496 37.5806 17.7599 37.0938L15.5179 34.8596ZM16.4155 27.8298V18.9007C16.4155 16.831 18.1143 15.1322 20.1811 15.1322H47.8388C49.9056 15.1322 51.6053 16.831 51.6053 18.9007V27.8211C51.6053 27.8211 51.6073 29.0234 50.3495 29.0234C49.0937 29.0234 49.0907 27.8211 49.0907 27.8211V25.3444H18.9291V27.8298C18.9291 27.8298 18.9262 29.1071 17.6217 29.0808C16.3152 29.0545 16.4155 27.8298 16.4155 27.8298ZM53.2428 35.6569C54.1647 34.7282 54.1647 33.2183 53.2409 32.2866L51.0212 30.066C51.5002 29.9424 51.839 29.7077 52.0522 29.4955C52.7054 28.8403 52.7356 27.9846 52.7356 27.8211V18.9007C52.7356 16.1982 50.5393 14 47.8388 14H20.1811C17.4805 14 15.2843 16.1982 15.2843 18.9007V27.7997C15.2736 28.0625 15.294 28.8452 15.8664 29.4799C16.0728 29.7087 16.4097 29.9628 16.9003 30.104L14.7148 32.2895C13.7948 33.2183 13.7948 34.7282 14.7196 35.6608L16.9617 37.896C17.0317 37.9651 17.1106 38.0206 17.1875 38.08C16.6141 38.1842 16.2208 38.4509 15.9833 38.6885C15.3164 39.3583 15.2843 40.2442 15.2843 40.4126V45.4301C15.2843 48.1394 17.4805 50.3444 20.1811 50.3444H26.2111C26.765 52.4443 28.6721 54 30.9414 54H37.1495C39.4237 54 41.3357 52.4443 41.8896 50.3444H47.8388C50.5393 50.3444 52.7356 48.1394 52.7356 45.4301V40.4204C52.7356 40.324 52.7229 39.8109 52.464 39.2813C52.134 38.6086 51.5421 38.1793 50.8051 38.0528C50.8694 38.0002 50.9375 37.9544 50.9969 37.8951L53.2428 35.6569Z" fill="#D38900"/>
</g>
</svg>
