<svg width="68" height="68" viewBox="0 0 68 68" fill="none" xmlns="http://www.w3.org/2000/svg">
<rect width="68" height="68" rx="12" fill="#6497FF" fill-opacity="0.1"/>
<path fill-rule="evenodd" clip-rule="evenodd" d="M43.2636 28.8345C42.1934 27.8516 35.1364 34.3105 35.8799 36.2323C37.7988 36.9701 44.2456 29.9001 43.2636 28.8345Z" fill="#6497FF"/>
<path fill-rule="evenodd" clip-rule="evenodd" d="M36.6095 29.4681C37.3746 27.4563 38.6908 25.4303 40.4313 23.7471C38.6833 23.8137 35.8434 24.8342 32.6909 29.5498L36.6095 29.4681Z" fill="#6497FF"/>
<path fill-rule="evenodd" clip-rule="evenodd" d="M44.7882 24.3429C42.8918 26.3463 45.7476 29.2068 47.7398 27.3001C49.6437 25.2957 46.7878 22.4352 44.7882 24.3429Z" fill="#6497FF"/>
<path fill-rule="evenodd" clip-rule="evenodd" d="M48.149 31.8519C46.476 33.5286 44.5647 34.75 42.6242 35.4944L42.5425 39.4205C47.2487 36.2624 48.2682 33.4094 48.3349 31.666C48.2748 31.7252 48.2156 31.7928 48.149 31.8519Z" fill="#6497FF"/>
<path fill-rule="evenodd" clip-rule="evenodd" d="M46.4688 20.0439L52.0302 25.6166C52.6029 23.8432 52.7737 22.0558 52.5212 20.4241C52.4911 20.2157 52.3869 20.0289 52.2161 19.858C52.0452 19.6862 51.8518 19.582 51.6509 19.552C50.023 19.2995 48.2459 19.4703 46.4688 20.0439Z" fill="#6497FF"/>
<path fill-rule="evenodd" clip-rule="evenodd" d="M38.5347 46.6761C37.947 31.9558 16.964 31.9633 16.3838 46.6761C16.4063 46.6761 19.7006 46.6761 19.7231 46.6761C20.124 36.4029 34.8021 36.4104 35.2039 46.6761C35.2114 46.6761 38.5197 46.6761 38.5347 46.6761Z" fill="#6497FF"/>
<path d="M32.6906 29.8926C32.4221 29.9001 32.2513 29.5724 32.408 29.3565C35.6046 24.5743 38.5271 23.4787 40.4235 23.4045C40.8544 23.3895 40.906 24.0673 40.4526 24.0899C38.7947 24.1565 36.244 25.1103 33.359 29.1922L36.6092 29.1256C37.0551 29.1181 37.0701 29.8034 36.6232 29.8109C36.6092 29.8109 32.6972 29.8926 32.6906 29.8926Z" fill="#428DFF"/>
<path d="M42.5427 39.7631C42.3568 39.7631 42.1934 39.5997 42.2009 39.4129L42.2826 35.4868C42.2976 35.04 42.9736 35.055 42.9661 35.5019L42.8994 38.7576C46.9738 35.867 47.9257 33.3116 47.9933 31.6509C47.9999 31.465 48.1792 31.3082 48.3501 31.3233C48.5359 31.3308 48.6843 31.4866 48.6768 31.6809C48.6542 33.4609 47.324 36.8875 42.5427 39.7631Z" fill="#428DFF"/>
<path d="M42.5573 35.8668C42.4681 35.8668 42.3789 35.8292 42.3113 35.7701L40.2075 33.6616C39.8873 33.3489 40.3783 32.857 40.6909 33.1781L42.6389 35.1298C48.2821 33.0804 53.1901 26.0714 52.1865 20.4761C52.164 20.3428 52.0973 20.2161 51.9781 20.0969C51.8589 19.9776 51.7321 19.91 51.5988 19.8875C46.0224 18.8821 39.0255 23.7985 36.9808 29.4529L38.9288 31.4047C39.248 31.7098 38.7504 32.2092 38.4453 31.8891L36.3405 29.7806C36.2438 29.6839 36.2147 29.5421 36.2589 29.4154C37.0399 27.3378 38.3261 25.356 39.999 23.6868C43.3449 20.3353 47.8286 18.622 51.703 19.2097C52.2532 19.2848 52.7883 19.8209 52.8624 20.3719C53.9261 26.3615 48.6538 33.8925 42.5573 35.8668Z" fill="#428DFF"/>
<path d="M52.03 25.9591C51.9408 25.9591 51.8517 25.9215 51.785 25.8614L46.2226 20.2897C46.1409 20.208 46.1043 20.0813 46.1334 19.9696C46.1635 19.8503 46.2452 19.7611 46.3644 19.7236C48.1857 19.135 50.0304 18.9641 51.7033 19.2166C51.9859 19.2617 52.2384 19.3959 52.4619 19.6194C52.6844 19.8428 52.8186 20.0963 52.8627 20.3789C53.1162 22.0556 52.9444 23.9097 52.3577 25.7281C52.3126 25.8614 52.1793 25.9591 52.03 25.9591ZM47.1229 20.208L51.8742 24.9677C52.2976 23.4262 52.4093 21.8838 52.1934 20.4756C52.1718 20.3423 52.1042 20.2155 51.9859 20.0963C51.8667 19.9771 51.7399 19.9095 51.6066 19.8869C50.2013 19.671 48.6616 19.7827 47.1229 20.208Z" fill="#428DFF"/>
<path d="M46.2677 28.2542C44.1705 28.3284 43.011 25.527 44.5497 24.0972C45.4651 23.1735 47.0704 23.181 47.9857 24.0972C49.5244 25.527 48.365 28.3284 46.2677 28.2542ZM46.2677 24.0672C44.7581 24.0146 43.9329 26.0265 45.0332 27.0545C46.7137 28.611 49.0935 26.2649 47.5023 24.5817C47.1746 24.2531 46.7362 24.0672 46.2677 24.0672Z" fill="#428DFF"/>
<path d="M40.2821 37.0512C40.1929 37.0512 40.1037 37.0137 40.0371 36.9545L38.3716 35.2854C38.0515 34.9727 38.5425 34.4808 38.8542 34.8009L40.238 36.1866L41.3007 34.7643L40.1929 33.6537C39.8737 33.3486 40.3638 32.8492 40.6764 33.1702L41.9926 34.4883C42.1118 34.6075 42.1259 34.8009 42.0226 34.9352L40.5421 36.9095C40.4905 36.9987 40.3863 37.0512 40.2821 37.0512ZM37.063 33.8255C36.9738 33.8255 36.8846 33.788 36.817 33.7288L35.1591 32.0596C35.0107 31.9188 35.0323 31.6578 35.1966 31.5461L37.1672 30.0638C37.3005 29.9596 37.4939 29.9746 37.6131 30.0938L38.9293 31.4119C39.2485 31.7245 38.7584 32.2164 38.4458 31.8963L37.338 30.7857L35.9176 31.8512L37.3005 33.2369C37.5239 33.4378 37.353 33.833 37.063 33.8255Z" fill="#428DFF"/>
<path d="M36.1773 36.6789C32.7497 36.1204 42.3264 26.7859 43.5018 28.5893C44.7879 30.4068 38.0737 36.7165 36.1773 36.6789ZM42.9291 29.0587C41.4346 29.0137 35.8055 34.6605 36.1181 35.9936C36.3932 36.1354 38.0662 35.3083 40.2 33.1707C42.3114 31.0546 43.1441 29.3939 43.0108 29.0728C42.9958 29.0653 42.9657 29.0587 42.9291 29.0587Z" fill="#428DFF"/>
<mask id="mask0_229_11849" style="mask-type:luminance" maskUnits="userSpaceOnUse" x="15" y="20" width="19" height="13">
<path d="M15 20.833H33.8201V32.8496H15V20.833Z" fill="white"/>
</mask>
<g mask="url(#mask0_229_11849)">
<path d="M17.5591 32.8281C17.47 32.8281 17.3808 32.798 17.3132 32.7314L15.1427 30.5487C15.0084 30.4219 15.0084 30.191 15.1427 30.0643L20.4366 24.76C21.15 24.0447 22.3846 24.0447 23.0981 24.76L25.0986 26.7644L28.7787 23.0768L28.0286 22.3239C27.8352 22.138 27.946 21.7803 28.2145 21.7428L33.2699 20.8791C33.4934 20.834 33.7093 21.0499 33.6642 21.2734L32.8015 26.3391C32.7649 26.6076 32.4081 26.7193 32.2222 26.5259L31.4412 25.743L26.4298 30.7646C25.6938 31.5016 24.5034 31.5016 23.7674 30.7646L21.7678 28.7603L17.8042 32.7314C17.7375 32.798 17.6483 32.8281 17.5591 32.8281ZM15.8637 30.3027L17.5591 32.001L21.5218 28.0299C21.5894 27.9632 21.6711 27.9332 21.7678 27.9332C21.857 27.9332 21.9461 27.9707 22.0128 28.0299L24.2584 30.2802C24.7269 30.7496 25.4854 30.7496 25.9539 30.2802L31.2027 25.021C31.2703 24.9534 31.352 24.9243 31.4487 24.9243C31.6712 24.8868 32.088 25.4604 32.2438 25.5796L32.9132 21.6461L28.9871 22.3164C29.1805 22.5698 29.8724 22.9576 29.5157 23.3293L25.3512 27.5013C25.2179 27.6356 25.0019 27.6356 24.8677 27.5013L22.6221 25.252C22.1686 24.7976 21.381 24.7976 20.9276 25.252L15.8637 30.3027Z" fill="#428DFF"/>
</g>
<path d="M38.5347 47.0259C38.5046 47.0259 38.4755 47.0184 38.4455 47.0184H35.1963C35.0104 47.0184 34.8536 46.8617 34.8536 46.6758C34.8536 42.5939 31.5303 39.2705 27.4559 39.2705C23.3806 39.2705 20.0647 42.5939 20.0572 46.6758C20.0572 46.8617 19.9014 47.0184 19.7155 47.0184H16.3837C16.1978 47.0184 16.042 46.8617 16.042 46.6758C16.042 40.3661 21.165 35.2412 27.4559 35.2412C33.7534 35.2412 38.8689 40.3736 38.8689 46.6758C38.8764 46.8617 38.7205 47.0259 38.5347 47.0259ZM35.5305 46.3331H38.1854C37.241 32.5215 17.6633 32.544 16.7339 46.3331H19.3879C20.184 36.0533 34.7353 36.0598 35.5305 46.3331Z" fill="#428DFF"/>
<mask id="mask1_229_11849" style="mask-type:luminance" maskUnits="userSpaceOnUse" x="25" y="44" width="5" height="5">
<path d="M25.168 44.3857H29.7343V48.9042H25.168V44.3857Z" fill="white"/>
</mask>
<g mask="url(#mask1_229_11849)">
<path d="M27.4558 48.9048C24.5258 48.8296 24.5258 44.5318 27.4558 44.4492C30.3848 44.5243 30.3848 48.8221 27.4558 48.9048ZM27.4558 45.1345C25.4327 45.1871 25.4327 48.1593 27.4558 48.2119C29.4855 48.1593 29.4855 45.1871 27.4558 45.1345Z" fill="#428DFF"/>
</g>
<path d="M27.4559 40.4411C27.2701 40.4411 27.1133 40.2853 27.1133 40.0984V38.9071C27.1133 38.7203 27.2701 38.5645 27.4559 38.5645C27.6418 38.5645 27.7977 38.7203 27.7977 38.9071V40.0984C27.8052 40.2853 27.6493 40.4411 27.4559 40.4411Z" fill="#428DFF"/>
<path d="M30.7415 41.3197C30.489 41.3272 30.3106 41.0212 30.4449 40.8052L31.0391 39.7773C31.1358 39.6139 31.3442 39.5613 31.5076 39.6505C31.6709 39.7472 31.731 39.9566 31.6343 40.1199L31.0391 41.1479C30.9725 41.2596 30.8608 41.3197 30.7415 41.3197Z" fill="#428DFF"/>
<path d="M33.144 43.7262C32.8089 43.7412 32.668 43.2492 32.9732 43.085L33.9993 42.4888C34.1626 42.3921 34.371 42.4522 34.4668 42.6156C34.5635 42.7798 34.5043 42.9883 34.341 43.085C34.2293 43.1375 33.2623 43.7703 33.144 43.7262Z" fill="#428DFF"/>
<path d="M35.2113 47.0183H34.0209C33.835 47.0183 33.6792 46.8616 33.6792 46.6757C33.6792 46.4898 33.835 46.333 34.0209 46.333H35.2113C35.6648 46.333 35.6648 47.0183 35.2113 47.0183Z" fill="#428DFF"/>
<path d="M20.89 47.0183H19.7006C19.5147 47.0183 19.3579 46.8616 19.3579 46.6757C19.3579 46.4898 19.5147 46.333 19.7006 46.333H20.89C21.336 46.333 21.336 47.0183 20.89 47.0183Z" fill="#428DFF"/>
<path d="M21.7755 43.7266C21.6638 43.7707 20.6818 43.1305 20.5776 43.0854C20.1917 42.8695 20.541 42.2658 20.9203 42.4893L21.9464 43.0854C22.244 43.2497 22.1097 43.7416 21.7755 43.7266Z" fill="#428DFF"/>
<path d="M24.1765 41.3201C24.0573 41.3201 23.9456 41.26 23.8789 41.1483L23.2837 40.1203C23.187 39.957 23.2471 39.7476 23.4105 39.6509C23.5738 39.5542 23.7822 39.6143 23.8789 39.7777L24.4741 40.8057C24.6074 41.0216 24.4291 41.3276 24.1765 41.3201Z" fill="#428DFF"/>
<path d="M28.7862 45.6858C28.4961 45.6933 28.3252 45.3056 28.5411 45.0972L29.7531 43.8824C30.0657 43.5623 30.5558 44.0542 30.2366 44.3668C29.9165 44.6503 28.9795 45.7675 28.7862 45.6858Z" fill="#428DFF"/>
</svg>
