<svg width="68" height="68" viewBox="0 0 68 68" fill="none" xmlns="http://www.w3.org/2000/svg">
<rect width="68" height="68" rx="12" fill="#854CFF" fill-opacity="0.1"/>
<path d="M25.4274 43.6928C25.5156 44.193 25.6642 44.6354 25.8418 45.1067H30.5873C30.3203 44.8113 30.0823 44.4884 29.9047 44.1339C29.7863 43.9278 29.6969 43.6928 29.6377 43.4867C29.4891 43.0443 29.4009 42.573 29.4009 42.0729C29.4009 41.5727 29.4891 41.1014 29.6377 40.6591C29.6969 40.4241 29.8153 40.218 29.9047 40.0119C30.3493 39.1573 31.0609 38.451 31.9211 38.0086C32.1289 37.8905 32.3656 37.8025 32.5734 37.7434C33.018 37.5964 33.4928 37.5084 33.9966 37.5084C34.5017 37.5084 34.9765 37.5964 35.4211 37.7434C35.6578 37.8025 35.8656 37.9206 36.0734 38.0086C36.9336 38.451 37.6452 39.1573 38.0898 40.0119C38.2082 40.218 38.2976 40.4241 38.3568 40.6591C38.5054 41.1014 38.5936 41.5727 38.5936 42.0729C38.5936 42.573 38.5054 43.0443 38.3568 43.4867C38.2976 43.7217 38.2082 43.9278 38.0898 44.1339C37.9122 44.4884 37.6742 44.8113 37.4072 45.1067H42.1527C42.3303 44.6643 42.4487 44.193 42.5671 43.6928C42.7157 43.6626 42.8933 43.6626 43.0419 43.6338C43.4575 43.5747 43.9021 43.5156 44.3177 43.4565V40.6591C43.8718 40.5711 43.4575 40.512 43.0419 40.4831C42.8933 40.4529 42.7157 40.4529 42.5671 40.4241C42.3303 39.2452 41.8857 38.1556 41.2333 37.2131C41.3215 37.0962 41.4412 36.9781 41.5293 36.8311C41.7963 36.4779 42.0633 36.1537 42.3001 35.8005L40.314 33.8262C39.9575 34.0625 39.6024 34.3276 39.2762 34.5928C39.1578 34.6808 39.0381 34.7989 38.8908 34.8869C37.9412 34.2397 36.8442 33.7684 35.6578 33.5623C35.6289 33.414 35.6289 33.2381 35.5986 33.091C35.5394 32.6486 35.4802 32.2364 35.4211 31.8242H32.6037C32.5445 32.2653 32.4853 32.6788 32.4261 33.091C32.3959 33.2381 32.3959 33.414 32.3656 33.5623C31.1805 33.7973 30.0823 34.2397 29.1339 34.8869C29.0156 34.7989 28.8972 34.6808 28.7486 34.5928C28.3921 34.3276 28.0659 34.0625 27.7108 33.8262L25.7234 35.8005C25.9601 36.1537 26.2271 36.5068 26.4941 36.8311C26.5836 36.9479 26.702 37.066 26.7914 37.2131C26.139 38.1556 25.6642 39.2452 25.4564 40.4241C25.3077 40.4529 25.1302 40.4529 24.9816 40.4831C24.537 40.5409 24.1227 40.6 23.707 40.6591V43.4565C24.1516 43.5458 24.5672 43.6049 24.9816 43.6338C25.1302 43.6338 25.2788 43.6626 25.4274 43.6928Z" fill="#854CFF"/>
<path d="M51.1819 19H16.8176C15.9509 19 15.2339 19.7143 15.2339 20.5758V47.4242C15.2339 48.287 15.9509 49 16.8176 49H51.1819C52.0474 49 52.7657 48.287 52.7657 47.4242V20.5758C52.7949 19.7143 52.0779 19 51.1819 19ZM25.1248 20.8144C25.3342 20.6063 25.6337 20.487 25.9319 20.487C26.2301 20.487 26.5296 20.6063 26.739 20.8144C26.9484 21.0224 27.0677 21.3193 27.0677 21.6175C27.0677 21.9144 26.9484 22.2113 26.739 22.4193C26.5296 22.6579 26.2301 22.7758 25.9319 22.7758C25.6337 22.7758 25.3342 22.6579 25.1248 22.4498C24.9154 22.2417 24.7961 21.9435 24.7961 21.6467C24.7961 21.3498 24.9154 21.0516 25.1248 20.8144ZM21.3304 20.8144C21.5398 20.6063 21.838 20.487 22.1375 20.487C22.4357 20.487 22.7352 20.6063 22.9433 20.8144C23.1527 21.0224 23.272 21.3193 23.272 21.6175C23.272 21.9144 23.1527 22.2113 22.9433 22.4193C22.7352 22.6274 22.4357 22.7467 22.1375 22.7467C21.838 22.7467 21.5398 22.6274 21.3304 22.4193C21.121 22.2113 21.0017 21.9144 21.0017 21.6175C21.0017 21.3498 21.121 21.0516 21.3304 20.8144ZM17.5346 20.8144C17.744 20.6063 18.0436 20.487 18.3418 20.487C18.6413 20.487 18.9395 20.6063 19.1489 20.8144C19.3583 21.0224 19.4776 21.3193 19.4776 21.6175C19.4776 21.9144 19.3583 22.2113 19.1489 22.4193C18.9395 22.6274 18.6413 22.7467 18.3418 22.7467C18.0436 22.7467 17.744 22.6274 17.5346 22.4193C17.3266 22.2113 17.206 21.9144 17.206 21.6175C17.206 21.3498 17.3266 21.0516 17.5346 20.8144ZM50.7035 46.9484H17.2961V24.2629H50.7035V46.9484Z" fill="#854CFF"/>
</svg>
