<svg width="52" height="52" viewBox="0 0 52 52" fill="none" xmlns="http://www.w3.org/2000/svg">
<path d="M26.0059 51.0836C39.8098 51.0836 51 39.9577 51 26.2332C51 12.5087 39.8098 1.38281 26.0059 1.38281C12.202 1.38281 1.01172 12.5087 1.01172 26.2332C1.01172 39.9577 12.202 51.0836 26.0059 51.0836Z" stroke="#B7B7B7"/>
<g clip-path="url(#clip0_6_18134)">
<path d="M29.7552 18.7812H22.2569C20.1864 18.7812 18.5078 20.4501 18.5078 22.5088V29.9639C18.5078 32.0226 20.1864 33.6915 22.2569 33.6915H29.7552C31.8258 33.6915 33.5043 32.0226 33.5043 29.9639V22.5088C33.5043 20.4501 31.8258 18.7812 29.7552 18.7812Z" stroke="white" stroke-width="2" stroke-linecap="round" stroke-linejoin="round"/>
<path d="M29.0052 25.7673C29.0978 26.3877 28.9912 27.0214 28.7006 27.5782C28.4101 28.1349 27.9503 28.5864 27.3868 28.8684C26.8233 29.1504 26.1847 29.2485 25.5619 29.1489C24.939 29.0492 24.3636 28.7569 23.9175 28.3133C23.4715 27.8698 23.1774 27.2977 23.0772 26.6785C22.9769 26.0592 23.0757 25.4243 23.3593 24.864C23.6429 24.3037 24.097 23.8467 24.657 23.5578C25.2169 23.2689 25.8543 23.1629 26.4783 23.2549C27.1149 23.3488 27.7042 23.6437 28.1592 24.0961C28.6142 24.5485 28.9108 25.1344 29.0052 25.7673Z" stroke="white" stroke-width="2" stroke-linecap="round" stroke-linejoin="round"/>
<ellipse cx="30.1289" cy="22.1339" rx="1.125" ry="1.11827" fill="white"/>
</g>
<defs>
<clipPath id="clip0_6_18134">
<rect width="17.9958" height="17.8923" fill="white" transform="translate(17.0078 17.2891)"/>
</clipPath>
</defs>
</svg>
