<svg width="150" height="54" viewBox="0 0 150 54" fill="none" xmlns="http://www.w3.org/2000/svg">
<g clip-path="url(#clip0_229_6581)">
<path fill-rule="evenodd" clip-rule="evenodd" d="M-0.0633545 6.82129H16.3763L-0.0633545 46.1372V6.82129ZM44.3614 6.82129H27.9432L44.3614 46.1372V6.82129ZM22.1599 21.3118L32.6234 46.1372H25.7584L22.6311 38.2333H14.9735L22.1599 21.3118ZM73.1195 37.3821L71.181 31.8237H63.2236L61.3922 37.3178C61.3173 37.5213 61.2209 37.5856 61.0174 37.5856H57.6866C57.4938 37.5856 57.4189 37.4892 57.451 37.2536L64.316 17.7295C64.4552 17.3975 64.5516 17.0548 64.6159 15.9303C64.6159 15.791 64.6909 15.6946 64.8194 15.6946H69.446C69.6174 15.6946 69.6495 15.7268 69.6816 15.8981L77.382 37.2857C77.4142 37.4892 77.382 37.5856 77.1786 37.5856H73.4515C73.2802 37.5856 73.1838 37.5213 73.1195 37.3821ZM64.7001 26.9396C64.5574 27.3686 64.4178 27.7884 64.2839 28.1931H70.1208C69.9121 27.5417 69.6287 26.6792 69.3158 25.7271L69.3154 25.7258C68.5686 23.4535 67.6541 20.6705 67.1863 19.0254H67.1541C66.6899 20.9566 65.63 24.1436 64.7002 26.9393L64.7001 26.9396ZM87.2816 37.9176C89.2843 37.9176 91.4156 37.5534 93.579 36.6217C93.7503 36.5574 93.7825 36.4825 93.7825 36.3218C93.7182 35.722 93.6433 34.8546 93.6433 34.1905V14.056C93.6433 13.9275 93.6433 13.8632 93.4826 13.8632H89.852C89.7127 13.8632 89.6485 13.9275 89.6485 14.0989V20.921C89.0808 20.8568 88.6846 20.8246 88.2133 20.8246C82.355 20.8246 78.7565 24.6909 78.7565 29.521C78.7565 35.1223 82.4514 37.9176 87.2816 37.9176ZM89.6485 34.1905C89.0487 34.3833 88.3847 34.4583 87.71 34.4583C85.0539 34.4583 82.8798 32.9589 82.8798 29.3176C82.8798 26.0939 85.1182 24.1875 88.0848 24.1875C88.6846 24.1875 89.2094 24.2518 89.6485 24.4232V34.1905ZM97.2681 29.3926C97.2681 24.6588 100.363 20.8247 105.365 20.8247C110.495 20.8247 113.29 24.7231 113.29 29.2855C113.29 34.4583 109.991 37.9176 105.29 37.9176C99.7314 37.9176 97.2681 33.623 97.2681 29.3926ZM109.188 29.3926C109.188 26.6187 107.989 24.1876 105.161 24.1876C102.923 24.1876 101.327 26.1582 101.327 29.3176C101.327 32.3913 102.827 34.5226 105.365 34.5226C107.421 34.5226 109.188 32.8197 109.188 29.3926ZM117.044 13.8632C116.905 13.8632 116.808 13.9275 116.808 14.0989V36.8894C116.808 36.9858 116.905 37.1572 117.044 37.1893C118.64 37.682 120.31 37.9176 122.035 37.9176C126.972 37.9176 131.77 34.8546 131.77 28.6857C131.77 24.2197 128.707 20.8246 123.909 20.8246C122.806 20.8246 121.778 20.996 120.878 21.2959L120.835 14.131C120.835 13.8954 120.771 13.8632 120.535 13.8632H117.044ZM127.668 29.0927C127.668 32.7875 125.14 34.5225 122.409 34.5225C121.842 34.5225 121.338 34.4904 120.878 34.3512V24.6266C121.403 24.4232 122.035 24.2518 123.202 24.2518C125.837 24.2518 127.668 25.9225 127.668 29.0927ZM148.746 30.153C148.286 30.2601 146.947 30.2922 145.319 30.2922H138.551C138.647 32.6162 140.189 34.4905 143.584 34.4905C145.084 34.4905 146.454 34.2227 147.718 33.6872C147.815 33.623 147.911 33.6551 147.911 33.8158V36.5896C147.911 36.7824 147.847 36.8895 147.718 36.9537C146.454 37.5535 144.987 37.9176 142.717 37.9176C136.655 37.9176 134.492 33.6551 134.492 29.5532C134.492 24.9266 137.287 20.8247 142.32 20.8247C147.247 20.8247 149.153 24.691 149.153 27.8611C149.153 28.7928 149.11 29.5532 149.014 29.9174C148.982 30.0566 148.918 30.1209 148.746 30.153ZM142.149 24.0269C139.846 24.0269 138.818 25.7941 138.551 27.422H143.52H143.52C144.784 27.422 145.212 27.422 145.351 27.3898V27.1221C145.351 26.1582 144.687 24.0269 142.149 24.0269Z" fill="#0F68EA"/>
</g>
<defs>
<clipPath id="clip0_229_6581">
<rect width="150" height="54" fill="white"/>
</clipPath>
</defs>
</svg>
