<svg width="150" height="54" viewBox="0 0 150 54" fill="none" xmlns="http://www.w3.org/2000/svg">
<path fill-rule="evenodd" clip-rule="evenodd" d="M19.3935 7.40234C8.76743 7.40234 0.160767 16.009 0.160767 26.6351C0.160767 35.1456 5.66614 42.3339 13.3112 44.8822C14.2728 45.0505 14.6334 44.4735 14.6334 43.9686C14.6334 43.5119 14.6094 41.9973 14.6094 40.3865C9.77715 41.2761 8.52702 39.2085 8.14236 38.1267C7.926 37.5737 6.9884 35.8668 6.17101 35.4101C5.49786 35.0494 4.53622 34.1599 6.14697 34.1359C7.66155 34.1118 8.74339 35.5303 9.104 36.1072C10.835 39.0162 13.5997 38.1988 14.7055 37.694C14.8738 36.4438 15.3787 35.6024 15.9316 35.1216C11.6523 34.6407 7.18073 32.9819 7.18073 25.6254C7.18073 23.5338 7.926 21.8029 9.15208 20.4566C8.95976 19.9758 8.28661 18.0044 9.34441 15.3599C9.34441 15.3599 10.9552 14.855 14.6334 17.3313C16.172 16.8985 17.8068 16.6822 19.4416 16.6822C21.0764 16.6822 22.7112 16.8985 24.2498 17.3313C27.9281 14.831 29.5388 15.3599 29.5388 15.3599C30.5966 18.0044 29.9235 19.9758 29.7311 20.4566C30.9572 21.8029 31.7025 23.5098 31.7025 25.6254C31.7025 33.006 27.2068 34.6407 22.9276 35.1216C23.6247 35.7226 24.2258 36.8766 24.2258 38.6796C24.2258 41.252 24.2017 43.3195 24.2017 43.9686C24.2017 44.4735 24.5623 45.0745 25.524 44.8822C29.342 43.5933 32.6598 41.1394 35.0101 37.8661C37.3605 34.5928 38.6253 30.6649 38.6263 26.6351C38.6263 16.009 30.0196 7.40234 19.3935 7.40234Z" fill="#0F68EA"/>
<path d="M89.8207 35.9183H89.7758C89.796 35.9183 89.8095 35.9407 89.8297 35.943H89.8432L89.8207 35.9205V35.9183ZM89.8297 35.943C89.621 35.9452 89.096 36.0552 88.5417 36.0552C86.7915 36.0552 86.1857 35.2474 86.1857 34.1928V27.1674H89.7534C89.9553 27.1674 90.1124 26.9879 90.1124 26.741V22.9265C90.1124 22.7246 89.9329 22.5451 89.7534 22.5451H86.1857V17.8106C86.1857 17.6311 86.0735 17.5189 85.8716 17.5189H81.0249C80.823 17.5189 80.7108 17.6311 80.7108 17.8106V22.6797C80.7108 22.6797 78.265 23.2856 78.108 23.308C77.9285 23.3529 77.8163 23.5099 77.8163 23.6894V26.741C77.8163 26.9879 77.9958 27.1674 78.1977 27.1674H80.6883V34.5271C80.6883 40.002 84.5029 40.563 87.1057 40.563C88.2949 40.563 89.731 40.1815 89.9553 40.0694C90.09 40.0245 90.1573 39.8674 90.1573 39.7103V36.3446C90.1604 36.2491 90.129 36.1558 90.0688 36.0816C90.0086 36.0074 89.9237 35.9574 89.8297 35.9407V35.943ZM142.999 31.0043C142.999 26.943 141.361 26.4045 139.634 26.584C138.287 26.6737 137.21 27.3469 137.21 27.3469V35.2451C137.21 35.2451 138.31 36.008 139.948 36.0529C142.259 36.1202 142.999 35.29 142.999 31.0043ZM148.452 30.6453C148.452 38.3416 145.961 40.5406 141.608 40.5406C137.928 40.5406 135.954 38.6782 135.954 38.6782C135.954 38.6782 135.864 39.7103 135.752 39.845C135.684 39.9796 135.572 40.0245 135.438 40.0245H132.117C131.892 40.0245 131.69 39.845 131.69 39.643L131.735 14.7142C131.735 14.5122 131.915 14.3327 132.117 14.3327H136.896C137.098 14.3327 137.278 14.5122 137.278 14.7142V23.1734C137.278 23.1734 139.117 21.9841 141.81 21.9841L141.788 21.9393C144.48 21.9393 148.452 22.949 148.452 30.6453ZM128.886 22.5451H124.174C123.927 22.5451 123.792 22.7246 123.792 22.9714V35.1778C123.792 35.1778 122.558 36.0529 120.875 36.0529C119.192 36.0529 118.699 35.29 118.699 33.6071V22.949C118.699 22.747 118.519 22.5675 118.317 22.5675H113.515C113.314 22.5675 113.134 22.747 113.134 22.949V34.4149C113.134 39.3513 115.894 40.5854 119.686 40.5854C122.805 40.5854 125.34 38.8577 125.34 38.8577C125.34 38.8577 125.453 39.7328 125.52 39.8674C125.565 39.9796 125.722 40.0694 125.879 40.0694H128.886C129.132 40.0694 129.267 39.8898 129.267 39.6879L129.312 22.9265C129.312 22.7246 129.132 22.5451 128.886 22.5451ZM75.7071 22.5227H70.9277C70.7258 22.5227 70.5463 22.7246 70.5463 22.9714V39.4411C70.5463 39.8898 70.838 40.0469 71.2194 40.0469H75.5276C75.9763 40.0469 76.0885 39.845 76.0885 39.4411V22.9041C76.0885 22.7022 75.909 22.5227 75.7071 22.5227ZM73.3511 14.9385C71.6233 14.9385 70.2546 16.3073 70.2546 18.035C70.2546 19.7628 71.6233 21.1315 73.3511 21.1315C75.0339 21.1315 76.4027 19.7628 76.4027 18.035C76.4027 16.3073 75.0339 14.9385 73.3511 14.9385ZM110.352 14.3776H105.617C105.415 14.3776 105.236 14.5571 105.236 14.759V23.9363H97.8087V14.759C97.8087 14.5571 97.6292 14.3776 97.4273 14.3776H92.6479C92.446 14.3776 92.2665 14.5571 92.2665 14.759V39.6879C92.2665 39.8898 92.4684 40.0694 92.6479 40.0694H97.4273C97.6292 40.0694 97.8087 39.8898 97.8087 39.6879V29.0297H105.236L105.191 39.6879C105.191 39.8898 105.37 40.0694 105.572 40.0694H110.352C110.554 40.0694 110.733 39.8898 110.733 39.6879V14.759C110.733 14.5571 110.554 14.3776 110.352 14.3776ZM68.0108 25.4172V38.2967C68.0108 38.3865 67.9883 38.5436 67.8761 38.5884C67.8761 38.5884 65.0714 40.5854 60.4491 40.5854C54.862 40.5854 48.2427 38.8352 48.2427 27.302C48.2427 15.7688 54.0317 13.3903 59.6862 13.4127C64.5777 13.4127 66.5523 14.5122 66.8664 14.7142C66.9562 14.8263 67.001 14.9161 67.001 15.0283L66.0586 19.0223C66.0586 19.2242 65.8567 19.4711 65.6099 19.4037C64.8021 19.1569 63.5904 18.6633 60.7408 18.6633C57.4424 18.6633 53.8971 19.6057 53.8971 27.0327C53.8971 34.4598 57.2628 35.3349 59.6862 35.3349C61.7505 35.3349 62.491 35.0881 62.491 35.0881V29.9273H59.1925C58.9457 29.9273 58.7662 29.7478 58.7662 29.5458V25.4172C58.7662 25.2152 58.9457 25.0357 59.1925 25.0357H67.5844C67.8313 25.0357 68.0108 25.2152 68.0108 25.4172Z" fill="#0F68EA"/>
</svg>
