<svg width="150" height="46" viewBox="0 0 150 46" fill="none" xmlns="http://www.w3.org/2000/svg">
<path fill-rule="evenodd" clip-rule="evenodd" d="M17.5695 8.00222L3.03776 13.8402C2.22966 14.1649 2.23803 15.2795 3.0512 15.5925L17.6435 21.2108C18.9256 21.7045 20.3535 21.7045 21.6356 21.2108L36.2282 15.5923C37.0411 15.2795 37.0499 14.1651 36.2414 13.8404L21.7101 8.00201C20.3843 7.46938 18.895 7.46938 17.5693 8.00201L17.5695 8.00222ZM60.277 25.8268L57.6692 19.0017C57.5628 18.7225 57.1561 18.7225 57.0495 19.0017L54.4421 25.8272C54.4236 25.8757 54.4174 25.9279 54.4242 25.9792C54.4309 26.0305 54.4503 26.0795 54.4808 26.122C54.5112 26.1644 54.5518 26.1991 54.599 26.2231C54.6463 26.247 54.6988 26.2595 54.7521 26.2595H59.9671C60.0204 26.2595 60.0729 26.247 60.1201 26.223C60.1673 26.199 60.2079 26.1643 60.2383 26.1218C60.2687 26.0793 60.2881 26.0303 60.2948 25.979C60.3015 25.9277 60.2954 25.8755 60.2768 25.827L60.277 25.8268ZM61.4813 29.6631H53.2376C53.1702 29.6631 53.1044 29.6831 53.049 29.7205C52.9936 29.7579 52.9514 29.8109 52.9279 29.8723L51.3048 34.1191C51.2814 34.1805 51.2391 34.2334 51.1837 34.2708C51.1284 34.3082 51.0625 34.3282 50.9951 34.3283H47.4219C47.3678 34.3282 47.3146 34.3154 47.2669 34.2908C47.2192 34.2662 47.1785 34.2306 47.1482 34.1872C47.1179 34.1437 47.0991 34.0937 47.0933 34.0416C47.0876 33.9895 47.0951 33.9367 47.1152 33.8881L55.3418 13.9906C55.3665 13.9312 55.4089 13.8803 55.4636 13.8444C55.5183 13.8086 55.5827 13.7895 55.6487 13.7895H59.0702C59.205 13.7895 59.3264 13.8691 59.3768 13.9906L67.6033 33.8878C67.6235 33.9365 67.631 33.9893 67.6253 34.0415C67.6196 34.0937 67.6008 34.1438 67.5705 34.1873C67.5403 34.2308 67.4994 34.2664 67.4517 34.291C67.4039 34.3156 67.3507 34.3285 67.2966 34.3285H63.724C63.6566 34.3284 63.5907 34.3084 63.5353 34.2709C63.4799 34.2335 63.4377 34.1805 63.4143 34.1191L61.791 29.8723C61.7675 29.8109 61.7253 29.7579 61.6699 29.7205C61.6145 29.6831 61.5487 29.6631 61.4813 29.6631ZM69.2774 20.7725H72.3336C72.4212 20.7725 72.5053 20.8063 72.5673 20.8665C72.6292 20.9267 72.6641 21.0083 72.6641 21.0934V34.0074C72.6641 34.0925 72.6292 34.1741 72.5673 34.2343C72.5053 34.2945 72.4212 34.3283 72.3336 34.3283H69.2774C69.1898 34.3283 69.1057 34.2945 69.0437 34.2343C68.9818 34.1741 68.947 34.0925 68.947 34.0074V21.0932C68.947 21.0081 68.9818 20.9265 69.0437 20.8663C69.1057 20.8061 69.1898 20.7723 69.2774 20.7723V20.7725ZM83.8101 23.9139C83.8101 23.999 83.7752 24.0806 83.7133 24.1408C83.6513 24.2009 83.5672 24.2347 83.4796 24.2347H83.3871C81.8759 24.2347 80.7676 24.5868 80.0626 25.291C79.3571 25.9951 79.0051 27.1592 79.0051 28.7827V34.0074C79.0051 34.0925 78.9702 34.1741 78.9083 34.2343C78.8463 34.2945 78.7622 34.3283 78.6746 34.3283H75.6484C75.5607 34.3283 75.4767 34.2945 75.4147 34.2343C75.3527 34.1741 75.3179 34.0925 75.3179 34.0074V21.0932C75.3179 21.0081 75.3527 20.9265 75.4147 20.8663C75.4767 20.8061 75.5607 20.7723 75.6484 20.7723H78.6442C78.7318 20.7723 78.8159 20.8061 78.8779 20.8663C78.9398 20.9265 78.9747 21.0081 78.9747 21.0932V23.6476H79.0352C79.3979 22.5913 79.972 21.78 80.7581 21.2123C81.5435 20.6453 82.5107 20.3614 83.6589 20.3614H83.8101V23.9137V23.9139ZM92.1665 23.7945C92.0788 23.7945 91.9948 23.8283 91.9328 23.8885C91.8708 23.9487 91.836 24.0303 91.836 24.1154V29.4868C91.836 30.0346 91.9462 30.4259 92.1682 30.6605C92.3896 30.8952 92.7725 31.0126 93.3165 31.0126H93.6208C93.7084 31.0126 93.7925 31.0464 93.8544 31.1066C93.9164 31.1667 93.9512 31.2483 93.9512 31.3334V34.0365C93.9512 34.1216 93.9164 34.2032 93.8544 34.2634C93.7925 34.3235 93.7084 34.3573 93.6208 34.3573H92.3192C90.9693 34.3573 89.9319 34.02 89.2066 33.3452C88.4811 32.6703 88.1185 31.6682 88.1185 30.3377V24.1154C88.1185 24.0303 88.0836 23.9487 88.0217 23.8885C87.9597 23.8283 87.8756 23.7945 87.788 23.7945H85.8803C85.7927 23.7945 85.7086 23.7607 85.6466 23.7005C85.5847 23.6404 85.5499 23.5588 85.5499 23.4737V21.0932C85.5499 21.0081 85.5847 20.9265 85.6466 20.8663C85.7086 20.8061 85.7927 20.7723 85.8803 20.7723H87.7882C87.8759 20.7723 87.9599 20.7385 88.0219 20.6783C88.0839 20.6182 88.1187 20.5366 88.1187 20.4515V15.665C88.1187 15.5799 88.1535 15.4983 88.2155 15.4381C88.2775 15.378 88.3615 15.3442 88.4492 15.3442H91.5053C91.593 15.3442 91.677 15.378 91.739 15.4381C91.801 15.4983 91.8358 15.5799 91.8358 15.665V20.4515C91.8358 20.5366 91.8706 20.6182 91.9326 20.6783C91.9946 20.7385 92.0786 20.7723 92.1663 20.7723H94.3762C94.4639 20.7723 94.5479 20.8061 94.6099 20.8663C94.6719 20.9265 94.7067 21.0081 94.7067 21.0932V23.4739C94.7067 23.559 94.6719 23.6406 94.6099 23.7008C94.5479 23.7609 94.4639 23.7947 94.3762 23.7947H92.1665V23.7945ZM106.161 30.3084C106.856 29.6043 107.203 28.6849 107.203 27.5502C107.203 26.4161 106.856 25.4963 106.161 24.7922C105.466 24.088 104.554 23.7359 103.426 23.7359C102.297 23.7359 101.386 24.088 100.691 24.7922C99.9959 25.4963 99.6483 26.4161 99.6483 27.5502C99.6483 28.6849 99.9959 29.6043 100.691 30.3084C101.386 31.0126 102.297 31.3647 103.426 31.3647C104.554 31.3647 105.466 31.0126 106.161 30.3084ZM99.1043 33.9174C98.0768 33.3503 97.2656 32.5236 96.6716 31.438C96.077 30.3525 95.78 29.0567 95.78 27.5502C95.78 26.0443 96.077 24.7481 96.6716 23.6625C97.2656 22.577 98.0768 21.7509 99.1043 21.1832C100.132 20.616 101.26 20.3323 102.489 20.3323C103.577 20.3323 104.509 20.5377 105.285 20.9484C106.06 21.359 106.679 21.9364 107.143 22.6797H107.203V21.0932C107.203 21.0081 107.238 20.9265 107.3 20.8663C107.362 20.8061 107.446 20.7723 107.534 20.7723H110.56C110.647 20.7723 110.732 20.8061 110.794 20.8663C110.855 20.9265 110.89 21.0081 110.89 21.0932V34.0072C110.89 34.0923 110.855 34.1739 110.794 34.2341C110.732 34.2942 110.647 34.328 110.56 34.328H107.534C107.446 34.328 107.362 34.2942 107.3 34.2341C107.238 34.1739 107.203 34.0923 107.203 34.0072V32.4209H107.143C106.679 33.1646 106.06 33.7413 105.284 34.152C104.509 34.5627 103.577 34.768 102.489 34.768C101.26 34.768 100.132 34.4844 99.1043 33.9174ZM123.475 30.3084C124.17 29.6043 124.518 28.6849 124.518 27.5502C124.518 26.4161 124.17 25.4963 123.475 24.7922C122.78 24.088 121.868 23.7359 120.74 23.7359C119.612 23.7359 118.7 24.088 118.005 24.7922C117.31 25.4963 116.963 26.4161 116.963 27.5502C116.963 28.6849 117.31 29.6043 118.005 30.3084C118.7 31.0126 119.612 31.3647 120.74 31.3647C121.868 31.3647 122.78 31.0126 123.475 30.3084ZM118.882 34.152C118.106 33.7413 117.486 33.1646 117.023 32.4209H116.963V34.0072C116.963 34.0923 116.928 34.1739 116.866 34.2341C116.804 34.2942 116.72 34.328 116.632 34.328H113.576C113.488 34.328 113.404 34.2942 113.342 34.2341C113.28 34.1739 113.245 34.0923 113.245 34.0072V14.1097C113.245 14.0247 113.28 13.943 113.342 13.8829C113.404 13.8227 113.488 13.7889 113.576 13.7889H116.632C116.72 13.7889 116.804 13.8227 116.866 13.8829C116.928 13.943 116.963 14.0247 116.963 14.1097V22.6795H117.023C117.486 21.9362 118.106 21.359 118.882 20.9484C119.657 20.5375 120.589 20.3321 121.677 20.3321C122.906 20.3321 124.034 20.6157 125.062 21.183C126.089 21.7507 126.9 22.5768 127.495 23.6621C128.089 24.7483 128.386 26.0445 128.386 27.5504C128.386 29.0569 128.089 30.3525 127.495 31.4382C126.9 32.5238 126.09 33.3505 125.062 33.9174C124.035 34.4846 122.906 34.7685 121.677 34.7685C120.589 34.7685 119.657 34.5631 118.882 34.1522L118.882 34.152ZM133.535 34.3283H130.479C130.392 34.3283 130.308 34.2945 130.246 34.2343C130.184 34.1741 130.149 34.0925 130.149 34.0074V14.1104C130.149 14.0253 130.184 13.9437 130.246 13.8835C130.308 13.8233 130.392 13.7895 130.479 13.7895H133.535C133.623 13.7895 133.707 13.8233 133.769 13.8835C133.831 13.9437 133.866 14.0253 133.866 14.1104V34.0074C133.866 34.0925 133.831 34.1741 133.769 34.2343C133.707 34.2945 133.623 34.3283 133.535 34.3283ZM140.745 23.9122C140.238 24.2959 139.896 24.8499 139.719 25.5746C139.67 25.7744 139.83 25.966 140.042 25.966H145.858C146.06 25.966 146.219 25.7906 146.186 25.5973C146.07 24.9117 145.767 24.3652 145.278 23.9562C144.704 23.4771 143.953 23.2375 143.026 23.2375C142.099 23.2375 141.338 23.4623 140.745 23.9122ZM148.194 22.2249C149.382 23.4869 149.977 25.2719 149.977 27.5797V27.963C149.977 28.0481 149.942 28.1297 149.88 28.1899C149.818 28.2501 149.734 28.2839 149.646 28.2839H139.93C139.881 28.284 139.834 28.2943 139.79 28.3142C139.746 28.3341 139.707 28.363 139.676 28.399C139.645 28.4349 139.622 28.4771 139.609 28.5224C139.597 28.5678 139.594 28.6153 139.603 28.6616C139.758 29.5189 140.149 30.2 140.775 30.7046C141.49 31.2821 142.392 31.5702 143.479 31.5702C144.884 31.5702 146.184 31.038 147.379 29.9735C147.525 29.8434 147.757 29.871 147.87 30.0291L149.356 32.0996C149.403 32.164 149.423 32.2428 149.414 32.321C149.405 32.3991 149.366 32.4712 149.305 32.5236C148.576 33.1434 147.765 33.6664 146.894 34.0788C145.927 34.5383 144.789 34.7685 143.479 34.7685C141.969 34.7685 140.648 34.4699 139.52 33.8735C138.392 33.2772 137.516 32.4361 136.891 31.3501C136.267 30.2646 135.954 29.0079 135.954 27.5797C135.954 26.1521 136.257 24.8905 136.861 23.7947C137.465 22.6996 138.312 21.8487 139.4 21.242C140.488 20.6361 141.757 20.3325 143.208 20.3325C145.342 20.3325 147.005 20.9635 148.194 22.2249ZM73.0633 15.9983C73.0633 17.2085 72.0527 18.1897 70.8059 18.1897C69.559 18.1897 68.5484 17.2085 68.5484 15.9981C68.5484 14.7876 69.5592 13.8064 70.8059 13.8064C72.0527 13.8064 73.0633 14.7876 73.0633 15.9981V15.9983ZM20.9343 38.3141V24.2788C20.9343 24.0894 20.9929 23.9044 21.1025 23.7478C21.2121 23.5911 21.3677 23.47 21.549 23.4001L37.8093 17.2723C38.4485 17.0263 39.1418 17.4834 39.1418 18.151V32.1863C39.1418 32.3757 39.0832 32.5607 38.9736 32.7174C38.864 32.8741 38.7085 32.9952 38.5271 33.065L22.2668 39.1928C21.6276 39.4388 20.9343 38.9815 20.9343 38.3141ZM12.3115 27.2651L12.3115 27.2651L11.8215 27.495L1.63472 32.234C0.989202 32.5364 0.164795 32.0795 0.164795 31.3831V18.2098C0.164795 17.9578 0.297863 17.7403 0.476316 17.5767C0.47636 17.5766 0.476404 17.5766 0.476448 17.5765L0.476342 17.5764C0.540404 17.5146 0.611993 17.4606 0.689487 17.4157C0.696924 17.4114 0.704416 17.4072 0.711961 17.403C0.71565 17.401 0.719351 17.399 0.723065 17.397C0.814274 17.3438 0.920106 17.3052 1.03234 17.2838C1.1877 17.2541 1.35532 17.2572 1.51337 17.2997C1.54562 17.3084 1.57748 17.3187 1.60875 17.3307L17.0561 23.2733C17.8413 23.5757 17.903 24.6439 17.1372 25.0031C17.1372 25.0031 17.1372 25.0031 17.1372 25.0031V25.0029L12.3115 27.2651Z" fill="#0F68EA"/>
</svg>
