<svg width="100" height="50" viewBox="0 0 100 50" fill="none" xmlns="http://www.w3.org/2000/svg">
<path fill-rule="evenodd" clip-rule="evenodd" d="M81.3058 20.3684C81.6852 21.0229 81.8093 21.7675 81.8502 22.6047L81.9041 23.7205V31.5228L81.9591 32.6398C82.0692 34.4639 83.4145 35.8127 85.2526 35.9275L86.3638 35.9825V23.7205L86.4188 22.6047C86.4645 21.7769 86.5874 21.0182 86.9726 20.359C87.3651 19.6829 87.9286 19.122 88.6064 18.7325C89.2843 18.343 90.0527 18.1388 90.8345 18.1402C91.6163 18.1416 92.3839 18.3487 93.0604 18.7406C93.7368 19.1326 94.2983 19.6956 94.6883 20.3731C95.0676 21.0276 95.1859 21.7863 95.2316 22.6047L95.2866 23.717V31.5228L95.3416 32.6398C95.4564 34.4733 96.7911 35.8221 98.6352 35.9275L99.7463 35.9825V22.6047C99.7463 20.2391 98.8068 17.9704 97.1344 16.2973C95.462 14.6243 93.1937 13.6839 90.8281 13.683C89.562 13.6817 88.3102 13.9505 87.1563 14.4717C86.0024 14.9928 84.973 15.7542 84.1369 16.7049C83.3003 15.7545 82.2709 14.9933 81.1171 14.4721C79.9633 13.9508 78.7117 13.6814 77.4456 13.6818C75.5934 13.6818 73.8746 14.2438 72.4509 15.2144C71.5821 14.245 69.6386 13.6818 68.5228 13.6818V35.9825L69.6386 35.9275C71.5049 35.8045 72.8536 34.492 72.9262 32.6398L72.9859 31.5228V23.7205L73.041 22.6047C73.0878 21.7629 73.2049 21.0229 73.5854 20.3637C73.9782 19.688 74.5415 19.1272 75.2188 18.7373C75.8962 18.3473 76.664 18.1419 77.4456 18.1415C78.2278 18.1417 78.9962 18.3475 79.6737 18.7384C80.3512 19.1292 80.9141 19.6914 81.3058 20.3684ZM4.96467 35.9286L6.08046 35.9825H22.8057L22.7506 34.8702C22.5996 33.0367 21.3012 31.6973 19.4618 31.5779L18.346 31.5228H8.31205L21.6899 18.1403L21.6348 17.0292C21.5482 15.177 20.1947 13.8387 18.346 13.7369L17.2302 13.6865L0.505005 13.6818L0.560034 14.7976C0.706386 16.6136 2.02356 17.9811 3.8477 18.0865L4.96467 18.1415H14.9986L1.6208 31.524L1.67583 32.6398C1.78588 34.478 3.11243 35.8092 4.96467 35.9275V35.9286ZM64.1451 16.9461C65.1807 17.9815 66.0022 19.2107 66.5626 20.5636C67.1231 21.9165 67.4116 23.3666 67.4116 24.831C67.4116 26.2954 67.1231 27.7455 66.5626 29.0984C66.0022 30.4513 65.1807 31.6805 64.1451 32.7159C62.0528 34.8065 59.2161 35.9808 56.2584 35.9808C53.3007 35.9808 50.464 34.8065 48.3717 32.7159C44.0175 28.3616 44.0175 21.3004 48.3717 16.9461C49.4064 15.9111 50.6348 15.09 51.9868 14.5297C53.3388 13.9694 54.7879 13.6809 56.2514 13.6807C57.7172 13.6796 59.1689 13.9676 60.5234 14.5281C61.8779 15.0887 63.1086 15.9107 64.1451 16.9473V16.9461ZM60.9897 20.1038C62.2439 21.3589 62.9484 23.0607 62.9484 24.8351C62.9484 26.6095 62.2439 28.3112 60.9897 29.5664C59.7346 30.8206 58.0328 31.5251 56.2584 31.5251C54.484 31.5251 52.7823 30.8206 51.5271 29.5664C50.2729 28.3112 49.5684 26.6095 49.5684 24.8351C49.5684 23.0607 50.2729 21.3589 51.5271 20.1038C52.7823 18.8496 54.484 18.1451 56.2584 18.1451C58.0328 18.1451 59.7346 18.8496 60.9897 20.1038ZM32.849 13.6807C34.3125 13.681 35.7617 13.9697 37.1137 14.5302C38.4657 15.0907 39.6941 15.912 40.7286 16.9473C45.0841 21.3004 45.0841 28.3628 40.7286 32.7159C38.6364 34.8065 35.7997 35.9808 32.8419 35.9808C29.8842 35.9808 27.0476 34.8065 24.9553 32.7159C20.601 28.3616 20.601 21.3004 24.9553 16.9461C25.9899 15.9111 27.2183 15.09 28.5703 14.5297C29.9223 13.9694 31.3714 13.6809 32.8349 13.6807H32.849ZM37.5732 20.1015C38.8278 21.3567 39.5325 23.0587 39.5325 24.8333C39.5325 26.608 38.8278 28.31 37.5732 29.5652C36.3181 30.8194 34.6163 31.5239 32.8419 31.5239C31.0676 31.5239 29.3658 30.8194 28.1107 29.5652C26.8565 28.3101 26.1519 26.6083 26.1519 24.8339C26.1519 23.0595 26.8565 21.3578 28.1107 20.1026C29.3658 18.8484 31.0676 18.1439 32.8419 18.1439C34.6163 18.1439 36.3181 18.8484 37.5732 20.1026V20.1015Z" fill="#0F68EA"/>
</svg>
