<svg width="150" height="49" viewBox="0 0 150 49" fill="none" xmlns="http://www.w3.org/2000/svg">
<g clip-path="url(#clip0_229_6586)">
<path d="M11.1174 12.4355C17.2682 12.4355 22.2782 17.4455 22.2782 23.646C22.2782 29.8464 17.2682 34.8564 11.1174 34.8564C4.96652 34.8564 -0.043457 29.896 -0.043457 23.646C-0.043457 17.3959 4.96652 12.4355 11.1174 12.4355ZM98.6184 12.1875V31.8306C98.6184 33.3187 99.2136 33.7155 100.355 34.0131L100.404 34.2612H94.1044V31.8306C93.3604 33.6163 91.8227 34.7076 89.8385 34.7076C86.4655 34.7076 84.2333 31.6322 84.2333 27.0686C84.2333 24.4892 84.9774 22.3067 86.3663 20.6697C87.7056 19.0824 89.5409 18.2392 91.5747 18.2392C92.5667 18.2392 93.41 18.4376 94.1044 18.884V16.2054C94.1044 15.6102 93.9556 15.2133 93.658 14.9157C93.2612 14.5685 92.6163 14.4197 91.6243 14.5189H91.5747V14.2709L98.6184 12.1875ZM122.527 18.2888V31.8306C122.527 33.3187 123.123 33.7155 124.264 34.0131V34.2612H117.964V31.781C117.22 33.5667 115.583 34.7076 113.748 34.7076C111.565 34.7076 110.176 33.7155 109.63 31.781L109.531 31.2849C109.432 30.7889 109.382 30.2929 109.382 29.7968V22.5547C109.382 20.9674 109.035 20.4713 107.646 20.3721H107.597V20.1241L113.896 18.2888V29.6976C113.896 31.3841 114.64 32.3266 116.029 32.3266C116.873 32.3266 117.567 31.8802 117.964 31.1361V22.5547C117.964 20.9178 117.666 20.4217 116.525 20.3225H116.476V20.0745L122.527 18.2888ZM77.0408 18.2392C78.7273 18.2392 80.3642 18.8344 81.4555 19.8761C82.6956 21.0666 83.3404 22.8027 83.39 25.0845V25.1341H73.9157C73.7173 28.4079 75.7511 31.0865 78.4297 31.1857C80.3642 31.3345 82.0507 30.1441 82.9932 28.2095L83.2412 28.3087C82.6956 31.9298 80.5626 34.658 76.8423 34.658C72.626 34.658 70.245 31.1361 70.1458 26.7214V25.5805C70.3443 23.646 70.9395 21.9098 71.9812 20.6201C72.626 19.8265 73.3701 19.2312 74.2629 18.8344C75.007 18.4376 76.0983 18.2392 76.9911 18.2392H77.0408ZM142.667 18.2888C145.345 18.2888 146.982 19.9753 146.982 22.8523V32.0786C146.982 33.1699 147.478 33.7155 148.718 34.0131H148.768V34.2612H142.418V23.0011C142.418 21.2154 141.774 20.3225 140.434 20.3225C139.343 20.3225 138.797 21.1162 138.5 21.8106C138.549 22.1579 138.599 22.5051 138.599 22.8523V32.2274C138.599 33.3683 138.946 33.7651 139.938 34.0131H139.988V34.2612H134.085V23.0011C134.085 21.2154 133.391 20.3225 132.101 20.3225C131.059 20.3225 130.514 21.0666 130.266 21.6618V32.277C130.266 33.4179 130.613 33.8147 131.605 34.0627H131.654V34.3108H125.752V22.5051C125.752 20.9178 125.355 20.4217 124.015 20.3225H123.966V20.0745L130.266 18.3384V20.9674C130.91 19.2808 132.399 18.2888 134.283 18.2888C136.416 18.2888 137.905 19.3304 138.401 21.2154C139.045 19.4296 140.682 18.2888 142.667 18.2888ZM52.1893 13.1796L58.0921 27.019L63.995 13.1796H70.3442L70.2946 13.4276L70.2226 13.4436C69.1287 13.6929 68.5585 14.102 68.5585 15.4613V32.3266C68.6577 33.4179 69.253 33.7651 70.2946 34.0131H70.3442V34.2612H62.2588V34.0131H62.3084C63.3501 33.7651 63.9454 33.4179 64.0446 32.3266V15.9078L56.2568 34.2116H55.8104L48.221 16.4038V31.9298C48.221 33.3187 48.8162 33.7155 49.9571 33.9635H50.0067V34.2116H45.344V33.9635H45.3936C46.5345 33.7155 47.1297 33.3187 47.1297 31.9298V15.4613C47.1297 14.0724 46.5345 13.6756 45.3936 13.4276H45.344V13.1796H52.1893ZM106.307 18.2888V31.8306L106.308 31.9222C106.332 33.3352 106.926 33.7217 108.043 34.0131L108.093 34.2612H101.793V22.5547C101.793 20.9674 101.446 20.4713 100.057 20.3721H100.007V20.1241L106.307 18.2888ZM28.9747 13.0804C32.0006 13.0804 34.5304 17.8423 34.5304 23.646C34.5304 29.4992 32.0502 34.2116 28.9747 34.2116C25.8993 34.2116 23.4191 29.4992 23.4191 23.646C23.4191 17.7927 25.8993 13.0804 28.9747 13.0804ZM37.5066 14.1716C38.6475 14.1716 39.4907 18.4376 39.4907 23.646C39.4907 28.8544 38.5979 33.1203 37.5066 33.1203C36.4262 33.1203 35.5403 28.9392 35.5227 23.8019L35.5224 23.646C35.5224 18.4376 36.4153 14.1716 37.5066 14.1716ZM92.3187 19.132C90.3346 19.132 89.0945 21.761 89.0945 25.8285C89.0945 27.7631 89.4417 29.4496 90.0369 30.5905C90.5826 31.6818 91.3762 32.277 92.2691 32.277C93.162 32.277 93.8068 31.8802 94.1044 31.1361V20.2233C93.7572 19.5289 93.1124 19.132 92.3187 19.132ZM76.9911 19.1816C75.2054 19.1816 74.1637 21.3146 74.0149 24.2908V24.3404H79.4217C79.5209 22.009 79.1241 20.4713 78.3801 19.7273C77.9832 19.38 77.5368 19.1816 76.9911 19.1816ZM103.876 12.3363C105.315 12.3363 106.406 13.4276 106.406 14.8661C106.406 16.3046 105.315 17.3959 103.876 17.3959C102.438 17.3959 101.347 16.3046 101.347 14.8661C101.347 13.4276 102.438 12.3363 103.876 12.3363Z" fill="#0F68EA"/>
</g>
<defs>
<clipPath id="clip0_229_6586">
<rect width="150" height="49" fill="white"/>
</clipPath>
</defs>
</svg>
