<svg width="100" height="50" viewBox="0 0 100 50" fill="none" xmlns="http://www.w3.org/2000/svg">
<g clip-path="url(#clip0_229_6584)">
<path d="M-0.216187 7.05078V34.7918L3.33304 34.8056V21.5956H11.8648V18.1004H3.31939V10.5322H14.4448V7.05078H-0.216187ZM20.8061 12.6926C21.4216 12.6926 22.0119 12.4461 22.4471 12.0074C22.8823 11.5687 23.1268 10.9737 23.1268 10.3533C23.1268 9.73287 22.8823 9.13787 22.4471 8.69917C22.0119 8.26047 21.4216 8.01401 20.8061 8.01401C20.1907 8.01401 19.6004 8.26047 19.1652 8.69917C18.73 9.13787 18.4855 9.73287 18.4855 10.3533C18.4855 10.9737 18.73 11.5687 19.1652 12.0074C19.6004 12.4461 20.1907 12.6926 20.8061 12.6926ZM19.0179 16.174V34.8056H22.5671V16.174H19.0179Z" fill="#0F68EA"/>
<path fill-rule="evenodd" clip-rule="evenodd" d="M35.6855 15.6373C30.9896 15.6373 27.7134 19.6416 27.7134 24.4027C27.7134 29.1638 30.9896 33.1681 35.6855 33.1681C37.8424 33.1681 39.617 32.3424 40.9138 30.9664V33.4433C40.9228 34.1834 40.7862 34.9179 40.5119 35.6045C40.2376 36.291 39.831 36.9159 39.3156 37.4431C38.8003 37.9703 38.1864 38.3893 37.5094 38.6758C36.8324 38.9624 36.1058 39.1108 35.3715 39.1126C34.2385 39.1126 33.1192 38.6722 32.2319 38.0393L30.4572 41.1354C31.8295 42.0295 33.4156 42.5337 35.0484 42.5948C36.6812 42.6559 38.3001 42.2716 39.7343 41.4826C41.1685 40.6935 42.3649 39.5288 43.1971 38.1114C44.0294 36.6941 44.4667 35.0766 44.463 33.4295V16.1877H40.9138V17.8527C39.617 16.4767 37.8424 15.651 35.6855 15.651V15.6373ZM31.249 24.4027C31.249 21.4442 33.4877 19.1187 36.0814 19.1187C38.6751 19.1187 40.9001 21.4579 40.9001 24.4027C40.9001 27.3612 38.6614 29.6729 36.0814 29.6729C33.4877 29.6729 31.249 27.3612 31.249 24.4027Z" fill="#0F68EA"/>
<path d="M57.2129 19.1188C56.1978 19.1368 55.2306 19.557 54.5204 20.2883C53.8103 21.0196 53.4142 22.0033 53.418 23.0267V34.8057H49.8687V16.174H53.418V17.8803C53.949 17.1709 54.6387 16.5979 55.4311 16.2082C56.2234 15.8184 57.0958 15.6228 57.9773 15.6374C60.4618 15.6374 62.3729 16.8758 63.465 18.7747C64.0742 17.8228 64.9081 17.0379 65.892 16.4904C66.8758 15.9429 67.979 15.6498 69.1028 15.6374C73.1298 15.6374 75.6552 18.9123 75.6552 22.9717V34.8057H72.1333V23.013C72.137 21.9896 71.741 21.0058 71.0308 20.2745C70.3206 19.5432 69.3534 19.1231 68.3383 19.105C67.3233 19.1231 66.356 19.5432 65.6459 20.2745C64.9357 21.0058 64.5397 21.9896 64.5434 23.013V34.7919H60.9942V23.013C60.998 21.9919 60.6038 21.0102 59.8966 20.2793C59.1893 19.5483 58.2256 19.1266 57.2129 19.105V19.1188Z" fill="#0F68EA"/>
<path fill-rule="evenodd" clip-rule="evenodd" d="M94.5344 18.2931C93.7285 17.4459 92.7595 16.7735 91.6868 16.3168C90.6142 15.8602 89.4604 15.629 88.296 15.6373C83.0267 15.6373 79.2864 20.1232 79.2864 25.4898C79.2864 30.8564 83.0267 35.3423 88.296 35.3423C89.46 35.3482 90.6131 35.1159 91.6854 34.6594C92.7578 34.2029 93.727 33.5317 94.5344 32.6865V34.8056H98.07V16.174H94.5208V18.2931H94.5344ZM82.822 25.4898C82.822 21.9396 85.5248 19.1187 88.6782 19.1187C91.8179 19.1187 94.5344 21.9396 94.5344 25.4898C94.5344 29.04 91.8315 31.8471 88.6782 31.8471C85.5385 31.8471 82.822 29.04 82.822 25.4898Z" fill="#0F68EA"/>
</g>
<defs>
<clipPath id="clip0_229_6584">
<rect width="100" height="50" fill="white"/>
</clipPath>
</defs>
</svg>
