<svg width="150" height="51" viewBox="0 0 150 51" fill="none" xmlns="http://www.w3.org/2000/svg">
<g clip-path="url(#clip0_229_6588)">
<path d="M21.7643 3.74219C9.40426 3.74219 -0.615967 13.7621 -0.615967 26.1221C-0.615967 38.4826 9.40426 48.5018 21.7643 48.5018C34.1256 48.5018 44.1447 38.4826 44.1447 26.1221C44.1447 13.7629 34.1256 3.74326 21.764 3.74326L21.7643 3.74219ZM32.0277 36.0205C31.6268 36.6779 30.7663 36.8864 30.1088 36.4828C24.8542 33.2732 18.2392 32.5463 10.4489 34.3261C9.69823 34.4972 8.94994 34.0268 8.7789 33.2758C8.60706 32.5249 9.07555 31.7766 9.82812 31.6055C18.3534 29.6578 25.6661 30.4965 31.5653 34.1016C32.2228 34.5052 32.4312 35.3631 32.0277 36.0205ZM34.767 29.9267C34.2619 30.7477 33.1875 31.0069 32.3671 30.5018C26.3513 26.8041 17.1812 25.7333 10.0657 27.8932C9.14289 28.1719 8.16824 27.6519 7.88816 26.7307C7.61022 25.8078 8.13055 24.8351 9.05176 24.5544C17.1796 22.0883 27.284 23.2829 34.1924 27.5281C35.0128 28.0332 35.2721 29.1076 34.767 29.9269V29.9267ZM35.0022 23.5811C27.7891 19.2969 15.8885 18.9029 9.00179 20.9931C7.89591 21.3285 6.72643 20.7042 6.3913 19.5983C6.05617 18.4919 6.67993 17.3232 7.7866 16.987C15.6921 14.5871 28.8341 15.0508 37.1385 19.9808C38.1354 20.5711 38.4614 21.8558 37.8708 22.8491C37.2829 23.8438 35.9947 24.1717 35.0032 23.5811H35.0022ZM60.2732 24.4021C56.4088 23.4806 55.722 22.8339 55.722 21.4749C55.722 20.1911 56.9299 19.3271 58.7285 19.3271C60.471 19.3271 62.1974 19.9832 64.0093 21.3338C64.0628 21.3747 64.1323 21.391 64.1991 21.3803C64.2686 21.3702 64.3274 21.333 64.3675 21.2772L66.2542 18.6175C66.3317 18.5079 66.3104 18.3569 66.2061 18.2733C64.0494 16.5434 61.6228 15.7024 58.7846 15.7024C54.6129 15.7024 51.6972 18.2062 51.6972 21.7887C51.6972 25.6304 54.212 26.9907 58.5575 28.0407C62.2535 28.8924 62.8789 29.606 62.8789 30.8813C62.8789 32.295 61.6175 33.1743 59.5864 33.1743C57.3308 33.1743 55.4895 32.4126 53.4316 30.6328C53.3809 30.5873 53.3114 30.5686 53.2472 30.5713C53.1777 30.5766 53.1163 30.6087 53.0735 30.6595L50.9569 33.177C50.8687 33.2839 50.8794 33.4389 50.981 33.5297C53.3755 35.6677 56.3206 36.7955 59.5009 36.7955C63.996 36.7955 66.901 34.3395 66.901 30.5365C66.909 27.3277 64.9875 25.5505 60.2812 24.4056L60.2732 24.4021ZM77.0725 20.5911C75.1242 20.5911 73.5261 21.3587 72.2059 22.9314V21.1612C72.2059 21.0214 72.0936 20.9076 71.9547 20.9076H68.4938C68.3548 20.9076 68.2426 21.0214 68.2426 21.1612V40.831C68.2426 40.9699 68.3548 41.0849 68.4938 41.0849H71.9547C72.0936 41.0849 72.2059 40.9699 72.2059 40.831V34.6228C73.5261 36.1007 75.1242 36.8249 77.0725 36.8249C80.6937 36.8249 84.3603 34.0375 84.3603 28.7088C84.3657 23.3791 80.699 20.5909 77.0751 20.5909L77.0725 20.5911ZM80.3356 28.7088C80.3356 31.4211 78.6653 33.3159 76.2707 33.3159C73.9056 33.3159 72.1204 31.3356 72.1204 28.7088C72.1204 26.0818 73.9056 24.102 76.2707 24.102C78.6252 24.1017 80.3356 26.0387 80.3356 28.7086V28.7088ZM93.7541 20.5911C89.0907 20.5911 85.4374 24.1819 85.4374 28.7668C85.4374 33.3026 89.0666 36.8543 93.698 36.8543C98.3775 36.8543 102.042 33.2758 102.042 28.7088C102.042 24.1573 98.4016 20.5917 93.7541 20.5917V20.5911ZM93.7541 33.3427C91.2741 33.3427 89.4033 31.349 89.4033 28.7075C89.4033 26.054 91.2099 24.1285 93.698 24.1285C96.1941 24.1285 98.0756 26.1213 98.0756 28.7655C98.0756 31.4185 96.2583 33.3427 93.7541 33.3427ZM111.999 20.9076H108.191V17.0148C108.191 16.8753 108.079 16.7615 107.94 16.7615H104.479C104.34 16.7615 104.225 16.8753 104.225 17.0148V20.9076H102.563C102.424 20.9076 102.311 21.0214 102.311 21.1612V24.1349C102.311 24.2744 102.424 24.3885 102.563 24.3885H104.225V32.0839C104.225 35.192 105.772 36.7688 108.827 36.7688C110.067 36.7688 111.096 36.5122 112.066 35.9617C112.146 35.9189 112.194 35.8334 112.194 35.7425V32.9097C112.194 32.8242 112.149 32.7413 112.074 32.6959C111.999 32.6478 111.906 32.6451 111.828 32.6852C111.163 33.0193 110.519 33.1743 109.797 33.1743C108.688 33.1743 108.191 32.6692 108.191 31.5414V24.3898H111.999C112.138 24.3898 112.25 24.276 112.25 24.1362V21.1628C112.256 21.023 112.144 20.9092 112.002 20.9092L111.999 20.9076ZM125.265 20.9228V20.4447C125.265 19.0382 125.805 18.4109 127.013 18.4109C127.735 18.4109 128.315 18.5542 128.964 18.7707C129.044 18.7958 129.127 18.7832 129.191 18.7354C129.258 18.6875 129.296 18.6108 129.296 18.5296V15.6139C129.296 15.5025 129.226 15.4039 129.117 15.371C128.432 15.1671 127.556 14.9578 126.241 14.9578C123.047 14.9578 121.356 16.7575 121.356 20.1603V20.8926H119.693C119.554 20.8926 119.439 21.0065 119.439 21.146V24.1349C119.439 24.2744 119.554 24.3885 119.693 24.3885H121.356V36.2557C121.356 36.3973 121.471 36.5095 121.609 36.5095H125.068C125.209 36.5095 125.322 36.3973 125.322 36.2557V24.3893H128.553L133.502 36.2557C132.941 37.501 132.388 37.7496 131.634 37.7496C131.025 37.7496 130.381 37.5679 129.726 37.2071C129.664 37.175 129.59 37.1697 129.525 37.1884C129.459 37.2124 129.402 37.2605 129.376 37.3247L128.203 39.8983C128.146 40.0212 128.195 40.1628 128.312 40.227C129.536 40.8898 130.64 41.173 132.005 41.173C134.56 41.173 135.974 39.9811 137.217 36.7795L143.219 21.2692C143.251 21.1911 143.241 21.1029 143.193 21.0337C143.147 20.965 143.07 20.9236 142.987 20.9236H139.384C139.275 20.9236 139.178 20.9923 139.144 21.0936L135.453 31.6323L131.412 21.0866C131.375 20.9885 131.281 20.9236 131.177 20.9236H125.265V20.9228ZM117.574 20.9076H114.113C113.974 20.9076 113.859 21.0214 113.859 21.1612V36.2557C113.859 36.3973 113.974 36.5095 114.113 36.5095H117.574C117.713 36.5095 117.828 36.3973 117.828 36.2557V21.1623C117.828 21.0225 117.716 20.9086 117.574 20.9086V20.9076ZM115.864 14.0342C114.493 14.0342 113.381 15.1438 113.381 16.5145C113.381 17.8861 114.493 18.997 115.864 18.997C117.235 18.997 118.344 17.8861 118.344 16.5145C118.344 15.1441 117.232 14.0342 115.864 14.0342ZM146.175 25.7611C144.807 25.7611 143.74 24.6613 143.74 23.3259C143.74 21.9905 144.82 20.8782 146.188 20.8782C147.557 20.8782 148.623 21.9776 148.623 23.312C148.623 24.6474 147.543 25.7611 146.175 25.7611ZM146.188 21.1203C144.94 21.1203 143.997 22.1118 143.997 23.3259C143.997 24.5395 144.935 25.5176 146.175 25.5176C147.423 25.5176 148.366 24.5269 148.366 23.312C148.366 22.0984 147.428 21.1203 146.188 21.1203ZM146.728 23.5624L147.418 24.5267H146.835L146.215 23.6421H145.683V24.5267H145.197V21.9707H146.335C146.931 21.9707 147.322 22.2745 147.322 22.7861C147.324 23.2051 147.081 23.4611 146.731 23.5624H146.728ZM146.317 22.4092H145.683V23.2177H146.317C146.632 23.2177 146.822 23.0629 146.822 22.8131C146.822 22.5501 146.632 22.4092 146.317 22.4092Z" fill="#0F68EA"/>
</g>
<defs>
<clipPath id="clip0_229_6588">
<rect width="150" height="51" fill="white"/>
</clipPath>
</defs>
</svg>
