<svg width="176" height="44" viewBox="0 0 176 44" fill="none" xmlns="http://www.w3.org/2000/svg">
<g clip-path="url(#clip0_720_249)">
<path d="M69.6191 16.32H75.1419V33.6914H69.6191V16.32Z" fill="white"/>
<mask id="mask0_720_249" style="mask-type:luminance" maskUnits="userSpaceOnUse" x="0" y="0" width="176" height="44">
<path d="M0.739258 0.897784H175.589V43.6875H0.739258V0.897784Z" fill="white"/>
</mask>
<g mask="url(#mask0_720_249)">
<path d="M76.2949 16.32H81.6143V18.695H81.7158C83.0033 16.8288 84.6635 15.8111 87.0691 15.8111C90.8637 15.8111 93.0998 18.5254 93.0998 22.3932V33.6914H87.5773V23.5129C87.5773 21.6807 86.6625 20.4252 84.8668 20.4252C83.0373 20.4252 81.8175 21.9521 81.8175 24.0896V33.6914H76.2949V16.32Z" fill="white"/>
<path d="M75.6929 11.675C75.6929 9.8427 74.2096 8.35756 72.3801 8.35756C70.5506 8.35756 69.0674 9.8427 69.0674 11.675C69.0674 13.507 70.5506 14.9922 72.3801 14.9922C74.2096 14.9922 75.6929 13.507 75.6929 11.675Z" fill="white"/>
<path d="M131.941 16.0692C131.783 16.055 131.603 16.0487 131.391 16.0487C129.291 16.0487 127.868 16.9647 126.648 19.0344H126.546V16.3202H121.261V33.6914H126.783V25.8879C126.783 22.2722 128.783 20.5967 131.941 20.8891V16.0692Z" fill="white"/>
<path d="M159.042 22.7325C156.84 22.3255 154.875 22.1559 154.875 20.9345C154.875 19.8486 155.925 19.3398 157.28 19.3398C158.805 19.3398 159.855 19.8148 160.058 21.3756H165.141C164.87 17.9488 162.227 15.8112 157.314 15.8112C153.214 15.8112 149.826 17.7112 149.826 21.3756C149.826 25.4467 153.045 26.2611 156.061 26.7701C158.364 27.1773 160.465 27.3469 160.465 28.9076C160.465 30.0273 159.415 30.638 157.755 30.638C156.089 30.638 154.987 29.9323 154.65 28.5006H149.387C149.775 32.0716 152.905 34.2344 157.788 34.2344C162.328 34.2344 165.683 32.2666 165.683 28.4667C165.683 24.0218 162.091 23.2415 159.042 22.7325Z" fill="white"/>
<path d="M140.508 19.7475C142.304 19.7475 143.591 21.0707 143.794 23.1405H136.95C137.323 21.0707 138.407 19.7475 140.508 19.7475ZM140.813 30.2313C138.543 30.2313 137.255 28.7725 136.916 26.4314H149.385C149.419 22.903 148.402 19.8832 146.335 17.9834C144.845 16.6262 142.88 15.8119 140.406 15.8119C135.121 15.8119 131.496 19.7814 131.496 24.9726C131.496 30.2313 135.019 34.2012 140.745 34.2012C142.947 34.2012 144.709 33.6244 146.166 32.6065C147.691 31.5547 148.707 30.0619 149.08 28.5012H143.693C143.218 29.5869 142.27 30.2313 140.813 30.2313Z" fill="white"/>
<path d="M175.409 29.5966C175.154 29.6067 174.81 29.6216 174.494 29.6216C173.308 29.6216 172.563 29.2822 172.563 27.9251V19.7822H175.409V16.3216H172.563V10.8251H167.176V16.3216H165.481V19.7822H167.176V29.1126C167.176 32.8449 169.48 33.8965 172.699 33.8965C173.927 33.8965 174.855 33.8044 175.409 33.6961V29.5966Z" fill="white"/>
<path d="M102.962 29.6045C102.741 29.6131 102.487 29.6216 102.249 29.6216C101.064 29.6216 100.318 29.2822 100.318 27.9251V19.7822H102.962V16.3216H100.318V10.8251H94.9311V16.3216H93.1348V19.7822H94.9311V29.1126C94.9311 32.8449 97.2349 33.8965 100.454 33.8965C101.543 33.8965 102.395 33.8239 102.962 33.732V29.6045Z" fill="white"/>
<path d="M114.991 23.1405C114.788 21.0709 113.5 19.7475 111.705 19.7475C109.604 19.7475 108.52 21.0709 108.147 23.1405H114.991ZM102.692 24.9726C102.692 19.7816 106.318 15.812 111.603 15.812C114.076 15.812 116.041 16.6262 117.532 17.9834C119.599 19.8834 120.615 22.903 120.581 26.4316H108.113C108.452 28.7725 109.74 30.2315 112.01 30.2315C113.466 30.2315 114.415 29.5869 114.889 28.5012H120.277C119.904 30.0619 118.887 31.5547 117.363 32.6067C115.906 33.6244 114.144 34.2012 111.942 34.2012C106.216 34.2012 102.692 30.2315 102.692 24.9726Z" fill="white"/>
<path d="M60.0276 20.8326C62.1961 20.8326 63.4158 19.5432 63.4158 17.6091C63.4158 15.6754 62.1621 14.4879 60.0276 14.4879H55.7923V20.8326H60.0276ZM50.2012 9.43254H59.7914C62.7389 9.43254 64.9074 10.2467 66.3981 11.6718C67.9567 13.1306 68.8376 15.2004 68.8376 17.6432C68.8376 22.2914 65.6189 25.5826 60.6383 25.5826H55.7923V33.6914H50.2012V9.43254Z" fill="white"/>
<path d="M42.6199 22.2919C42.6199 33.8235 33.2847 43.1719 21.7692 43.1719C10.2537 43.1719 0.918457 33.8235 0.918457 22.2919C0.918457 10.76 10.2537 1.41186 21.7692 1.41186C33.2847 1.41186 42.6199 10.76 42.6199 22.2919Z" fill="#8B8B8B"/>
<path d="M21.7692 1.41186C10.2537 1.41186 0.918457 10.7602 0.918457 22.2919C0.918457 31.1377 6.41435 38.6997 14.1706 41.742C13.9885 40.09 13.8237 37.5493 14.2429 35.7458C14.6219 34.1162 16.6879 25.3671 16.6879 25.3671C16.6879 25.3671 16.0643 24.1162 16.0643 22.267C16.0643 19.3637 17.7447 17.1961 19.8371 17.1961C21.616 17.1961 22.4753 18.5336 22.4753 20.1373C22.4753 21.9288 21.3363 24.6073 20.7485 27.0894C20.2572 29.1677 21.7892 30.8625 23.8361 30.8625C27.542 30.8625 30.3907 26.9494 30.3907 21.301C30.3907 16.3016 26.8034 12.8062 21.6812 12.8062C15.7484 12.8062 12.2661 17.2624 12.2661 21.8676C12.2661 23.6622 12.9564 25.5865 13.8179 26.6326C13.9883 26.8394 14.0132 27.0205 13.9625 27.2315C13.8042 27.891 13.4524 29.3092 13.3834 29.5995C13.2925 29.9817 13.0812 30.0628 12.686 29.8787C10.0819 28.6648 8.45376 24.8521 8.45376 21.7897C8.45376 15.2032 13.2326 9.15423 22.2307 9.15423C29.4638 9.15423 35.0848 14.3157 35.0848 21.2136C35.0848 28.4096 30.5539 34.2009 24.2651 34.2009C22.1522 34.2009 20.166 33.1017 19.4861 31.8033C19.4861 31.8033 18.4405 35.79 18.1871 36.7669C17.7164 38.5805 16.4456 40.8539 15.5956 42.2408C17.5465 42.8456 19.6197 43.1719 21.7692 43.1719C33.2848 43.1719 42.6201 33.8235 42.6201 22.2919C42.6201 10.7602 33.2848 1.41186 21.7692 1.41186Z" fill="white"/>
</g>
</g>
<defs>
<clipPath id="clip0_720_249">
<rect width="174.85" height="42.7897" fill="white" transform="translate(0.739746 0.896484)"/>
</clipPath>
</defs>
</svg>
