<svg width="18" height="28" viewBox="0 0 18 18" fill="none" xmlns="http://www.w3.org/2000/svg">
<path d="M9 0.140625C4.18359 0.140625 0.28125 4.04297 0.28125 8.85938C0.28125 13.6758 4.18359 17.5781 9 17.5781C13.8164 17.5781 17.7188 13.6758 17.7188 8.85938C17.7188 4.04297 13.8164 0.140625 9 0.140625ZM14.0625 9.84375C14.0625 10.0898 13.8516 10.2656 13.6406 10.2656H10.4062V13.5C10.4062 13.7461 10.1953 13.9219 9.98438 13.9219H8.01562C7.76953 13.9219 7.59375 13.7461 7.59375 13.5V10.2656H4.35938C4.11328 10.2656 3.9375 10.0898 3.9375 9.84375V7.875C3.9375 7.66406 4.11328 7.45312 4.35938 7.45312H7.59375V4.21875C7.59375 4.00781 7.76953 3.79688 8.01562 3.79688H9.98438C10.1953 3.79688 10.4062 4.00781 10.4062 4.21875V7.45312H13.6406C13.8516 7.45312 14.0625 7.66406 14.0625 7.875V9.84375Z" fill="black"/>
</svg>
