<svg width="176" height="83" viewBox="0 0 176 83" fill="none" xmlns="http://www.w3.org/2000/svg">
<path d="M145.184 36.7689C146.894 36.7689 148.28 35.3839 148.28 33.6755C148.28 31.967 146.894 30.582 145.184 30.582C143.474 30.582 142.088 31.967 142.088 33.6755C142.088 35.3839 143.474 36.7689 145.184 36.7689Z" fill="white"/>
<path d="M100.96 46.8673C102.479 46.8673 103.356 45.7292 103.297 44.6202C103.268 44.0365 103.21 43.6572 103.151 43.3653C102.216 39.338 98.945 36.3613 95.0601 36.3613C90.4449 36.3613 86.7061 40.5345 86.7061 45.6708C86.7061 50.8071 90.4449 54.9803 95.0601 54.9803C97.9518 54.9803 100.026 53.9297 101.515 52.2663C102.246 51.4491 102.1 50.1942 101.223 49.5814C100.493 49.0853 99.5876 49.2604 98.9158 49.8149C98.2731 50.3693 97.0463 51.4783 95.0601 51.4783C92.7233 51.4783 90.737 49.4647 90.2989 46.809H100.96V46.8673ZM95.0309 39.8925C97.134 39.8925 98.945 41.5268 99.6168 43.7739H90.4449C91.1167 41.4976 92.9277 39.8925 95.0309 39.8925Z" fill="white"/>
<path d="M86.8814 38.2002C86.8814 37.3247 86.2388 36.6243 85.4209 36.4784C82.8797 36.099 80.4845 37.0329 79.1116 38.7547V38.5212C79.1116 37.4414 78.2353 36.7702 77.359 36.7702C76.3951 36.7702 75.6064 37.5582 75.6064 38.5212V52.8211C75.6064 53.7549 76.3075 54.5721 77.2422 54.6304C78.2645 54.6888 79.1116 53.9008 79.1116 52.8794V45.496C79.1116 42.2275 81.5652 39.5426 84.9536 39.922C85.0704 39.922 85.1873 39.922 85.3041 39.922C86.1804 39.8637 86.8814 39.1049 86.8814 38.2002Z" fill="white"/>
<path d="M146.937 40.0655C146.937 39.1024 146.148 38.3145 145.184 38.3145C144.22 38.3145 143.432 39.1024 143.432 40.0655C143.432 40.1238 143.432 52.3225 143.432 52.8769C143.432 53.84 144.22 54.6279 145.184 54.6279C146.148 54.6279 146.937 53.84 146.937 52.8769C146.937 52.3516 146.937 40.153 146.937 40.0655Z" fill="white"/>
<path d="M120.882 30.378C120.882 29.4149 120.093 28.627 119.129 28.627C118.165 28.627 117.377 29.4149 117.377 30.378V38.1699C116.179 36.9734 114.69 36.3897 112.908 36.3897C108.293 36.3897 104.554 40.5629 104.554 45.6992C104.554 50.8355 108.293 55.0087 112.908 55.0087C114.69 55.0087 116.208 54.3959 117.406 53.1993C117.552 54.0165 118.282 54.6293 119.129 54.6293C120.093 54.6293 120.882 53.8414 120.882 52.8783V30.378ZM112.937 51.5359C110.25 51.5359 108.088 48.9386 108.088 45.6992C108.088 42.489 110.25 39.8625 112.937 39.8625C115.624 39.8625 117.786 42.4599 117.786 45.6992C117.786 48.9386 115.595 51.5359 112.937 51.5359Z" fill="white"/>
<path d="M139.167 30.378C139.167 29.4149 138.378 28.627 137.415 28.627C136.451 28.627 135.662 29.4149 135.662 30.378V38.1699C134.464 36.9734 132.975 36.3897 131.193 36.3897C126.578 36.3897 122.839 40.5629 122.839 45.6992C122.839 50.8355 126.578 55.0087 131.193 55.0087C132.975 55.0087 134.494 54.3959 135.691 53.1993C135.837 54.0165 136.567 54.6293 137.415 54.6293C138.378 54.6293 139.167 53.8414 139.167 52.8783V30.378ZM131.193 51.5359C128.506 51.5359 126.344 48.9386 126.344 45.6992C126.344 42.489 128.506 39.8625 131.193 39.8625C133.88 39.8625 136.042 42.4599 136.042 45.6992C136.042 48.9386 133.88 51.5359 131.193 51.5359Z" fill="white"/>
<path d="M155.817 52.9081V39.8923H157.365C158.183 39.8923 158.913 39.2794 158.971 38.4331C159.03 37.5284 158.3 36.7697 157.423 36.7697H155.817V34.3183C155.817 33.3844 155.116 32.5673 154.181 32.5089C153.159 32.4505 152.312 33.2385 152.312 34.2599V36.7989H150.851C150.033 36.7989 149.303 37.4117 149.244 38.258C149.186 39.1627 149.916 39.9215 150.793 39.9215H152.282V52.9373C152.282 53.9003 153.071 54.6883 154.035 54.6883C155.057 54.6299 155.817 53.8711 155.817 52.9081Z" fill="white"/>
<path d="M41.3138 65.7492C54.8325 65.7492 65.7916 54.8 65.7916 41.2935C65.7916 27.7871 54.8325 16.8379 41.3138 16.8379C27.795 16.8379 16.8359 27.7871 16.8359 41.2935C16.8359 54.8 27.795 65.7492 41.3138 65.7492Z" fill="white"/>
<path d="M57.6421 41.2922C57.6421 39.3077 56.0356 37.7318 54.0785 37.7318C53.1146 37.7318 52.2383 38.1112 51.5957 38.724C49.1421 36.973 45.7829 35.8349 42.0441 35.689L43.6798 28.0429L48.996 29.1811C49.0544 30.5235 50.1644 31.6033 51.5373 31.6033C52.9393 31.6033 54.0785 30.4651 54.0785 29.0643C54.0785 27.6635 52.9393 26.5254 51.5373 26.5254C50.5441 26.5254 49.6678 27.1091 49.2589 27.9554L43.3293 26.7005C43.154 26.6713 42.9788 26.7005 42.8619 26.788C42.7159 26.8756 42.6283 27.0215 42.599 27.1966L40.788 35.7181C36.9908 35.8349 33.5732 36.973 31.0904 38.7532C30.4478 38.1404 29.5715 37.761 28.6075 37.761C26.6213 37.761 25.0439 39.3661 25.0439 41.3213C25.0439 42.7805 25.9202 44.0062 27.1471 44.5607C27.0886 44.9109 27.0594 45.2611 27.0594 45.6405C27.0594 51.127 33.4564 55.592 41.343 55.592C49.2297 55.592 55.6266 51.1561 55.6266 45.6405C55.6266 45.2903 55.5974 44.9109 55.539 44.5607C56.7658 44.0062 57.6421 42.7513 57.6421 41.2922ZM33.1643 43.8311C33.1643 42.4303 34.3035 41.2922 35.7055 41.2922C37.1076 41.2922 38.2468 42.4303 38.2468 43.8311C38.2468 45.2319 37.1076 46.3701 35.7055 46.3701C34.3035 46.3993 33.1643 45.2319 33.1643 43.8311ZM47.3895 50.5725C45.6369 52.3235 42.307 52.4402 41.343 52.4402C40.3499 52.4402 37.02 52.2943 35.2966 50.5725C35.0337 50.3098 35.0337 49.9013 35.2966 49.6386C35.5595 49.376 35.9684 49.376 36.2313 49.6386C37.3413 50.7476 39.6781 51.127 41.343 51.127C43.008 51.127 45.374 50.7476 46.4547 49.6386C46.7176 49.376 47.1266 49.376 47.3895 49.6386C47.6231 49.9013 47.6231 50.3098 47.3895 50.5725ZM46.9221 46.3993C45.52 46.3993 44.3809 45.2611 44.3809 43.8603C44.3809 42.4595 45.52 41.3213 46.9221 41.3213C48.3242 41.3213 49.4634 42.4595 49.4634 43.8603C49.4634 45.2319 48.3242 46.3993 46.9221 46.3993Z" fill="#8B8B8B"/>
</svg>
