<svg width="143" height="143" viewBox="0 0 143 143" fill="none" xmlns="http://www.w3.org/2000/svg">
<rect x="0.5" y="0.5" width="142" height="142" rx="71" fill="url(#paint0_linear_229_2559)" fill-opacity="0.4"/>
<rect x="0.5" y="0.5" width="142" height="142" rx="71" stroke="url(#paint1_linear_229_2559)"/>
<g clip-path="url(#clip0_229_2559)">
<path d="M89.4211 38.1908C89.3769 37.9257 89.1561 37.749 88.9352 37.749C88.7143 37.749 84.5175 37.4398 84.5175 37.4398C84.5175 37.4398 81.6018 34.5241 81.2484 34.2149C80.9392 33.9056 80.2765 33.994 80.0557 34.0823C80.0115 34.0823 79.393 34.259 78.4211 34.5683C77.4492 31.741 75.7263 29.1345 72.6782 29.1345C72.5898 29.1345 72.5014 29.1345 72.4131 29.1345C71.5296 27.9859 70.4693 27.5 69.5416 27.5C62.4292 27.5 59.0276 36.3795 57.9673 40.8855C55.2284 41.7249 53.2404 42.3434 53.0195 42.4317C51.4733 42.9177 51.4292 42.9618 51.2525 44.4197C51.0757 45.4799 47.0557 76.6245 47.0557 76.6245L78.4211 82.5L95.4292 78.8333C95.4292 78.8333 89.4653 38.5 89.4211 38.1908ZM76.6541 35.0984C75.8589 35.3635 74.9753 35.6285 74.0035 35.9378C74.0035 35.761 74.0035 35.5843 74.0035 35.3635C74.0035 33.5964 73.7384 32.1827 73.385 31.0783C74.9753 31.255 75.9914 33.0221 76.6541 35.0984ZM71.4412 31.3876C71.883 32.492 72.148 34.0382 72.148 36.1586C72.148 36.247 72.148 36.3795 72.148 36.4679C70.4251 36.998 68.5255 37.5723 66.6701 38.1466C67.7304 34.1265 69.7183 32.1386 71.4412 31.3876ZM69.3207 29.3996C69.63 29.3996 69.9392 29.488 70.2484 29.7088C67.9954 30.7691 65.5215 33.4639 64.5055 38.8534C63.0035 39.3394 61.5456 39.7811 60.1761 40.1787C61.3689 36.0703 64.2404 29.3996 69.3207 29.3996Z" fill="#95BF47"/>
<path d="M88.935 37.7492C88.7141 37.7492 84.5173 37.4399 84.5173 37.4399C84.5173 37.4399 81.6016 34.5243 81.2482 34.215C81.1157 34.0825 80.9831 34.0383 80.8064 33.9941L78.4209 82.5002L95.4289 78.8335C95.4289 78.8335 89.4651 38.5002 89.4209 38.2351C89.3767 37.9259 89.1117 37.7933 88.935 37.7492Z" fill="#5E8E3E"/>
<path d="M72.6339 47.1597L70.5576 53.3886C70.5576 53.3886 68.7022 52.4167 66.4934 52.4167C63.1801 52.4167 63.0476 54.493 63.0476 55.0231C63.0476 57.8504 70.4693 58.9549 70.4693 65.6255C70.4693 70.8826 67.156 74.24 62.65 74.24C57.2604 74.24 54.5215 70.8826 54.5215 70.8826L55.9793 66.1115C55.9793 66.1115 58.8066 68.5412 61.1922 68.5412C62.7384 68.5412 63.401 67.3042 63.401 66.4207C63.401 62.7099 57.3046 62.5332 57.3046 56.4368C57.3046 51.3123 60.9713 46.3203 68.4372 46.3203C71.2203 46.3203 72.6339 47.1597 72.6339 47.1597Z" fill="white"/>
</g>
<path d="M52.2363 111.664C51.4753 111.664 50.8145 111.546 50.2539 111.309C49.6979 111.067 49.2627 110.723 48.9482 110.276C48.6338 109.83 48.4583 109.299 48.4219 108.684H49.9668C49.9987 109.053 50.1172 109.36 50.3223 109.606C50.5319 109.848 50.8031 110.028 51.1357 110.146C51.4684 110.265 51.833 110.324 52.2295 110.324C52.6624 110.324 53.0498 110.256 53.3916 110.119C53.7334 109.982 54 109.791 54.1914 109.545C54.3874 109.294 54.4854 109.003 54.4854 108.67C54.4854 108.369 54.3988 108.123 54.2256 107.932C54.057 107.74 53.8268 107.583 53.5352 107.46C53.2435 107.332 52.9154 107.221 52.5508 107.125L51.3545 106.797C50.5342 106.578 49.887 106.252 49.4131 105.819C48.9391 105.382 48.7021 104.81 48.7021 104.104C48.7021 103.516 48.8594 103.003 49.1738 102.565C49.4928 102.128 49.9235 101.788 50.4658 101.547C51.0127 101.301 51.6257 101.178 52.3047 101.178C52.9974 101.178 53.6058 101.301 54.1299 101.547C54.6585 101.788 55.0755 102.121 55.3809 102.545C55.6908 102.964 55.8525 103.445 55.8662 103.987H54.376C54.3213 103.518 54.1025 103.153 53.7197 102.894C53.3415 102.634 52.8584 102.504 52.2705 102.504C51.8604 102.504 51.5003 102.57 51.1904 102.702C50.8851 102.83 50.6481 103.007 50.4795 103.235C50.3154 103.463 50.2334 103.725 50.2334 104.021C50.2334 104.34 50.3314 104.6 50.5273 104.801C50.7279 105.001 50.9694 105.161 51.252 105.279C51.5391 105.393 51.8148 105.487 52.0791 105.56L53.0703 105.826C53.3939 105.908 53.7266 106.018 54.0684 106.154C54.4102 106.291 54.7269 106.471 55.0186 106.694C55.3148 106.913 55.5518 107.187 55.7295 107.515C55.9118 107.838 56.0029 108.23 56.0029 108.69C56.0029 109.26 55.8548 109.771 55.5586 110.222C55.2624 110.668 54.834 111.021 54.2734 111.281C53.7129 111.536 53.0339 111.664 52.2363 111.664ZM58.6143 106.968V111.5H57.1377V101.314H58.5938V105.115H58.6963C58.874 104.701 59.1452 104.372 59.5098 104.131C59.8789 103.885 60.3597 103.762 60.9521 103.762C61.4762 103.762 61.9342 103.869 62.3262 104.083C62.7181 104.297 63.0234 104.618 63.2422 105.047C63.4655 105.475 63.5771 106.008 63.5771 106.646V111.5H62.0869V106.824C62.0869 106.259 61.9411 105.822 61.6494 105.512C61.3623 105.202 60.9613 105.047 60.4463 105.047C60.0908 105.047 59.7764 105.124 59.5029 105.279C59.2295 105.43 59.013 105.646 58.8535 105.929C58.694 106.211 58.6143 106.558 58.6143 106.968ZM68.2051 111.657C67.4896 111.657 66.863 111.493 66.3252 111.165C65.792 110.837 65.3773 110.377 65.0811 109.784C64.7894 109.192 64.6436 108.504 64.6436 107.72C64.6436 106.927 64.7894 106.234 65.0811 105.642C65.3773 105.045 65.792 104.582 66.3252 104.254C66.863 103.926 67.4896 103.762 68.2051 103.762C68.9251 103.762 69.5518 103.926 70.085 104.254C70.6182 104.582 71.0329 105.045 71.3291 105.642C71.6253 106.234 71.7734 106.927 71.7734 107.72C71.7734 108.504 71.6253 109.192 71.3291 109.784C71.0329 110.377 70.6182 110.837 70.085 111.165C69.5518 111.493 68.9251 111.657 68.2051 111.657ZM68.2051 110.406C68.6745 110.406 69.0618 110.283 69.3672 110.037C69.6725 109.791 69.8981 109.465 70.0439 109.06C70.1943 108.649 70.2695 108.203 70.2695 107.72C70.2695 107.228 70.1943 106.776 70.0439 106.366C69.8981 105.956 69.6725 105.628 69.3672 105.382C69.0618 105.136 68.6745 105.013 68.2051 105.013C67.7402 105.013 67.3551 105.136 67.0498 105.382C66.749 105.628 66.5234 105.956 66.373 106.366C66.2227 106.776 66.1475 107.228 66.1475 107.72C66.1475 108.203 66.2227 108.649 66.373 109.06C66.5234 109.465 66.749 109.791 67.0498 110.037C67.3551 110.283 67.7402 110.406 68.2051 110.406ZM72.8467 114.357V103.857H74.2822V105.102H74.4053C74.4964 104.942 74.6217 104.757 74.7812 104.548C74.9453 104.338 75.1732 104.156 75.4648 104.001C75.7565 103.841 76.137 103.762 76.6064 103.762C77.2217 103.762 77.7686 103.917 78.2471 104.227C78.7301 104.536 79.1107 104.985 79.3887 105.573C79.6667 106.161 79.8057 106.87 79.8057 107.699C79.8057 108.52 79.6689 109.226 79.3955 109.818C79.1221 110.406 78.7438 110.86 78.2607 111.179C77.7822 111.493 77.2331 111.65 76.6133 111.65C76.153 111.65 75.7747 111.573 75.4785 111.418C75.1868 111.258 74.9567 111.074 74.7881 110.864C74.624 110.655 74.4964 110.47 74.4053 110.311H74.3232V114.357H72.8467ZM76.292 110.386C76.734 110.386 77.1032 110.267 77.3994 110.03C77.6956 109.793 77.9189 109.472 78.0693 109.066C78.2243 108.656 78.3018 108.196 78.3018 107.686C78.3018 107.18 78.2266 106.726 78.0762 106.325C77.9258 105.924 77.7025 105.607 77.4062 105.375C77.11 105.143 76.7386 105.026 76.292 105.026C75.859 105.026 75.4945 105.138 75.1982 105.361C74.902 105.58 74.6764 105.89 74.5215 106.291C74.3711 106.688 74.2959 107.152 74.2959 107.686C74.2959 108.219 74.3734 108.688 74.5283 109.094C74.6833 109.499 74.9089 109.816 75.2051 110.044C75.5059 110.272 75.8682 110.386 76.292 110.386ZM80.8857 111.5V103.857H82.3623V111.5H80.8857ZM81.6309 102.682C81.3711 102.682 81.1501 102.595 80.9678 102.422C80.7855 102.249 80.6943 102.041 80.6943 101.8C80.6943 101.554 80.7855 101.344 80.9678 101.171C81.1501 100.998 81.3711 100.911 81.6309 100.911C81.8861 100.911 82.1048 100.998 82.2871 101.171C82.474 101.344 82.5674 101.554 82.5674 101.8C82.5674 102.041 82.474 102.249 82.2871 102.422C82.1048 102.595 81.8861 102.682 81.6309 102.682ZM87.4209 103.857V105.054H83.1074V103.857H87.4209ZM84.2832 111.5V102.969C84.2832 102.495 84.388 102.101 84.5977 101.786C84.8118 101.467 85.0898 101.23 85.4316 101.075C85.778 100.916 86.1494 100.836 86.5459 100.836C86.8512 100.836 87.111 100.861 87.3252 100.911C87.5394 100.961 87.6966 101.005 87.7969 101.041L87.4414 102.244C87.373 102.221 87.2842 102.196 87.1748 102.169C87.07 102.142 86.9378 102.128 86.7783 102.128C86.4183 102.128 86.1585 102.219 85.999 102.401C85.8395 102.579 85.7598 102.839 85.7598 103.181V111.5H84.2832ZM89.2939 114.357C89.0706 114.362 88.8678 114.346 88.6855 114.31C88.5078 114.278 88.3711 114.239 88.2754 114.193L88.6377 112.983L88.7402 113.011C89.1185 113.106 89.4375 113.1 89.6973 112.99C89.9616 112.885 90.1826 112.591 90.3604 112.108L90.5449 111.603L87.7559 103.857H89.3486L91.2764 109.791H91.3584L93.293 103.857H94.8857L91.7412 112.512C91.5954 112.913 91.4108 113.25 91.1875 113.523C90.9642 113.801 90.6953 114.009 90.3809 114.146C90.071 114.287 89.7087 114.357 89.2939 114.357Z" fill="white"/>
<defs>
<linearGradient id="paint0_linear_229_2559" x1="83.4152" y1="3.52987" x2="121.339" y2="142.988" gradientUnits="userSpaceOnUse">
<stop stop-color="white"/>
<stop offset="1" stop-color="white" stop-opacity="0"/>
</linearGradient>
<linearGradient id="paint1_linear_229_2559" x1="83.2666" y1="-0.220408" x2="96.7002" y2="55.6094" gradientUnits="userSpaceOnUse">
<stop stop-color="white"/>
<stop offset="1" stop-color="white" stop-opacity="0"/>
</linearGradient>
<clipPath id="clip0_229_2559">
<rect width="55" height="55" fill="white" transform="translate(44 27.5)"/>
</clipPath>
</defs>
</svg>
