<svg width="143" height="143" viewBox="0 0 143 143" fill="none" xmlns="http://www.w3.org/2000/svg">
<rect x="0.5" y="0.5" width="142" height="142" rx="71" fill="url(#paint0_linear_229_2531)" fill-opacity="0.4"/>
<rect x="0.5" y="0.5" width="142" height="142" rx="71" fill="url(#paint1_linear_229_2531)" fill-opacity="0.4"/>
<rect x="0.5" y="0.5" width="142" height="142" rx="71" stroke="url(#paint2_linear_229_2531)"/>
<g clip-path="url(#clip0_229_2531)">
<g clip-path="url(#clip1_229_2531)">
<path d="M71.5 84C86.6878 84 99 71.6878 99 56.5C99 41.3122 86.6878 29 71.5 29C56.3122 29 44 41.3122 44 56.5C44 71.6878 56.3122 84 71.5 84Z" fill="#4353FF"/>
<path d="M79.5777 53.234L77.0855 61.0887C77.0855 60.4871 75.3668 47.459 75.3668 47.459C71.4137 47.459 69.3168 50.2605 68.2168 53.234L65.1746 61.1059C65.1746 60.5387 64.7449 53.3027 64.7449 53.3027C64.5982 51.7363 63.8821 50.2781 62.7322 49.2043C61.5824 48.1304 60.0787 47.5156 58.5059 47.4762L61.7371 67.2074C65.8621 67.2074 68.0965 64.4059 69.248 61.4324L71.8262 54.7293C71.8262 55.0043 73.5449 67.2074 73.5449 67.2074C75.2317 67.2052 76.8739 66.666 78.2337 65.6678C79.5934 64.6697 80.5999 63.2645 81.1074 61.6559L86.9512 47.459C82.8262 47.459 80.6605 50.2605 79.5606 53.234H79.5777Z" fill="white"/>
</g>
</g>
<path d="M47.2666 110L44.4502 99.8145H46.0635L48.0459 107.703H48.1416L50.2061 99.8145H51.8057L53.8633 107.71H53.9658L55.9414 99.8145H57.5684L54.7314 110H53.1865L51.0469 102.378H50.9648L48.8252 110H47.2666ZM60.877 110.157C60.1296 110.157 59.4824 109.995 58.9355 109.672C58.3887 109.348 57.9671 108.893 57.6709 108.305C57.3792 107.712 57.2334 107.022 57.2334 106.233C57.2334 105.45 57.377 104.759 57.6641 104.162C57.9557 103.565 58.3636 103.1 58.8877 102.768C59.4163 102.43 60.0361 102.262 60.7471 102.262C61.18 102.262 61.5993 102.332 62.0049 102.474C62.4105 102.615 62.7751 102.838 63.0986 103.144C63.4222 103.449 63.6774 103.845 63.8643 104.333C64.0557 104.821 64.1514 105.409 64.1514 106.097V106.63H58.0742V105.516H63.3857L62.6953 105.885C62.6953 105.415 62.6224 105.001 62.4766 104.641C62.3307 104.281 62.112 104 61.8203 103.8C61.5332 103.595 61.1755 103.492 60.7471 103.492C60.3187 103.492 59.9518 103.595 59.6465 103.8C59.3457 104.005 59.1156 104.276 58.9561 104.613C58.7965 104.951 58.7168 105.32 58.7168 105.721V106.479C58.7168 107.004 58.8079 107.448 58.9902 107.812C59.1725 108.177 59.4255 108.455 59.749 108.646C60.0771 108.838 60.4577 108.934 60.8906 108.934C61.1732 108.934 61.4284 108.893 61.6562 108.811C61.8887 108.729 62.0892 108.605 62.2578 108.441C62.4264 108.277 62.554 108.075 62.6406 107.833L64.0488 108.1C63.9349 108.51 63.7344 108.87 63.4473 109.18C63.1602 109.49 62.7979 109.731 62.3604 109.904C61.9274 110.073 61.4329 110.157 60.877 110.157ZM68.957 110.15C68.4967 110.15 68.1185 110.073 67.8223 109.918C67.5306 109.758 67.3005 109.574 67.1318 109.364C66.9678 109.155 66.8402 108.97 66.749 108.811H66.626V110H65.1904V99.8145H66.667V103.602H66.749C66.8402 103.442 66.9655 103.257 67.125 103.048C67.2891 102.838 67.5169 102.656 67.8086 102.501C68.1003 102.341 68.4808 102.262 68.9502 102.262C69.5654 102.262 70.1123 102.417 70.5908 102.727C71.0739 103.036 71.4544 103.485 71.7324 104.073C72.0104 104.661 72.1494 105.37 72.1494 106.199C72.1494 107.02 72.0127 107.726 71.7393 108.318C71.4658 108.906 71.0876 109.36 70.6045 109.679C70.126 109.993 69.5768 110.15 68.957 110.15ZM68.6357 108.886C69.0778 108.886 69.4469 108.767 69.7432 108.53C70.0394 108.293 70.2627 107.972 70.4131 107.566C70.568 107.156 70.6455 106.696 70.6455 106.186C70.6455 105.68 70.5703 105.226 70.4199 104.825C70.2695 104.424 70.0462 104.107 69.75 103.875C69.4538 103.643 69.0824 103.526 68.6357 103.526C68.2028 103.526 67.8382 103.638 67.542 103.861C67.2458 104.08 67.0202 104.39 66.8652 104.791C66.7148 105.188 66.6396 105.652 66.6396 106.186C66.6396 106.719 66.7171 107.188 66.8721 107.594C67.027 107.999 67.2526 108.316 67.5488 108.544C67.8496 108.772 68.2119 108.886 68.6357 108.886ZM76.8662 102.357V103.554H72.5527V102.357H76.8662ZM73.7285 110V101.469C73.7285 100.995 73.8333 100.601 74.043 100.286C74.2572 99.9671 74.5352 99.7301 74.877 99.5752C75.2233 99.4157 75.5947 99.3359 75.9912 99.3359C76.2965 99.3359 76.5563 99.361 76.7705 99.4111C76.9847 99.4613 77.1419 99.5046 77.2422 99.541L76.8867 100.744C76.8184 100.721 76.7295 100.696 76.6201 100.669C76.5153 100.642 76.3831 100.628 76.2236 100.628C75.8636 100.628 75.6038 100.719 75.4443 100.901C75.2848 101.079 75.2051 101.339 75.2051 101.681V110H73.7285ZM79.2861 99.8145V110H77.8096V99.8145H79.2861ZM83.9141 110.157C83.1986 110.157 82.5719 109.993 82.0342 109.665C81.501 109.337 81.0863 108.877 80.79 108.284C80.4984 107.692 80.3525 107.004 80.3525 106.22C80.3525 105.427 80.4984 104.734 80.79 104.142C81.0863 103.545 81.501 103.082 82.0342 102.754C82.5719 102.426 83.1986 102.262 83.9141 102.262C84.6341 102.262 85.2607 102.426 85.7939 102.754C86.3271 103.082 86.7419 103.545 87.0381 104.142C87.3343 104.734 87.4824 105.427 87.4824 106.22C87.4824 107.004 87.3343 107.692 87.0381 108.284C86.7419 108.877 86.3271 109.337 85.7939 109.665C85.2607 109.993 84.6341 110.157 83.9141 110.157ZM83.9141 108.906C84.3835 108.906 84.7708 108.783 85.0762 108.537C85.3815 108.291 85.6071 107.965 85.7529 107.56C85.9033 107.149 85.9785 106.703 85.9785 106.22C85.9785 105.728 85.9033 105.276 85.7529 104.866C85.6071 104.456 85.3815 104.128 85.0762 103.882C84.7708 103.636 84.3835 103.513 83.9141 103.513C83.4492 103.513 83.0641 103.636 82.7588 103.882C82.458 104.128 82.2324 104.456 82.082 104.866C81.9316 105.276 81.8564 105.728 81.8564 106.22C81.8564 106.703 81.9316 107.149 82.082 107.56C82.2324 107.965 82.458 108.291 82.7588 108.537C83.0641 108.783 83.4492 108.906 83.9141 108.906ZM89.9707 110L87.7285 102.357H89.2598L90.7568 107.97H90.8389L92.3359 102.357H93.874L95.3574 107.949H95.4326L96.9229 102.357H98.4541L96.2119 110H94.7012L93.1426 104.49H93.04L91.4814 110H89.9707Z" fill="white"/>
<defs>
<linearGradient id="paint0_linear_229_2531" x1="83.4152" y1="3.52987" x2="78.8514" y2="97.859" gradientUnits="userSpaceOnUse">
<stop stop-color="white"/>
<stop offset="1" stop-color="white" stop-opacity="0"/>
</linearGradient>
<linearGradient id="paint1_linear_229_2531" x1="83.4152" y1="3.52987" x2="121.339" y2="142.988" gradientUnits="userSpaceOnUse">
<stop stop-color="white"/>
<stop offset="1" stop-color="white" stop-opacity="0"/>
</linearGradient>
<linearGradient id="paint2_linear_229_2531" x1="83.2666" y1="-0.220408" x2="96.7002" y2="55.6094" gradientUnits="userSpaceOnUse">
<stop stop-color="white"/>
<stop offset="1" stop-color="white" stop-opacity="0"/>
</linearGradient>
<clipPath id="clip0_229_2531">
<rect width="55" height="55" fill="white" transform="translate(44 29)"/>
</clipPath>
<clipPath id="clip1_229_2531">
<rect width="55" height="55" fill="white" transform="translate(44 29)"/>
</clipPath>
</defs>
</svg>
