<svg width="175" height="53" viewBox="0 0 175 53" fill="none" xmlns="http://www.w3.org/2000/svg">
<g clip-path="url(#clip0_720_229)">
<path d="M42.4165 23.3578C34.0912 18.4082 20.3587 17.9531 12.4111 20.3679C11.1348 20.7554 9.78523 20.0342 9.39851 18.7565C9.01179 17.4783 9.7315 16.1281 11.0087 15.7396C20.132 12.967 35.298 13.5027 44.8823 19.1984C46.0306 19.8804 46.4071 21.3646 45.7265 22.5122C45.0455 23.6613 43.5617 24.0401 42.4165 23.3578ZM42.1439 30.689C41.5601 31.6379 40.3209 31.9353 39.3743 31.353C32.4334 27.0817 21.8495 25.8444 13.6379 28.3397C12.573 28.6618 11.4483 28.0608 11.1249 26.9967C10.804 25.9306 11.4047 24.8067 12.4676 24.4825C21.8483 21.6329 33.5095 23.0131 41.4814 27.9177C42.428 28.5012 42.7259 29.7425 42.1439 30.689ZM38.9836 37.7297C38.5197 38.4914 37.5285 38.7303 36.7704 38.266C30.7052 34.5551 23.0713 33.7168 14.081 35.7728C13.2145 35.9717 12.3512 35.428 12.1535 34.5609C11.9551 33.6936 12.4959 32.8294 13.3643 32.6315C23.2026 30.3799 31.642 31.349 38.4497 35.5135C39.2087 35.9775 39.4477 36.9702 38.9836 37.7297ZM27.1388 0.435737C12.8748 0.435737 1.31104 12.0117 1.31104 26.2916C1.31104 40.5728 12.8748 52.1484 27.1388 52.1484C41.4034 52.1484 52.9665 40.5728 52.9665 26.2916C52.9665 12.0117 41.4034 0.435737 27.1388 0.435737Z" fill="white"/>
<path d="M71.5794 24.3055C67.12 23.2409 66.3259 22.4936 66.3259 20.9239C66.3259 19.4404 67.7211 18.4425 69.7955 18.4425C71.8064 18.4425 73.8 19.2005 75.8908 20.7609C75.954 20.8082 76.0332 20.827 76.1113 20.8147C76.1893 20.8029 76.2581 20.7603 76.304 20.6955L78.4814 17.6227C78.5709 17.4964 78.5465 17.3217 78.4259 17.225C75.9379 15.2264 73.1363 14.2548 69.8615 14.2548C65.0466 14.2548 61.6833 17.1472 61.6833 21.2864C61.6833 25.725 64.5846 27.2964 69.5982 28.5094C73.8654 29.4935 74.5855 30.3177 74.5855 31.7917C74.5855 33.4246 73.1292 34.4399 70.7856 34.4399C68.1828 34.4399 66.0594 33.5621 63.6843 31.5029C63.6254 31.4523 63.5446 31.4289 63.4699 31.4331C63.3916 31.4396 63.3197 31.476 63.2698 31.5362L60.8284 34.4451C60.726 34.5658 60.7389 34.7461 60.857 34.8504C63.6208 37.3202 67.0192 38.625 70.6869 38.625C75.8753 38.625 79.2281 35.7866 79.2281 31.3939C79.2281 27.6815 77.0125 25.6283 71.5794 24.3055Z" fill="white"/>
<path d="M94.733 29.2798C94.733 32.4147 92.8042 34.6022 90.0423 34.6022C87.3119 34.6022 85.2523 32.3153 85.2523 29.2798C85.2523 26.2448 87.3119 23.9576 90.0423 23.9576C92.7598 23.9576 94.733 26.1954 94.733 29.2798ZM90.9667 19.9013C88.7177 19.9013 86.8731 20.7881 85.352 22.6051V20.5599C85.352 20.3984 85.2212 20.2669 85.0599 20.2669H81.0672C80.9058 20.2669 80.7754 20.3984 80.7754 20.5599V43.2852C80.7754 43.4467 80.9058 43.5781 81.0672 43.5781H85.0599C85.2212 43.5781 85.352 43.4467 85.352 43.2852V36.1121C86.8734 37.8214 88.7183 38.6562 90.9667 38.6562C95.1454 38.6562 99.3756 35.4358 99.3756 29.2798C99.3756 23.1225 95.1454 19.9013 90.9667 19.9013Z" fill="white"/>
<path d="M110.219 34.6352C107.356 34.6352 105.198 32.3328 105.198 29.2801C105.198 26.2145 107.282 23.9899 110.153 23.9899C113.034 23.9899 115.206 26.2922 115.206 29.347C115.206 32.4122 113.109 34.6352 110.219 34.6352ZM110.219 19.9016C104.837 19.9016 100.621 24.0501 100.621 29.347C100.621 34.5864 104.808 38.6914 110.153 38.6914C115.553 38.6914 119.782 34.5568 119.782 29.2801C119.782 24.021 115.582 19.9016 110.219 19.9016Z" fill="white"/>
<path d="M131.275 20.269H126.881V15.7716C126.881 15.6101 126.751 15.4789 126.589 15.4789H122.597C122.435 15.4789 122.304 15.6101 122.304 15.7716V20.269H120.384C120.223 20.269 120.093 20.4005 120.093 20.562V23.9974C120.093 24.1588 120.223 24.2903 120.384 24.2903H122.304V33.18C122.304 36.7724 124.09 38.5938 127.612 38.5938C129.045 38.5938 130.233 38.2977 131.353 37.6619C131.444 37.611 131.501 37.5128 131.501 37.4084V34.1369C131.501 34.0358 131.448 33.9408 131.362 33.8877C131.275 33.8331 131.167 33.8303 131.077 33.8745C130.308 34.2618 129.565 34.4407 128.734 34.4407C127.453 34.4407 126.881 33.8587 126.881 32.5535V24.2903H131.275C131.436 24.2903 131.566 24.1588 131.566 23.9974V20.562C131.566 20.4005 131.436 20.269 131.275 20.269Z" fill="white"/>
<path d="M146.584 20.2863V19.7339C146.584 18.1089 147.206 17.3843 148.602 17.3843C149.434 17.3843 150.103 17.5498 150.852 17.7999C150.944 17.8289 151.04 17.8144 151.115 17.7591C151.192 17.7039 151.236 17.6152 151.236 17.5214V14.1528C151.236 14.0241 151.153 13.9101 151.03 13.8725C150.238 13.6369 149.226 13.3948 147.711 13.3948C144.022 13.3948 142.073 15.474 142.073 19.4054V20.2514H140.155C139.994 20.2514 139.862 20.3826 139.862 20.5441V23.9972C139.862 24.1586 139.994 24.29 140.155 24.29H142.073V38.0019C142.073 38.1634 142.203 38.2946 142.364 38.2946H146.357C146.518 38.2946 146.65 38.1634 146.65 38.0019V24.29H150.378L156.089 37.9983C155.441 39.4386 154.803 39.7252 153.933 39.7252C153.229 39.7252 152.488 39.5148 151.731 39.0999C151.66 39.0606 151.575 39.0542 151.498 39.078C151.422 39.1051 151.358 39.1617 151.326 39.2361L149.972 42.2085C149.908 42.3489 149.963 42.5139 150.098 42.5867C151.511 43.3527 152.786 43.6797 154.362 43.6797C157.311 43.6797 158.94 42.3045 160.377 38.6056L167.305 20.6852C167.339 20.5951 167.329 20.4935 167.274 20.4132C167.219 20.3342 167.13 20.2863 167.034 20.2863H162.877C162.752 20.2863 162.641 20.3654 162.6 20.4824L158.342 32.6592L153.678 20.4743C153.635 20.361 153.526 20.2863 153.405 20.2863H146.584Z" fill="white"/>
<path d="M137.709 20.267H133.716C133.554 20.267 133.423 20.3986 133.423 20.5601V38.0002C133.423 38.1617 133.554 38.293 133.716 38.293H137.709C137.87 38.293 138.001 38.1617 138.001 38.0002V20.5601C138.001 20.3986 137.87 20.267 137.709 20.267Z" fill="white"/>
<path d="M135.732 12.3269C134.151 12.3269 132.867 13.6092 132.867 15.1925C132.867 16.777 134.151 18.0605 135.732 18.0605C137.313 18.0605 138.596 16.777 138.596 15.1925C138.596 13.6092 137.313 12.3269 135.732 12.3269Z" fill="white"/>
<path d="M170.877 22.0025H170.145V22.9365H170.877C171.242 22.9365 171.46 22.7576 171.46 22.4692C171.46 22.1654 171.242 22.0025 170.877 22.0025ZM171.351 23.3348L172.146 24.449H171.476L170.76 23.4271H170.145V24.449H169.584V21.4959H170.9C171.585 21.4959 172.035 21.847 172.035 22.4379C172.035 22.9219 171.756 23.2177 171.351 23.3348ZM170.728 20.5134C169.289 20.5134 168.199 21.6586 168.199 23.0615C168.199 24.4635 169.281 25.5936 170.713 25.5936C172.152 25.5936 173.243 24.449 173.243 23.0455C173.243 21.6435 172.16 20.5134 170.728 20.5134ZM170.713 25.875C169.133 25.875 167.903 24.6044 167.903 23.0615C167.903 21.5185 169.149 20.2334 170.728 20.2334C172.308 20.2334 173.538 21.5039 173.538 23.0455C173.538 24.5886 172.293 25.875 170.713 25.875Z" fill="white"/>
</g>
<defs>
<clipPath id="clip0_720_229">
<rect width="174.85" height="52.5013" fill="white" transform="translate(0 0.0410156)"/>
</clipPath>
</defs>
</svg>
