<svg width="176" height="84" viewBox="0 0 176 84" fill="none" xmlns="http://www.w3.org/2000/svg">
<path fill-rule="evenodd" clip-rule="evenodd" d="M155.284 43.0954C155.284 33.5061 150.651 25.9395 141.796 25.9395C132.904 25.9395 127.524 33.5061 127.524 43.0205C127.524 54.2955 133.876 59.9892 142.992 59.9892C147.438 59.9892 150.8 58.9778 153.341 57.5544V50.0627C150.8 51.3363 147.886 52.1229 144.187 52.1229C140.563 52.1229 137.35 50.8494 136.939 46.4293H155.209C155.209 45.9423 155.284 43.9944 155.284 43.0954ZM136.827 39.5369C136.827 35.3041 139.405 33.5435 141.759 33.5435C144.038 33.5435 146.466 35.3041 146.466 39.5369H136.827Z" fill="white"/>
<path fill-rule="evenodd" clip-rule="evenodd" d="M113.103 25.9395C109.442 25.9395 107.088 27.6625 105.78 28.8612L105.295 26.5388H97.0752V70.2154L106.415 68.2301L106.453 57.6293C107.798 58.6033 109.778 59.9892 113.066 59.9892C119.753 59.9892 125.843 54.5952 125.843 42.7209C125.806 31.8579 119.641 25.9395 113.103 25.9395ZM110.861 51.7484C108.657 51.7484 107.349 50.9617 106.453 49.9878L106.415 36.0907C107.387 35.0044 108.732 34.2552 110.861 34.2552C114.261 34.2552 116.615 38.076 116.615 42.9831C116.615 48.0025 114.299 51.7484 110.861 51.7484Z" fill="white"/>
<path fill-rule="evenodd" clip-rule="evenodd" d="M84.2227 23.7303L93.6003 21.7076V14.1035L84.2227 16.0888V23.7303Z" fill="white"/>
<path d="M93.6003 26.5781H84.2227V59.3543H93.6003V26.5781Z" fill="white"/>
<path fill-rule="evenodd" clip-rule="evenodd" d="M74.1727 29.3505L73.5749 26.5786H65.5049V59.3548H74.8452V37.1419C77.0495 34.2576 80.7856 34.782 81.9438 35.1941V26.5786C80.7482 26.1291 76.377 25.305 74.1727 29.3505Z" fill="white"/>
<path fill-rule="evenodd" clip-rule="evenodd" d="M55.4923 18.4492L46.3762 20.3971L46.3389 50.4013C46.3389 55.9452 50.486 60.0282 56.0154 60.0282C59.079 60.0282 61.3207 59.4663 62.5536 58.792V51.1879C61.358 51.6749 55.455 53.398 55.455 47.8541V34.5564H62.5536V26.5777H55.455L55.4923 18.4492Z" fill="white"/>
<path fill-rule="evenodd" clip-rule="evenodd" d="M30.2365 36.0907C30.2365 34.6298 31.4321 34.0679 33.4122 34.0679C36.2517 34.0679 39.8383 34.9295 42.6778 36.4653V27.6625C39.5768 26.4264 36.5132 25.9395 33.4122 25.9395C25.8279 25.9395 20.7842 29.9101 20.7842 36.5402C20.7842 46.8788 34.9814 45.2306 34.9814 49.6881C34.9814 51.4112 33.487 51.9731 31.3947 51.9731C28.2938 51.9731 24.3335 50.6995 21.1952 48.9764V57.8916C24.6697 59.3899 28.1817 60.0267 31.3947 60.0267C39.1658 60.0267 44.5085 56.1685 44.5085 49.4634C44.4711 38.3008 30.2365 40.2861 30.2365 36.0907Z" fill="white"/>
</svg>
