<svg width="52" height="52" viewBox="0 0 52 52" fill="none" xmlns="http://www.w3.org/2000/svg">
<path d="M26.0059 50.7838C39.8098 50.7838 51 39.6579 51 25.9334C51 12.2089 39.8098 1.08301 26.0059 1.08301C12.202 1.08301 1.01172 12.2089 1.01172 25.9334C1.01172 39.6579 12.202 50.7838 26.0059 50.7838Z" stroke="#B7B7B7"/>
<path d="M33.2902 21.311C32.7546 21.5793 32.219 21.6687 31.5942 21.7581C32.219 21.4004 32.6653 20.8639 32.8439 20.1486C32.3083 20.5062 31.6834 20.6851 30.9693 20.8639C30.4337 20.3274 29.6303 19.9697 28.8269 19.9697C27.3094 19.9697 25.9705 21.311 25.9705 22.9205C25.9705 23.1888 25.9705 23.3676 26.0597 23.5464C23.6496 23.457 21.418 22.2946 19.9897 20.5062C19.7219 20.9533 19.6327 21.4004 19.6327 22.0263C19.6327 23.0099 20.1683 23.9041 20.9716 24.4406C20.5253 24.4406 20.079 24.2618 19.6327 24.083C19.6327 25.5136 20.6146 26.6761 21.9536 26.9443C21.6858 27.0338 21.418 27.0338 21.1502 27.0338C20.9716 27.0338 20.7931 27.0338 20.6146 26.9443C20.9716 28.1068 22.0428 29.0009 23.3818 29.0009C22.3999 29.8057 21.1502 30.2528 19.7219 30.2528C19.4541 30.2528 19.2756 30.2528 19.0078 30.2528C20.3468 31.0576 21.8643 31.5941 23.4711 31.5941C28.8269 31.5941 31.7727 27.1232 31.7727 23.2782C31.7727 23.1888 31.7727 23.0099 31.7727 22.9205C32.3975 22.4734 32.9331 21.9369 33.2902 21.311Z" fill="white"/>
</svg>
