<svg width="86" height="86" viewBox="0 0 86 86" fill="none" xmlns="http://www.w3.org/2000/svg">
<g filter="url(#filter0_b_231_12433)">
<rect x="1" y="1" width="84" height="84" rx="42" fill="white" fill-opacity="0.4"/>
<rect x="1" y="1" width="84" height="84" rx="42" stroke="url(#paint0_linear_231_12433)"/>
<path d="M25.6702 52.044C24.8909 51.3196 24.2714 50.4566 23.8095 49.4565C23.3476 48.4563 23.1173 47.3773 23.1173 46.2172V27.043H25.6702V46.2184C25.6702 46.9727 25.8063 47.6745 26.0808 48.3274C26.3541 48.979 26.7361 49.5519 27.2278 50.0449C27.7184 50.5378 28.2805 50.9209 28.9155 51.1978C29.5492 51.4735 30.2415 51.6096 30.9922 51.6096C31.7418 51.6096 32.4412 51.4735 33.0905 51.1978C33.7398 50.9221 34.3091 50.539 34.7996 50.0449C35.2902 49.5519 35.6721 48.979 35.9466 48.3274C36.2199 47.6757 36.3572 46.9727 36.3572 46.2184V27.043H38.9102V46.2172C38.9102 47.3773 38.6798 48.4563 38.2191 49.4565C37.7572 50.4566 37.1366 51.3196 36.3572 52.044C35.6661 52.7112 34.8581 53.2328 33.9343 53.6088C33.0117 53.9859 32.0306 54.1745 30.9922 54.1745C29.9825 54.1745 29.0157 53.9859 28.0931 53.6088C27.1705 53.2316 26.3637 52.71 25.6702 52.044ZM64.7002 58.8699L57.3444 45.6956L56.0017 48.0875L62.0171 58.8699H59.0738L54.5312 50.6953L49.9874 58.8699H47.0454L53.0596 48.0875L54.5312 45.4354L55.8728 43.0436L54.5312 40.6517L53.0596 37.9997L46.9153 27H49.8585L54.5312 35.3476L59.1622 27H62.1042L56.0029 37.9997L57.3444 40.3915L64.7861 27H67.7294L58.8148 43.0436L67.6423 58.8699H64.7002ZM51.7193 40.3915L44.2763 27H41.3343L41.3581 27.043H41.2042V46.1897C41.2042 47.4334 41.0013 48.5995 40.599 49.6844C40.1944 50.7705 39.6311 51.76 38.9114 52.6587C38.132 53.5551 37.2822 54.3082 36.3584 54.9157C35.5802 55.4086 34.7435 55.7846 33.8484 56.0448C32.9544 56.305 32.002 56.4363 30.9934 56.4363C30.0123 56.4363 29.0742 56.305 28.1803 56.0448C27.2851 55.7858 26.4496 55.4086 25.6702 54.9157C25.1797 54.597 24.725 54.2509 24.306 53.8749C23.8883 53.4978 23.492 53.0932 23.1161 52.6587C22.3952 51.7612 21.8318 50.7705 21.4296 49.6844C21.025 48.5983 20.8233 47.4334 20.8233 46.1897V27.043H18.2715V46.2172C18.2715 47.6661 18.4947 49.0375 18.9423 50.3265C19.3886 51.6168 20.0164 52.7984 20.8245 53.869C21.1408 54.3333 21.4952 54.7605 21.8855 55.152C22.2746 55.5435 22.6852 55.9135 23.1185 56.2608C23.868 56.8409 24.719 57.3637 25.6714 57.8267C27.2565 58.6097 29.0312 59 30.9934 59C32.9544 59 34.7423 58.6097 36.3584 57.8267C37.3108 57.3637 38.1606 56.8409 38.9114 56.2608C39.3446 55.9135 39.7552 55.5435 40.1443 55.152C40.5334 54.7605 40.8867 54.3333 41.2054 53.869C42.0122 52.7972 42.64 51.6156 43.0876 50.3265C43.534 49.0375 43.7583 47.6661 43.7583 46.2172V31.3612L50.2488 43.0436L41.4202 58.8699H44.3623L51.7193 45.6956L53.1897 43.0436L51.7193 40.3915Z" fill="white"/>
</g>
<defs>
<filter id="filter0_b_231_12433" x="-19.5" y="-19.5" width="125" height="125" filterUnits="userSpaceOnUse" color-interpolation-filters="sRGB">
<feFlood flood-opacity="0" result="BackgroundImageFix"/>
<feGaussianBlur in="BackgroundImageFix" stdDeviation="10"/>
<feComposite in2="SourceAlpha" operator="in" result="effect1_backgroundBlur_231_12433"/>
<feBlend mode="normal" in="SourceGraphic" in2="effect1_backgroundBlur_231_12433" result="shape"/>
</filter>
<linearGradient id="paint0_linear_231_12433" x1="1.69727" y1="1" x2="85.6973" y2="85" gradientUnits="userSpaceOnUse">
<stop offset="0.138693" stop-color="white"/>
<stop offset="0.414413" stop-color="white" stop-opacity="0"/>
</linearGradient>
</defs>
</svg>
