<svg width="84" height="84" viewBox="0 0 84 84" fill="none" xmlns="http://www.w3.org/2000/svg">
<g filter="url(#filter0_b_54_85)">
<rect x="1" y="1" width="82" height="82" rx="41" fill="white" fill-opacity="0.4"/>
<rect x="1" y="1" width="82" height="82" rx="41" stroke="url(#paint0_linear_54_85)"/>
<path d="M42 16.25C37.1049 16.25 32.3197 17.7016 28.2496 20.4211C24.1795 23.1407 21.0073 27.0061 19.134 31.5286C17.2607 36.051 16.7706 41.0274 17.7256 45.8285C18.6806 50.6295 21.0378 55.0396 24.4991 58.501C27.9605 61.9622 32.3705 64.3195 37.1715 65.2745C41.9726 66.2294 46.949 65.7393 51.4714 63.866C55.9939 61.9927 59.8593 58.8204 62.5789 54.7503C65.2984 50.6803 66.75 45.8951 66.75 41C66.7426 34.4382 64.1326 28.1472 59.4926 23.5073C54.8528 18.8674 48.5618 16.2574 42 16.25ZM62.6078 50H55.6463C56.2169 47.4119 56.5338 44.7745 56.5924 42.125H64.4426C64.3156 44.8398 63.6938 47.5086 62.6078 50ZM19.5574 42.125H27.4076C27.4663 44.7745 27.7832 47.4119 28.3538 50H21.3923C20.3062 47.5086 19.6844 44.8398 19.5574 42.125ZM21.3923 32H28.3538C27.7832 34.5881 27.4663 37.2255 27.4076 39.875H19.5574C19.6844 37.1602 20.3062 34.4914 21.3923 32ZM43.125 29.75V18.6035C47.2189 19.2785 50.7345 23.594 52.701 29.75H43.125ZM53.3344 32C53.9443 34.5828 54.2837 37.222 54.3469 39.875H43.125V32H53.3344ZM40.875 18.6035V29.75H31.299C33.2655 23.594 36.7811 19.2785 40.875 18.6035ZM40.875 32V39.875H29.6565C29.7197 37.222 30.0592 34.5828 30.669 32H40.875ZM29.6565 42.125H40.875V50H30.6656C30.0569 47.4171 29.7186 44.7779 29.6565 42.125ZM40.875 52.25V63.3965C36.7811 62.7215 33.2655 58.406 31.299 52.25H40.875ZM43.125 63.3965V52.25H52.701C50.7345 58.406 47.2189 62.7215 43.125 63.3965ZM43.125 50V42.125H54.3435C54.2803 44.778 53.9409 47.4172 53.331 50H43.125ZM56.5924 39.875C56.5338 37.2255 56.2169 34.5881 55.6463 32H62.6078C63.6938 34.4914 64.3156 37.1602 64.4426 39.875H56.5924ZM61.4558 29.75H55.0646C54.0883 26.0842 52.2521 22.7039 49.7085 19.8894C54.6544 21.7058 58.8097 25.1938 61.4558 29.75ZM34.2915 19.8894C31.7479 22.7039 29.9118 26.0842 28.9354 29.75H22.5443C25.1903 25.1938 29.3457 21.7058 34.2915 19.8894ZM22.5443 52.25H28.9354C29.9118 55.9158 31.7479 59.2961 34.2915 62.1106C29.3457 60.2942 25.1903 56.8061 22.5443 52.25ZM49.7085 62.1106C52.2521 59.2961 54.0883 55.9158 55.0646 52.25H61.4558C58.8097 56.8061 54.6544 60.2942 49.7085 62.1106Z" fill="white"/>
</g>
<defs>
<filter id="filter0_b_54_85" x="-19.5" y="-19.5" width="123" height="123" filterUnits="userSpaceOnUse" color-interpolation-filters="sRGB">
<feFlood flood-opacity="0" result="BackgroundImageFix"/>
<feGaussianBlur in="BackgroundImageFix" stdDeviation="10"/>
<feComposite in2="SourceAlpha" operator="in" result="effect1_backgroundBlur_54_85"/>
<feBlend mode="normal" in="SourceGraphic" in2="effect1_backgroundBlur_54_85" result="shape"/>
</filter>
<linearGradient id="paint0_linear_54_85" x1="1.68066" y1="1" x2="83.6807" y2="83" gradientUnits="userSpaceOnUse">
<stop offset="0.138693" stop-color="white"/>
<stop offset="0.414413" stop-color="white" stop-opacity="0"/>
</linearGradient>
</defs>
</svg>
