<svg width="86" height="86" viewBox="0 0 86 86" fill="none" xmlns="http://www.w3.org/2000/svg">
<g filter="url(#filter0_b_54_117)">
<rect x="1" y="1" width="84" height="84" rx="42" fill="white" fill-opacity="0.4"/>
<rect x="1" y="1" width="84" height="84" rx="42" stroke="url(#paint0_linear_54_117)"/>
<mask id="mask0_54_117" style="mask-type:luminance" maskUnits="userSpaceOnUse" x="21" y="23" width="45" height="40">
<path d="M21 23H65.0816V63H21V23Z" fill="white"/>
</mask>
<g mask="url(#mask0_54_117)">
<path d="M62.5339 49.8685H23.5474V25.5046H62.5339V49.8685ZM47.3261 53.8831H38.7552C38.2971 53.8831 37.9251 53.5117 37.9251 53.053C37.9251 52.5943 38.2971 52.2218 38.7552 52.2218H47.3261C47.7853 52.2218 48.1563 52.5943 48.1563 53.053C48.1563 53.5117 47.7853 53.8831 47.3261 53.8831ZM63.5995 23.0137H22.4813C21.6974 23.0137 21.0586 23.6536 21.0586 24.4385V54.8116C21.0586 55.5971 21.6974 56.2365 22.4813 56.2365H41.6576V60.0619H39.3414C39.2771 60.0619 39.2144 60.0816 39.1618 60.1193L35.838 62.4477C35.5872 62.6241 35.711 63.0195 36.0187 63.0195H50.0621C50.3704 63.0195 50.4942 62.6241 50.2433 62.4477L46.9196 60.1193C46.8669 60.0816 46.8037 60.0619 46.7399 60.0619H44.4238V56.2365H63.5995C64.384 56.2365 65.0228 55.5971 65.0228 54.8116V24.4385C65.0228 23.6536 64.384 23.0137 63.5995 23.0137Z" fill="white"/>
</g>
<path d="M32.9028 31.8406C34.6604 31.8406 36.0895 33.2724 36.0895 35.031C36.0895 36.7907 34.6604 38.2214 32.9028 38.2214C31.1469 38.2214 29.7178 36.7907 29.7178 35.031C29.7178 33.2724 31.1469 31.8406 32.9028 31.8406ZM28.2722 37.7489L27.2714 39.0595L28.8812 40.6709L30.1897 39.6691C30.6101 39.9178 31.0655 40.1096 31.5486 40.2356L31.766 41.8677H34.0412L34.2586 40.2356C34.7417 40.1096 35.1977 39.9178 35.6175 39.6691L36.9265 40.6709L38.5358 39.0595L37.5356 37.7489C37.7838 37.3285 37.9751 36.872 38.1021 36.3883L39.731 36.1704V33.8915L38.1021 33.6747C37.9751 33.1911 37.7838 32.7351 37.5356 32.3131L38.5358 31.0036L36.9265 29.3922L35.6175 30.394C35.1977 30.1452 34.7417 29.9539 34.2586 29.8264L34.0412 28.1953H31.766L31.5486 29.8264C31.0655 29.9539 30.6101 30.1452 30.1897 30.394L28.8812 29.3922L27.2714 31.0036L28.2722 32.3131C28.0235 32.7351 27.8321 33.1911 27.7051 33.6747L26.0762 33.8915V36.1704L27.7051 36.3883C27.8321 36.872 28.0235 37.3285 28.2722 37.7489Z" fill="white"/>
<path d="M55.4219 39.5261L58.27 42.3779L56.0777 44.5734L56.4965 45.8919L60.0057 42.3779L56.2892 38.6582L55.4219 39.5261Z" fill="white"/>
<path d="M51.6175 40.1818L51.1982 38.8633L47.6895 42.3768L51.4044 46.0981L52.2723 45.2281L49.4252 42.3768L51.6175 40.1818Z" fill="white"/>
<path d="M51.7891 37.6051L54.9183 47.4648L55.9063 47.1496L52.7771 37.291L51.7891 37.6051Z" fill="white"/>
<path d="M60.0062 27.6074H41.541V29.0748H60.0062V27.6074Z" fill="white"/>
<path d="M44.5408 43.4551H26.0762V44.9224H44.5408V43.4551Z" fill="white"/>
<path d="M33.6953 47.565H44.5398V46.0977H33.6953V47.565Z" fill="white"/>
<path d="M45.9375 32.0103H60.0058V30.543H45.9375V32.0103Z" fill="white"/>
<path d="M47.9883 34.9439H60.0052V33.4766H47.9883V34.9439Z" fill="white"/>
</g>
<defs>
<filter id="filter0_b_54_117" x="-19.5" y="-19.5" width="125" height="125" filterUnits="userSpaceOnUse" color-interpolation-filters="sRGB">
<feFlood flood-opacity="0" result="BackgroundImageFix"/>
<feGaussianBlur in="BackgroundImageFix" stdDeviation="10"/>
<feComposite in2="SourceAlpha" operator="in" result="effect1_backgroundBlur_54_117"/>
<feBlend mode="normal" in="SourceGraphic" in2="effect1_backgroundBlur_54_117" result="shape"/>
</filter>
<linearGradient id="paint0_linear_54_117" x1="1.69727" y1="1" x2="85.6973" y2="85" gradientUnits="userSpaceOnUse">
<stop offset="0.138693" stop-color="white"/>
<stop offset="0.414413" stop-color="white" stop-opacity="0"/>
</linearGradient>
</defs>
</svg>
